<svg width="80" height="90" viewBox="0 0 80 90" fill="none" xmlns="http://www.w3.org/2000/svg">
<path d="M6.21842 68.4602C6.21842 68.1367 6.21842 67.8492 6.2903 67.5976C6.2903 67.5257 6.2903 67.382 6.2903 67.2742C6.2903 66.8788 6.36218 66.5194 6.36218 66.1241V66.0522C6.36218 65.6568 6.43406 65.2974 6.50594 64.9739C6.50594 64.8302 6.57782 64.6505 6.57782 64.5067C6.57782 64.363 6.6497 64.1833 6.6497 64.0395C6.6497 63.8957 6.72158 63.716 6.72158 63.5004C6.72158 63.3566 6.79346 63.1769 6.79346 62.9613C6.79346 62.8175 6.86534 62.6378 6.86534 62.4222C6.86534 62.2784 6.93722 62.0987 6.93722 61.8831C6.93722 61.7393 7.00911 61.5596 7.00911 61.344C7.00911 61.2002 7.08099 61.0205 7.08099 60.8049C7.15287 60.5892 7.15287 60.4095 7.22475 60.1939C7.22475 60.122 7.29663 60.0501 7.29663 59.8704C7.36851 59.5469 7.44039 59.2594 7.51227 58.936V58.8641C7.58415 58.5406 7.65603 58.325 7.72791 58.0015C7.72791 57.9296 7.79979 57.7859 7.79979 57.678C7.87167 57.5343 7.87167 57.2827 7.94355 57.1389C8.08732 56.6717 8.1592 56.2764 8.3389 55.8451C8.48266 55.3779 8.66236 54.9825 8.73424 54.5512C8.80612 54.4075 8.80612 54.3356 8.878 54.1559C8.94988 53.8324 9.09365 53.473 9.27335 53.1496C9.27335 53.0777 9.34523 52.9339 9.34523 52.8261C9.48899 52.4308 9.66869 51.9635 9.81245 51.6041C9.81245 51.5322 9.88434 51.3885 9.95622 51.2807C10.1 50.9572 10.1719 50.6697 10.3516 50.2743C10.4234 50.1306 10.4234 50.0587 10.4953 49.879C10.6391 49.5555 10.8188 49.1961 10.9625 48.8727C10.9625 48.8008 11.0344 48.7289 11.0344 48.657C11.1782 48.2617 11.4298 47.7944 11.5735 47.435C11.6454 47.3632 11.6454 47.2194 11.7173 47.1116C11.8611 46.7881 12.0408 46.5006 12.1845 46.1771C12.2564 46.0334 12.3283 45.9615 12.3283 45.7818C12.472 45.3864 12.6517 45.0989 12.8674 44.7036C12.8674 44.6317 12.9393 44.5598 12.9393 44.4879C13.1549 44.0926 13.4065 43.6254 13.5503 43.266C13.6221 43.1941 13.6221 43.0503 13.694 42.9425C13.8378 42.619 14.0894 42.2596 14.2331 41.9362C14.305 41.8643 14.3769 41.7205 14.3769 41.6127C14.5925 41.1455 14.8441 40.7501 15.0597 40.3188C15.0597 40.247 15.1316 40.247 15.1316 40.1751C15.3473 39.7797 15.5989 39.3125 15.8145 38.9531C15.8864 38.8812 15.9583 38.7375 16.0301 38.6296C16.3536 38.1624 16.5692 37.7671 16.8927 37.3358C17.2162 36.8686 17.5037 36.4013 17.8272 35.9341C17.899 35.8622 17.9709 35.7185 18.0428 35.6106C18.3663 35.1434 18.6538 34.6762 18.9773 34.209C19.0491 34.1371 19.0491 34.0652 19.121 33.9933C19.5164 33.4542 19.8758 32.9151 20.2711 32.376C20.6664 31.8369 21.0259 31.2978 21.4212 30.8306C21.4931 30.7587 21.565 30.6868 21.565 30.615C21.7087 30.4712 21.8884 30.2196 22.0322 30.0758C22.1041 29.9321 22.2478 29.7524 22.3556 29.6086C22.4994 29.4649 22.6791 29.2133 22.8229 29.0695C22.8948 28.9258 23.0385 28.8539 23.1463 28.6742C23.2901 28.4585 23.4698 28.2788 23.6136 28.1351C23.6854 27.9913 23.8292 27.9194 23.937 27.7397C24.0808 27.5241 24.3324 27.2725 24.4761 27.1287C24.548 27.0568 24.6199 26.985 24.6918 26.8053C25.0152 26.4099 25.3028 26.1224 25.6262 25.7271C25.6981 25.6552 25.77 25.5114 25.9497 25.4036C26.1653 25.188 26.4169 24.8645 26.7044 24.6488C26.7763 24.577 26.8482 24.4332 27.0279 24.3254C27.3514 23.93 27.7108 23.6425 28.0342 23.2472C28.3577 22.9237 28.7171 22.5643 29.0406 22.2408C29.1843 22.0971 29.2562 22.0252 29.4359 21.8455C29.6156 21.6658 29.6515 21.6299 29.8312 21.4502C30.0109 21.2705 30.1547 21.1267 30.2985 21.0548C30.4422 20.911 30.6219 20.8392 30.6938 20.6595C30.8376 20.5157 31.0173 20.336 31.161 20.2641C31.3048 20.1204 31.4845 20.0485 31.5564 19.8688C31.7001 19.725 31.8798 19.5453 32.0236 19.4734C32.1674 19.3297 32.3471 19.2578 32.4189 19.0781C32.5627 18.9343 32.7424 18.8624 32.8862 18.6827C33.0299 18.503 33.2096 18.4671 33.2815 18.2874C33.4253 18.1436 33.605 18.0718 33.7487 17.8921C33.8925 17.7483 34.0722 17.6764 34.1441 17.4967C34.2878 17.3529 34.4675 17.2811 34.6113 17.1014C34.7551 17.0295 34.9348 16.8857 35.0067 16.7779C35.1504 16.6341 35.3301 16.5623 35.4739 16.3825C35.6176 16.3107 35.7973 16.1669 35.9411 16.0591C36.0849 15.9153 36.2646 15.8434 36.4083 15.6637C36.5521 15.5919 36.7318 15.4481 36.8756 15.3403C37.0193 15.1965 37.199 15.1246 37.3428 14.9449C37.4865 14.8731 37.6662 14.7293 37.7381 14.6215C37.8819 14.4777 38.0616 14.4058 38.2772 14.2261C38.421 14.1542 38.6007 14.0105 38.6726 13.9027C38.8163 13.7589 38.996 13.687 39.2117 13.5073C39.3554 13.4354 39.5351 13.3636 39.607 13.1839C39.7508 13.0401 40.0024 12.9682 40.1461 12.7885C40.2899 12.7166 40.3618 12.6447 40.5415 12.5729C40.6852 12.4291 40.9368 12.3572 41.0806 12.1775C41.2243 12.1056 41.2962 12.0338 41.4759 11.9619C41.6916 11.8181 41.8713 11.7462 42.0869 11.5665C42.1588 11.4947 42.3025 11.4228 42.4104 11.3509C42.7338 11.2071 43.0214 10.9556 43.3448 10.8118C43.5605 10.668 43.8839 10.4883 44.0996 10.3446C44.1715 10.2727 44.2433 10.2727 44.3152 10.2008C44.459 10.1289 44.7106 10.057 44.8543 9.87734C44.9262 9.80546 45.07 9.80546 45.1778 9.73358C45.3215 9.6617 45.5012 9.58982 45.645 9.51794C45.7169 9.44606 45.8606 9.44605 45.9685 9.37417C46.1122 9.30229 46.2919 9.23041 46.4357 9.15853C46.5076 9.08665 46.6513 9.08665 46.7592 9.01477C46.9029 8.94289 47.0826 8.87101 47.1545 8.79913C47.2264 8.72725 47.3701 8.72725 47.478 8.65537C47.6217 8.58349 47.6936 8.51161 47.8733 8.51161C47.9452 8.43972 48.089 8.43972 48.1968 8.36784C48.3405 8.29596 48.4124 8.22408 48.5921 8.22408C48.664 8.1522 48.8078 8.1522 48.9156 8.08032C49.0593 8.00844 49.1312 8.00844 49.3109 7.93656C49.3828 7.93656 49.3828 7.86468 49.4547 7.86468C49.85 7.72091 50.1376 7.54121 50.5329 7.46933H50.6048C51.0001 7.32557 51.2876 7.25369 51.683 7.07399C51.7549 7.07399 51.8268 7.00211 51.8986 7.00211C52.294 6.85835 52.5815 6.78646 52.9768 6.67864C53.0487 6.67864 53.1206 6.67864 53.1206 6.60676C53.5159 6.53488 53.8035 6.39112 54.1988 6.2833H54.2707C54.4863 6.21142 54.8098 6.13954 55.0254 6.06766C55.0973 6.06766 55.1692 5.99578 55.2411 5.99578C55.4567 5.9239 55.6364 5.92389 55.8521 5.85201C55.924 5.85201 55.9958 5.85201 56.0677 5.78013C56.2834 5.70825 56.6068 5.70825 56.8225 5.63637C57.0381 5.56449 57.3616 5.56449 57.5772 5.49261C57.6491 5.49261 57.721 5.49261 57.9007 5.42073C58.0444 5.42073 58.2241 5.34885 58.3679 5.34885C58.4398 5.34885 58.5835 5.34885 58.6914 5.34885C58.8351 5.34885 59.0148 5.34885 59.1586 5.27697C59.2305 5.27697 59.3742 5.27697 59.482 5.27697C59.6258 5.27697 59.8055 5.27697 59.9493 5.27697C60.0212 5.27697 60.093 5.27697 60.2727 5.27697C60.4165 5.27697 60.5962 5.27697 60.74 5.27697C60.8118 5.27697 60.8837 5.27697 60.9556 5.27697C61.0994 5.27697 61.1712 5.27697 61.3509 5.27697C61.4228 5.27697 61.5666 5.27697 61.6744 5.27697C61.8182 5.27697 61.8901 5.27697 62.0698 5.27697C62.1416 5.27697 62.2135 5.27697 62.3932 5.27697C62.537 5.27697 62.6089 5.27697 62.7886 5.27697C62.8604 5.27697 62.9323 5.27697 63.112 5.27697C63.2558 5.27697 63.3277 5.27697 63.5074 5.27697C63.5793 5.27697 63.6511 5.27697 63.723 5.27697C64.0465 5.27697 62.8604 5.06133 63.723 5.20509C62.6448 5.13321 62.8604 5.13321 63.723 5.20509C63.0411 5.1645 73.0354 8.08032 73.0354 8.08032C73.0354 8.08032 63.6511 1.30105 58.3679 0.892283C53.0847 0.483517 50.5141 1.45282 46.9029 2.43768C46.9029 2.18162 46.7592 2.43768 46.7592 2.50956C46.3638 2.58144 46.0763 2.72521 45.6809 2.83303C45.6091 2.83303 45.5372 2.90491 45.4653 2.90491C45.07 3.04867 44.7824 3.12055 44.3871 3.30025H44.3152C43.9199 3.44401 43.6323 3.62371 43.237 3.69559C43.237 3.69559 43.1651 3.69559 43.1651 3.76748H43.0932C42.9495 3.83936 42.8776 3.83936 42.6979 3.91124C42.626 3.98312 42.4823 3.98312 42.3744 4.055C42.2307 4.12688 42.1588 4.19876 41.9791 4.19876C41.9072 4.27064 41.7634 4.27064 41.6556 4.34252C41.5119 4.4144 41.44 4.48628 41.2603 4.48628C41.1884 4.55816 41.0446 4.55816 40.9368 4.63004C40.7931 4.70192 40.6134 4.7738 40.5415 4.84568C40.4696 4.91757 40.3258 4.91756 40.218 4.98945C40.0743 5.06133 39.8945 5.13321 39.7508 5.20509C39.6789 5.27697 39.5351 5.27697 39.4273 5.34885C39.2836 5.42073 39.1039 5.49261 38.9601 5.56449C38.8882 5.63637 38.7445 5.63637 38.6366 5.70825C38.4929 5.78013 38.3132 5.85201 38.0975 6.03172C38.0256 6.1036 37.9538 6.1036 37.8819 6.17548C37.6662 6.31924 37.3428 6.49894 37.1271 6.6427C36.8037 6.78646 36.5162 7.03805 36.1927 7.18181C36.1208 7.25369 35.977 7.32557 35.8692 7.39745C35.6536 7.54121 35.4739 7.61309 35.2582 7.7928C35.1145 7.86468 35.0426 7.93656 34.8629 8.00844C34.7191 8.1522 34.4675 8.22408 34.3238 8.40378C34.18 8.47566 34.1081 8.54754 33.9284 8.61943C33.7847 8.76319 33.5331 8.83507 33.3893 9.01477C33.2456 9.08665 33.0659 9.15853 32.994 9.33823C32.8502 9.482 32.6705 9.55388 32.4549 9.73358C32.3111 9.80546 32.1314 9.94922 32.0595 10.057C31.9158 10.2008 31.7361 10.2727 31.5204 10.4524C31.3767 10.5243 31.197 10.668 31.1251 10.7758C30.9813 10.9196 30.8016 10.9915 30.6579 11.1712C30.5141 11.2431 30.3344 11.3868 30.1906 11.4947C30.0469 11.6384 29.8672 11.7103 29.7234 11.89C29.5797 11.9619 29.4 12.1056 29.2562 12.2135C29.1124 12.3572 28.9327 12.4291 28.789 12.6088C28.6452 12.6807 28.4655 12.8245 28.3936 12.9323C28.2499 13.076 28.0702 13.1479 27.9264 13.3276C27.7826 13.4714 27.6029 13.5433 27.5311 13.723C27.3873 13.8667 27.2076 13.9386 27.0638 14.1183C26.9201 14.298 26.7404 14.3339 26.6685 14.5136C26.5247 14.6574 26.345 14.7293 26.2013 14.909C26.0575 15.0528 25.8778 15.1246 25.8059 15.3043C25.6622 15.4481 25.4825 15.6278 25.3387 15.6997C25.1949 15.8434 25.0152 15.9153 24.9434 16.095C24.7996 16.2388 24.6199 16.4185 24.4761 16.4904C24.3324 16.6341 24.1527 16.706 24.0808 16.8857C23.937 17.0295 23.7573 17.2092 23.6136 17.2811C23.4698 17.4248 23.3979 17.4967 23.2182 17.6764C23.1463 17.7483 23.0745 17.8202 22.8948 17.9999C22.8229 18.0718 22.8229 18.0718 22.751 18.1436C22.4275 18.4671 22.0681 18.8265 21.7447 19.15C21.4212 19.4734 21.0618 19.8328 20.7383 20.2282C20.6664 20.3001 20.5946 20.4438 20.4149 20.5516C20.1992 20.7673 19.9476 21.0907 19.6601 21.3064C19.5882 21.3783 19.5164 21.522 19.3367 21.6299C19.0132 22.0252 18.7257 22.3127 18.4022 22.7081C18.3303 22.7799 18.2584 22.8518 18.1866 22.9237C18.0428 23.1394 17.7912 23.3909 17.6475 23.5347C17.5756 23.6785 17.4318 23.7503 17.324 23.93C17.1802 24.1457 17.0005 24.3254 16.8568 24.541C16.7849 24.6848 16.6411 24.7567 16.5333 24.9364C16.3895 25.0801 16.2098 25.3317 16.0661 25.4755C15.9942 25.6192 15.8504 25.7989 15.7426 25.9427C15.5989 26.0865 15.4192 26.338 15.2754 26.4818L15.2035 26.5537C15.2035 26.6256 15.1316 26.6256 15.1316 26.6974C14.7363 27.2366 14.3769 27.7757 13.9815 28.2429C13.5862 28.782 13.2268 29.3211 12.8314 29.8602C12.8314 29.9321 12.7596 29.9321 12.7596 30.004C12.7596 30.004 12.7596 30.0758 12.6877 30.0758C12.3642 30.5431 12.0767 31.0103 11.7532 31.4775C11.6814 31.5494 11.6095 31.6932 11.5376 31.801C11.2141 32.2682 10.9266 32.7354 10.6031 33.2026C10.2797 33.6699 10.064 34.0652 9.74057 34.4965C9.66869 34.5684 9.59681 34.7121 9.52493 34.82C9.30929 35.2153 9.05771 35.6825 8.84206 36.0419L8.77018 36.1138C8.55454 36.5092 8.30296 36.9764 8.08732 37.4077C8.01544 37.4796 7.94355 37.6233 7.94355 37.7311C7.79979 38.0546 7.54821 38.414 7.40445 38.7375C7.40445 38.8093 7.33257 38.8812 7.26069 38.9531C7.26069 38.9531 7.26069 39.025 7.18881 39.025C6.97317 39.4203 6.72158 39.8876 6.57782 40.247C6.57782 40.3188 6.50594 40.3907 6.50594 40.4626C6.36218 40.858 6.1106 41.1455 5.96683 41.5408C5.96683 41.6127 5.89495 41.6846 5.89495 41.6846C5.89495 41.7565 5.82307 41.8283 5.82307 41.9002C5.67931 42.2237 5.49961 42.5112 5.35585 42.8347C5.28397 42.9065 5.28397 43.0503 5.21209 43.1581C5.06833 43.5535 4.81674 44.0207 4.67298 44.3801V44.452C4.67298 44.5239 4.6011 44.5957 4.6011 44.6676C4.45734 44.9911 4.27764 45.3505 4.13388 45.674C4.06199 45.8177 4.06199 45.8896 3.99011 46.0693C3.84635 46.3928 3.77447 46.6803 3.59477 47.0756C3.59477 47.1475 3.52289 47.2194 3.52289 47.2913V47.3632C3.37913 47.7585 3.19943 48.2257 3.05566 48.5851C3.05566 48.657 2.98378 48.8008 2.98378 48.9086C2.84002 49.2321 2.76814 49.5915 2.58844 49.9149C2.58844 49.9868 2.51656 50.0587 2.51656 50.1306C2.51656 50.2024 2.51656 50.2024 2.44468 50.2743C2.30092 50.7416 2.12121 51.1369 2.04933 51.5682C1.90557 52.0354 1.83369 52.4308 1.65399 52.862C1.65399 52.9339 1.65399 52.9339 1.58211 53.0058C1.58211 53.1496 1.51023 53.2214 1.51023 53.4011C1.51023 53.473 1.43835 53.6168 1.43835 53.7246C1.36647 54.0481 1.29459 54.2637 1.22271 54.5872V54.6591C1.15082 54.9825 1.07894 55.27 1.00706 55.5935C1.00706 55.6654 0.935182 55.7373 0.935182 55.917C0.935182 56.0607 0.863301 56.2404 0.863301 56.3842C0.863301 56.4561 0.863301 56.528 0.863301 56.528C0.863301 56.6717 0.791421 56.8514 0.791421 57.0671C0.791421 57.2108 0.71954 57.3905 0.71954 57.6062C0.71954 57.7499 0.647659 57.9296 0.647659 58.1453C0.647659 58.289 0.575778 58.4687 0.575778 58.6844C0.575778 58.8281 0.503898 59.0078 0.503898 59.2235C0.503898 59.3672 0.432017 59.5469 0.432017 59.7626C0.432017 59.9064 0.360136 60.0861 0.360136 60.2298C0.360136 60.3017 0.360136 60.4455 0.288255 60.5533C0.288255 60.6252 0.288255 60.6252 0.288255 60.697C0.216375 61.0924 0.216375 61.4518 0.144494 61.7752V61.8471C0.144494 62.2425 0.0726132 62.6019 0.0726132 62.9972C0.0726132 63.0691 0.0726132 63.2129 0.0726132 63.3207C0.0726132 63.6441 0.0726132 63.9317 0.000732422 64.1833C0.000732422 64.2551 0.000732422 64.3989 0.000732422 64.5067C0.000732422 64.9021 0.000732422 65.2615 0.000732422 65.6568C0.000732422 74.8216 3.45101 81.1831 8.98583 84.4177L16.0301 87.6651C11.9795 85.3233 6.32624 78.811 6.32624 69.754C6.32624 69.3587 6.32624 68.9993 6.32624 68.604C6.21842 68.7118 6.21842 68.6399 6.21842 68.4602Z" fill="url(#paint0_linear)"/>
<path d="M72.6297 51.454L75.1814 67.124C75.3252 68.0585 75.0377 69.2804 74.247 70.3586C73.7798 71.0415 73.2407 71.5806 72.7016 71.9041C72.3781 72.0478 72.0906 72.2275 71.7671 72.2275L55.2345 74.1324C51.2452 77.8342 47.0761 80.8892 42.8711 83.369C22.3491 95.1934 5.27743 88.4366 5.20555 67.9866C5.13367 47.5365 22.1335 21.0844 42.6554 9.15218C50.6701 4.55182 59.0661 1.51491 64.6509 3.61737C70.5935 5.85452 74.6464 7.75249 77.6973 13.3213C79.865 17.2779 79.9975 20.3296 79.9975 24.6425C80.1053 32.8369 77.4816 42.2173 72.6297 51.454Z" fill="url(#paint1_linear)"/>
<path d="M47.8079 30.1064C47.6359 30.0983 47.3901 30.1926 47.1427 30.3221L36.865 36.2943C36.0146 36.7835 35.2361 37.9462 35.0866 38.9267C34.9848 39.6274 35.2778 39.9939 35.725 40.0149C35.9314 40.0246 36.1427 39.9287 36.3901 39.7992L46.6335 33.8253C47.4839 33.3362 48.2641 32.1383 48.4119 31.1929C48.5481 30.4939 48.2567 30.0922 47.8079 30.1064Z" fill="#EBEBFF"/>
<path d="M21.376 48.2626C21.5824 48.2723 21.7937 48.1764 22.0411 48.0469L29.9448 43.4446C30.7952 42.9554 31.5737 41.7928 31.7232 40.8122C31.8233 40.1467 31.5663 39.7466 31.0848 39.724C30.9128 39.716 30.667 39.8102 30.4196 39.9397L22.5159 44.542C21.6656 45.0311 20.887 46.1938 20.7376 47.1744C20.6357 47.8751 20.8944 48.24 21.376 48.2626Z" fill="#EBEBFF"/>
<path d="M32.2226 66.9778L37.2197 64.0732C38.0701 63.5841 38.8486 62.4214 38.9981 61.4408C39.0983 60.7753 38.8068 60.3737 38.3597 60.3527C38.1877 60.3446 37.9419 60.4389 37.6945 60.5684L32.6974 63.4729C31.847 63.9621 31.0685 65.1248 30.919 66.1054C30.8189 66.7709 31.1103 67.1725 31.5574 67.1935C31.7655 67.168 32.0096 67.1089 32.2226 66.9778Z" fill="#EBEBFF"/>
<path d="M38.2082 44.8764L43.2053 41.9718C44.0557 41.4827 44.8342 40.32 44.9837 39.3394C45.0839 38.6739 44.7924 38.2723 44.3453 38.2513C44.1733 38.2432 43.9275 38.3375 43.6801 38.4669L38.683 41.3715C37.8326 41.8607 37.0541 43.0234 36.9046 44.004C36.8044 44.6695 37.0959 45.0711 37.543 45.0921C37.7511 45.0666 37.9952 45.0075 38.2082 44.8764Z" fill="#EBEBFF"/>
<path d="M40.6772 56.0223L45.6743 53.1177C46.5247 52.6285 47.3032 51.4658 47.4527 50.4852C47.5528 49.8198 47.2614 49.4181 46.8143 49.3971C46.6423 49.389 46.3965 49.4833 46.1491 49.6128L41.152 52.5174C40.3016 53.0065 39.5231 54.1692 39.3736 55.1498C39.2734 55.8153 39.5648 56.217 40.012 56.238C40.2201 56.2125 40.4642 56.1534 40.6772 56.0223Z" fill="#EBEBFF"/>
<path d="M22.0402 72.8632L27.0374 69.9586C27.8877 69.4695 28.6662 68.3068 28.8157 67.3262C28.9159 66.6607 28.6245 66.259 28.1773 66.238C28.0053 66.23 27.7596 66.3243 27.5122 66.4537L22.515 69.3583C21.6647 69.8475 20.8861 71.0102 20.7367 71.9908C20.6365 72.6562 20.9279 73.0579 21.3751 73.0789C21.5831 73.0534 21.8272 72.9943 22.0402 72.8632Z" fill="#EBEBFF"/>
<path d="M34.0625 45.5619C34.1627 44.8964 33.8713 44.4947 33.4241 44.4737C33.2521 44.4657 33.0064 44.5599 32.759 44.6894L22.4812 50.6617C21.6309 51.1508 20.8523 52.3135 20.7373 53.2957C20.6354 53.9964 20.8924 54.3964 21.3757 54.3838C21.5477 54.3919 21.7934 54.2976 22.0408 54.1682L32.2842 48.1943C33.1345 47.7052 33.9131 46.5425 34.0625 45.5619Z" fill="#EBEBFF"/>
<path d="M61.5546 37.6968L64.2121 36.1638C65.028 35.673 65.8426 34.4768 65.956 33.5298C66.0562 32.8643 65.7992 32.4642 65.3176 32.4416C65.1456 32.4336 64.8999 32.5278 64.6525 32.6573L61.9933 34.2255C61.143 34.7147 60.3645 35.8774 60.2494 36.8596C60.1492 37.525 60.4062 37.9251 60.8878 37.9477C61.0958 37.9222 61.3055 37.8615 61.5546 37.6968Z" fill="#EBEBFF"/>
<path d="M51.2119 31.1609C51.4182 31.1706 51.6296 31.0747 51.877 30.9452L65.2743 23.1442C66.1247 22.6551 66.9032 21.4924 67.0527 20.5118C67.1529 19.8463 66.8615 19.4446 66.4143 19.4236C66.2423 19.4156 65.9965 19.5098 65.7491 19.6393L52.3174 27.4387C51.4671 27.9279 50.6885 29.0906 50.5391 30.0712C50.5077 30.7399 50.7647 31.1399 51.2119 31.1609Z" fill="#EBEBFF"/>
<path d="M47.5324 39.2891C47.7388 39.2988 47.9502 39.2029 48.1975 39.0734L61.5949 31.2724C62.4452 30.7833 63.2238 29.6206 63.3732 28.64C63.4734 27.9745 63.182 27.5728 62.7348 27.5518C62.5628 27.5438 62.3171 27.638 62.0697 27.7675L48.638 35.5669C47.7876 36.0561 47.0091 37.2188 46.8596 38.1994C46.8282 38.8681 47.0852 39.2681 47.5324 39.2891Z" fill="#EBEBFF"/>
<path d="M21.3998 66.8108C21.6062 66.8205 21.8176 66.7246 22.065 66.5951L35.4623 58.7941C36.3127 58.305 37.0912 57.1423 37.2407 56.1617C37.3408 55.4962 37.0494 55.0945 36.6023 55.0735C36.4303 55.0655 36.1845 55.1597 35.9371 55.2892L22.5054 63.0886C21.6551 63.5778 20.8765 64.7405 20.7271 65.7211C20.6957 66.3898 20.9527 66.7898 21.3998 66.8108Z" fill="#EBEBFF"/>
<path d="M21.3998 60.8307C21.6062 60.8404 21.8176 60.7445 22.065 60.615L35.4623 52.814C36.3127 52.3248 37.0912 51.1621 37.2407 50.1815C37.3408 49.516 37.0494 49.1144 36.6023 49.0934C36.4303 49.0853 36.1845 49.1796 35.9371 49.3091L22.5054 57.1085C21.6551 57.5976 20.8765 58.7603 20.7271 59.7409C20.6957 60.4096 20.9527 60.8097 21.3998 60.8307Z" fill="#EBEBFF"/>
<path d="M41.0739 49.4638C41.2803 49.4735 41.4917 49.3776 41.739 49.2481L55.1364 41.4471C55.9867 40.9579 56.7653 39.7953 56.9147 38.8147C57.0149 38.1492 56.7235 37.7475 56.2763 37.7265C56.1043 37.7185 55.8586 37.8127 55.6112 37.9422L42.1795 45.7416C41.3291 46.2308 40.5506 47.3935 40.4011 48.3741C40.3697 49.0428 40.6267 49.4428 41.0739 49.4638Z" fill="#EBEBFF"/>
<path d="M50.4965 50.2168C50.7029 50.2265 50.9143 50.1306 51.1617 50.0011L64.559 42.2001C65.4093 41.7109 66.1879 40.5482 66.3373 39.5676C66.4375 38.9022 66.1461 38.5005 65.6989 38.4795C65.527 38.4714 65.2812 38.5657 65.0338 38.6952L51.6021 46.4946C50.7517 46.9838 49.9732 48.1465 49.8237 49.1271C49.7923 49.7957 50.0494 50.1958 50.4965 50.2168Z" fill="#EBEBFF"/>
<path d="M41.1113 60.3333C41.0111 60.9987 41.2681 61.3988 41.7497 61.4214C41.9561 61.4311 42.1674 61.3352 42.4148 61.2057L52.6926 55.2335C53.5429 54.7443 54.3231 53.5464 54.4365 52.5994C54.5367 51.9339 54.2797 51.5339 53.7982 51.5113C53.6262 51.5032 53.3804 51.5975 53.133 51.727L42.8896 57.7008C42.0393 58.19 41.2608 59.3527 41.1113 60.3333Z" fill="#EBEBFF"/>
<defs>
<linearGradient id="paint0_linear" x1="-0.21642" y1="44.3442" x2="64.4404" y2="44.3442" gradientUnits="userSpaceOnUse">
<stop stop-color="#7E5AFF"/>
<stop offset="0.4888" stop-color="#662EFF"/>
<stop offset="0.8021" stop-color="#7448FF"/>
<stop offset="1" stop-color="#7E5AFF"/>
</linearGradient>
<linearGradient id="paint1_linear" x1="-9.51996" y1="13.3378" x2="87.019" y2="105.2" gradientUnits="userSpaceOnUse">
<stop stop-color="#D2CCFF"/>
<stop offset="0.5" stop-color="#9C88FF"/>
<stop offset="0.7032" stop-color="#B0A2FF"/>
<stop offset="0.9888" stop-color="#D2CCFF"/>
</linearGradient>
</defs>
</svg>
