<svg width="29" height="27" viewBox="0 0 29 27" fill="none" xmlns="http://www.w3.org/2000/svg">
<path d="M0.173828 21.9602C0.173828 23.5757 0.729602 24.7177 1.59105 25.1634L4.36074 26.8625H5.45368H5.70377C5.70377 26.8625 5.84485 26.7061 5.81706 26.6504C5.78927 26.4276 5.78714 26.6397 5.78714 26.6397C5.78714 26.6397 5.6482 26.5282 5.45368 26.389C5.53704 26.3611 5.62041 26.3054 5.70377 26.2497C5.78714 26.194 5.87051 26.1383 5.95387 26.1104L6.28734 25.9155L23.3218 16.0551C23.4052 16.0272 23.4885 15.9715 23.5719 15.9158C25.6838 14.6902 27.4345 11.4035 27.4623 8.56234C27.4623 8.53449 27.4623 8.50663 27.4623 8.47878C27.4623 8.45093 27.4623 8.45093 27.4623 8.42307C27.4623 7.89384 27.4067 7.39247 27.2678 6.97466C27.6846 6.83539 27.1157 5.71585 27.1157 5.71585C27.1157 5.71585 24.878 4.2171 24.5167 3.99427C24.5167 3.99427 24.4889 3.99427 24.4889 3.96641C24.4889 3.96641 24.4611 3.96641 24.4611 3.93856C23.7942 3.5486 22.905 3.57646 21.9324 4.16139C21.8768 4.18925 21.849 4.2171 21.7934 4.24496C21.7656 3.63217 24.4333 4.24496 24.2666 3.77144L20.3762 1.1253C19.5981 0.651776 18.5977 0.67963 17.4862 1.32027C16.9582 1.62667 16.458 2.04448 16.0134 2.518L14.5128 1.59882C14.5128 1.59882 14.485 1.59882 14.485 1.57096C13.9292 1.23671 13.3179 1.09744 12.6232 1.09744C12.4286 1.09744 12.2063 1.1253 11.984 1.15315C11.8729 1.181 11.7339 1.20886 11.6228 1.23671C11.067 1.37598 10.4834 1.59882 9.89986 1.96092C7.48225 3.35362 5.34252 6.25045 4.06424 9.48153C3.31395 11.4035 2.86933 13.4368 2.86933 15.3866C2.86933 15.4145 2.86933 15.4423 2.86933 15.4423C1.28538 17.0578 0.173828 19.6761 0.173828 21.9602Z" fill="#7041FF"/>
<path d="M2.6636 23.6111C2.69138 26.4801 4.44207 27.7892 6.5818 26.5079C6.66516 26.4522 6.74853 26.3965 6.8319 26.3408L24.1164 16.1462C24.1998 16.1183 24.2832 16.0626 24.3665 16.0069C26.4785 14.7535 28.2014 11.411 28.1736 8.542C28.1458 5.67303 26.3951 4.36389 24.2554 5.64518C24.1998 5.67303 24.172 5.70088 24.1164 5.72874C23.9497 2.7762 22.0601 1.46706 19.7814 2.83191C19.1701 3.19401 18.5865 3.72324 18.0585 4.33603C16.7802 2.52552 14.6405 2.1077 12.1951 3.55612C8.33248 5.84015 5.27573 11.8566 5.30352 17.0375C5.30352 17.0654 5.30352 17.0932 5.30352 17.0932C3.74735 18.6809 2.63581 21.2992 2.6636 23.6111Z" fill="#AB96FF"/>
<path d="M21.7875 10.5684C21.8776 10.6069 23.5765 11.3771 26.897 10.4657C26.9227 18.9892 22.0835 24.0597 21.8261 24.3293C21.5687 24.355 16.7167 24.8684 16.6909 16.3449C19.9986 13.4823 21.6974 10.7096 21.7875 10.5684Z" fill="#EBEBFF"/>
<path d="M25.6869 10.7479C25.7641 10.735 25.8542 10.7222 25.9314 10.6965C25.9571 10.6965 25.97 10.6837 25.9957 10.6837C26.0987 10.658 26.2017 10.6323 26.3175 10.6067C26.3432 10.5938 26.3819 10.5938 26.4076 10.581C26.4848 10.581 26.562 10.5553 26.6521 10.5296C26.665 10.5296 26.6779 10.5168 26.6907 10.5168C26.7551 10.504 26.8194 10.4783 26.8967 10.4654L25.4938 9.65674C25.4037 9.68241 25.3265 9.70808 25.2493 9.72092C25.1721 9.74659 25.082 9.75943 25.0047 9.7851C24.979 9.79794 24.9404 9.79794 24.9147 9.81078C24.8117 9.83645 24.6959 9.86212 24.5929 9.8878C24.5672 9.8878 24.5543 9.90063 24.5285 9.90063C24.4513 9.91347 24.3612 9.93914 24.284 9.95198C24.2454 9.96482 24.2197 9.96482 24.1811 9.96482C24.1167 9.97765 24.0523 9.99049 23.988 10.0033C23.9494 10.0033 23.9108 10.0162 23.8722 10.0162C23.8207 10.029 23.7692 10.029 23.7177 10.0418C23.6791 10.0418 23.6405 10.0418 23.6148 10.0418C23.5633 10.0418 23.5118 10.0547 23.4603 10.0547C23.4217 10.0547 23.396 10.0675 23.3574 10.0675C23.3059 10.0675 23.2544 10.0803 23.2029 10.0803C23.1772 10.0803 23.1386 10.0803 23.1128 10.0932C23.0485 10.0932 22.9841 10.106 22.9326 10.106C22.9198 10.106 22.894 10.106 22.8812 10.106C22.8039 10.106 22.7267 10.106 22.6624 10.1189C22.6495 10.1189 22.6238 10.1189 22.6109 10.1189C22.5594 10.1189 22.5079 10.1189 22.4564 10.1189C22.4307 10.1189 22.405 10.1189 22.3792 10.1189C22.3406 10.1189 22.2891 10.1189 22.2505 10.1189C22.2248 10.1189 22.199 10.1189 22.1733 10.1189C22.1347 10.1189 22.0961 10.1189 22.0575 10.1189C22.0317 10.1189 22.006 10.1189 21.9802 10.1189C21.9416 10.1189 21.903 10.1189 21.8644 10.106C21.8387 10.106 21.8129 10.106 21.7872 10.0932C21.7486 10.0932 21.7228 10.0803 21.6842 10.0803C21.6585 10.0803 21.6456 10.0803 21.6199 10.0675C21.5813 10.0675 21.5555 10.0547 21.5169 10.0547C21.4912 10.0418 21.4654 10.0418 21.4526 10.0418C21.414 10.0418 21.3754 10.029 21.3496 10.029C21.3367 10.029 21.3239 10.029 21.311 10.0162C21.2595 10.0033 21.2209 10.0033 21.1694 9.99049C21.1566 9.99049 21.1437 9.99049 21.1308 9.97765C21.0922 9.96482 21.0665 9.96482 21.0407 9.95198C21.0279 9.95198 21.015 9.93914 21.0021 9.93914C20.9764 9.93914 20.9506 9.92631 20.9249 9.92631C20.912 9.92631 20.8992 9.91347 20.8863 9.91347C20.8477 9.91347 20.8219 9.91347 20.7962 9.90063C20.7833 9.90063 20.7705 9.8878 20.7576 9.8878H20.7447C20.719 9.8878 20.7061 9.87496 20.6804 9.87496H20.6675C20.6418 9.86212 20.6289 9.86212 20.6031 9.84929H20.5903C20.5774 9.84929 20.5645 9.83645 20.5388 9.83645H20.5259C20.513 9.83645 20.5002 9.82361 20.4744 9.82361C20.4744 9.82361 20.4744 9.82361 20.4616 9.82361C20.4487 9.82361 20.4358 9.81078 20.4358 9.81078C20.4358 9.81078 20.4358 9.81078 20.423 9.81078C20.4358 9.7851 20.4358 9.77227 20.423 9.77227C20.423 9.77227 20.4101 9.77227 20.4101 9.75943H20.3972L21.8001 10.5681C21.8001 10.5681 21.8001 10.5681 21.8129 10.5681C21.8129 10.5681 21.8258 10.5681 21.8258 10.581C21.8387 10.581 21.8387 10.5938 21.8515 10.5938C21.8515 10.5938 21.8515 10.5938 21.8644 10.5938C21.8773 10.5938 21.8902 10.6067 21.8902 10.6067C21.8902 10.6067 21.8902 10.6067 21.903 10.6067C21.9159 10.6067 21.9288 10.6195 21.9545 10.6195C21.9545 10.6195 21.9545 10.6195 21.9674 10.6195C21.9803 10.6195 21.9931 10.6323 22.0189 10.6323H22.0317C22.0575 10.6452 22.0703 10.6452 22.0961 10.658H22.109C22.1218 10.658 22.1476 10.6708 22.1733 10.6708H22.1862H22.199C22.2119 10.6708 22.2119 10.6708 22.2248 10.6708C22.2505 10.6708 22.2763 10.6837 22.2891 10.6837C22.302 10.6837 22.3149 10.6965 22.3277 10.6965C22.3535 10.6965 22.3792 10.7093 22.405 10.7093C22.4178 10.7093 22.4307 10.7222 22.4436 10.7222C22.4693 10.735 22.5079 10.735 22.5337 10.7479C22.5465 10.7479 22.5594 10.7479 22.5723 10.7607C22.6238 10.7735 22.6624 10.7735 22.7139 10.7864C22.7267 10.7864 22.7396 10.7864 22.7525 10.7864C22.7911 10.7864 22.8168 10.7992 22.8554 10.7992C22.8683 10.7992 22.894 10.7992 22.9198 10.812C22.9584 10.812 22.9841 10.8249 23.0227 10.8249C23.0485 10.8249 23.0613 10.8249 23.0871 10.8377C23.1257 10.8377 23.1514 10.8505 23.19 10.8505C23.2158 10.8505 23.2415 10.8505 23.2673 10.8634C23.3059 10.8634 23.3445 10.8634 23.3831 10.8762C23.396 10.8762 23.4088 10.8762 23.4346 10.8762C23.4475 10.8762 23.4603 10.8762 23.4603 10.8762C23.4989 10.8762 23.5375 10.8762 23.5762 10.8762C23.6019 10.8762 23.6276 10.8762 23.6534 10.8762C23.692 10.8762 23.7306 10.8762 23.7821 10.8762C23.8078 10.8762 23.8336 10.8762 23.8593 10.8762C23.9108 10.8762 23.9623 10.8762 24.0137 10.8762C24.0395 10.8762 24.0523 10.8762 24.0652 10.8762C24.1424 10.8762 24.2068 10.8762 24.284 10.8634C24.2969 10.8634 24.3098 10.8634 24.3355 10.8634C24.3998 10.8634 24.4642 10.8634 24.5157 10.8505C24.5414 10.8505 24.58 10.8505 24.6058 10.8377C24.6572 10.8377 24.7087 10.8249 24.7602 10.8249C24.7988 10.8249 24.8246 10.812 24.8632 10.812C24.9147 10.812 24.9661 10.7992 25.0176 10.7992C25.0562 10.7992 25.0948 10.7864 25.1334 10.7864C25.1849 10.7735 25.2364 10.7735 25.2879 10.7607C25.3136 10.7607 25.3265 10.7607 25.3522 10.7479C25.3651 10.7479 25.3908 10.7479 25.4037 10.735C25.4681 10.7222 25.5324 10.7093 25.5968 10.6965C25.6225 10.7607 25.6483 10.7607 25.6869 10.7479Z" fill="url(#paint0_linear)"/>
<path d="M21.7356 10.6587C21.7484 10.6459 21.7484 10.633 21.7613 10.6202C21.7613 10.6074 21.7742 10.6074 21.7742 10.5945L21.787 10.5817L20.3842 9.76013C20.3842 9.76013 20.3842 9.77297 20.3713 9.77297C20.3713 9.78581 20.3585 9.78581 20.3585 9.79864C20.3456 9.81148 20.3456 9.82432 20.3327 9.83715C20.3198 9.86283 20.307 9.87566 20.307 9.8885C20.307 9.8885 20.307 9.8885 20.307 9.90134C20.2941 9.91417 20.2941 9.92701 20.2812 9.93985C20.2812 9.93985 20.2812 9.95268 20.2684 9.95268C20.2555 9.96552 20.2555 9.97836 20.2426 9.99119C20.2426 9.99119 20.2426 10.004 20.2298 10.004C20.2169 10.0169 20.204 10.0425 20.1911 10.0554C20.1911 10.0554 20.1911 10.0682 20.1783 10.0682C20.1654 10.081 20.1525 10.1067 20.1397 10.1196L20.1268 10.1324C20.1139 10.1581 20.101 10.1709 20.0753 10.1966C20.0753 10.1966 20.0753 10.1966 20.0753 10.2094C20.0624 10.2351 20.0496 10.2479 20.0367 10.2736C20.0367 10.2864 20.0238 10.2864 20.0238 10.2993C20.011 10.3249 19.9852 10.3506 19.9723 10.3763C19.9595 10.402 19.9337 10.4276 19.9209 10.4533C19.9209 10.4661 19.908 10.4661 19.908 10.479C19.8951 10.5047 19.8694 10.5303 19.8565 10.5432L19.8436 10.556C19.8179 10.5817 19.805 10.6202 19.7793 10.6459C19.7793 10.6587 19.7664 10.6587 19.7664 10.6715C19.7536 10.6972 19.7278 10.7229 19.7149 10.7486C19.7149 10.7614 19.7021 10.7614 19.7021 10.7742C19.6763 10.8127 19.6506 10.8384 19.6249 10.8769C19.5991 10.9154 19.5734 10.9411 19.5476 10.9796C19.5348 10.9925 19.5348 11.0053 19.5219 11.0053C19.4962 11.031 19.4833 11.0566 19.4575 11.0951C19.4575 11.108 19.4447 11.108 19.4447 11.1208C19.4189 11.1593 19.3932 11.1978 19.3546 11.2363C19.3546 11.2492 19.3417 11.2492 19.3417 11.262C19.316 11.2877 19.2902 11.3262 19.2645 11.3519C19.2516 11.3647 19.2516 11.3776 19.2387 11.3904C19.1744 11.4674 19.11 11.5573 19.0457 11.6343C19.0328 11.6471 19.0328 11.66 19.02 11.6728C18.9942 11.7113 18.9556 11.7498 18.9299 11.7883C18.9299 11.8012 18.917 11.8012 18.917 11.814C18.8784 11.8525 18.8398 11.9039 18.814 11.9424C18.8012 11.9552 18.8012 11.968 18.7883 11.9809C18.7625 12.0194 18.7239 12.0579 18.6982 12.0964C18.6853 12.1092 18.6853 12.1221 18.6725 12.1349C18.6338 12.1863 18.5952 12.2248 18.5566 12.2761C18.5438 12.289 18.5438 12.289 18.5309 12.3018C18.4923 12.3403 18.4665 12.3788 18.4279 12.4173C18.4151 12.4302 18.4022 12.443 18.3893 12.4558C18.3507 12.5072 18.3121 12.5457 18.2606 12.597C18.2091 12.6484 18.1577 12.7126 18.1062 12.7639C18.0933 12.7767 18.0804 12.7896 18.0804 12.8024C18.0289 12.8538 17.9775 12.9179 17.926 12.9693C17.9131 12.9821 17.9131 12.995 17.9002 12.995C17.8488 13.0463 17.7973 13.1105 17.7458 13.1618L17.7329 13.1747C17.6815 13.2389 17.6171 13.2902 17.5656 13.3544C17.5528 13.3672 17.5399 13.3801 17.527 13.3929C17.4755 13.4571 17.4112 13.5084 17.3597 13.5726C17.3468 13.5855 17.334 13.5983 17.334 13.5983C17.2825 13.6625 17.2181 13.7138 17.1666 13.778L17.1538 13.7908C17.0894 13.855 17.0379 13.9192 16.9736 13.9834C16.9607 13.9962 16.9479 14.0091 16.935 14.0219C16.8706 14.0861 16.8063 14.1503 16.7419 14.2145C16.7291 14.2273 16.7291 14.2273 16.7162 14.2401C16.6132 14.3428 16.5103 14.4327 16.4073 14.5354C16.3944 14.5482 16.3944 14.5482 16.3816 14.561C16.2786 14.6637 16.1628 14.7664 16.0469 14.8691L16.0341 14.882C15.9311 14.9847 15.8153 15.0873 15.6994 15.19C15.6866 15.2029 15.6737 15.2029 15.6737 15.2157C15.5321 15.3312 15.4034 15.4339 15.2876 15.5366L16.6904 16.3453C16.8063 16.2426 16.935 16.14 17.0508 16.0244C17.0637 16.0116 17.0766 16.0116 17.0766 15.9987C17.1924 15.8961 17.2953 15.7934 17.4112 15.6907L17.424 15.6778C17.5399 15.5751 17.6428 15.4724 17.7587 15.3698C17.7715 15.3569 17.7715 15.3569 17.7844 15.3441C17.8874 15.2414 17.9903 15.1515 18.0933 15.0488L18.1062 15.036L18.119 15.0232C18.1834 14.959 18.2477 14.8948 18.3121 14.8306C18.325 14.8178 18.3378 14.8049 18.3507 14.7921C18.4151 14.7279 18.4794 14.6637 18.5309 14.5996L18.5438 14.5867C18.5952 14.5225 18.6596 14.4712 18.7111 14.407C18.7239 14.3942 18.7368 14.3813 18.7368 14.3813C18.7883 14.3171 18.8526 14.2658 18.9041 14.2016C18.917 14.1888 18.9299 14.1759 18.9427 14.1631C18.9942 14.0989 19.0586 14.0476 19.11 13.9834L19.1229 13.9706C19.1744 13.9064 19.2259 13.855 19.2774 13.8037C19.2902 13.7908 19.2902 13.778 19.3031 13.778C19.3546 13.7267 19.4061 13.6625 19.4575 13.6111C19.4704 13.5983 19.4833 13.5855 19.4833 13.5726C19.5348 13.5084 19.5862 13.4571 19.6377 13.4057C19.6763 13.3544 19.7149 13.3159 19.7536 13.2645C19.7664 13.2517 19.7793 13.2389 19.7922 13.226C19.8308 13.1875 19.8565 13.149 19.8951 13.1105C19.908 13.0977 19.908 13.0977 19.9209 13.0848C19.9595 13.0335 19.9981 12.995 20.0367 12.9436C20.0496 12.9308 20.0496 12.9179 20.0624 12.9051C20.0882 12.8666 20.1268 12.8281 20.1525 12.7896C20.1654 12.7767 20.1654 12.7639 20.1783 12.7511C20.2169 12.7126 20.2555 12.6612 20.2812 12.6227C20.2941 12.6099 20.2941 12.6099 20.307 12.597C20.3327 12.5585 20.3713 12.52 20.3971 12.4943C20.4099 12.4815 20.4099 12.4687 20.4228 12.4558C20.4872 12.366 20.5515 12.289 20.6159 12.2119L20.6287 12.1991L20.6416 12.1863C20.6673 12.1478 20.6931 12.1221 20.7188 12.0964C20.7188 12.0836 20.7317 12.0836 20.7317 12.0707C20.7574 12.0322 20.796 11.9937 20.8218 11.9552C20.8218 11.9424 20.8346 11.9424 20.8346 11.9295C20.8604 11.9039 20.8733 11.8653 20.899 11.8397C20.9119 11.8268 20.9119 11.814 20.9247 11.814C20.9505 11.7755 20.9762 11.7498 21.002 11.7113C21.0277 11.6728 21.0534 11.6471 21.0792 11.6086C21.0792 11.5958 21.0921 11.5958 21.0921 11.5829C21.1049 11.5573 21.1307 11.5316 21.1435 11.5059C21.1435 11.4931 21.1564 11.4931 21.1564 11.4802C21.1821 11.4546 21.195 11.4161 21.2208 11.3904L21.2336 11.3776C21.2465 11.3519 21.2722 11.3262 21.2851 11.3134C21.2851 11.3134 21.2851 11.3005 21.298 11.3005C21.298 11.3005 21.298 11.2877 21.3108 11.2877C21.3366 11.262 21.3495 11.2363 21.3623 11.2107C21.3752 11.185 21.4009 11.1593 21.4138 11.1337C21.4138 11.1208 21.4267 11.1208 21.4267 11.108C21.4395 11.0823 21.4524 11.0695 21.4653 11.0438C21.4653 11.0438 21.4653 11.0438 21.4653 11.031C21.4782 11.0053 21.491 10.9796 21.5168 10.9668L21.5296 10.9539C21.5425 10.9411 21.5554 10.9154 21.5683 10.9026C21.5683 10.9026 21.5683 10.8898 21.5811 10.8898C21.594 10.8641 21.6069 10.8512 21.6197 10.8384C21.6197 10.8384 21.6197 10.8256 21.6326 10.8256C21.6455 10.8127 21.6455 10.7999 21.6583 10.7871C21.6583 10.7871 21.6583 10.7742 21.6712 10.7742C21.6841 10.7614 21.697 10.7486 21.697 10.7357C21.7098 10.6844 21.7227 10.6715 21.7356 10.6587Z" fill="url(#paint1_linear)"/>
<path d="M16.6904 16.3446L15.2876 15.5359C15.3005 20.2598 16.7934 22.211 18.1705 23.0068L19.5734 23.8155C18.1963 23.0197 16.7033 21.0685 16.6904 16.3446Z" fill="url(#paint2_linear)"/>
<path fill-rule="evenodd" clip-rule="evenodd" d="M24.1237 14.3648C24.011 14.3033 23.8829 14.3316 23.7788 14.3911C23.6708 14.4528 23.571 14.5626 23.4957 14.6858L21.3495 18.4075L20.3513 17.8413L20.3499 17.8405C20.2371 17.779 20.1091 17.8073 20.005 17.8668C19.8969 17.9286 19.7972 18.0383 19.7219 18.1615L19.7213 18.1626C19.6435 18.2935 19.604 18.4349 19.605 18.5593C19.6059 18.6797 19.6465 18.8078 19.7577 18.8713L21.0888 19.632C21.1933 19.694 21.3281 19.6753 21.4372 19.6066C21.5517 19.5443 21.6515 19.4342 21.7209 19.3095L24.1624 15.0733C24.2395 14.9401 24.279 14.7991 24.2781 14.6753C24.2771 14.5549 24.236 14.4289 24.1254 14.3657L24.1237 14.3648Z" fill="#6B38FF"/>
<defs>
<linearGradient id="paint0_linear" x1="20.3853" y1="10.2917" x2="26.8978" y2="10.2917" gradientUnits="userSpaceOnUse">
<stop stop-color="#DEDEFF"/>
<stop offset="0.1849" stop-color="#DADAFF"/>
<stop offset="0.3691" stop-color="#D0CEFF"/>
<stop offset="0.4888" stop-color="#C5C2FF"/>
<stop offset="0.6241" stop-color="#D2D0FF"/>
<stop offset="0.7978" stop-color="#DBDBFF"/>
<stop offset="1" stop-color="#DEDEFF"/>
</linearGradient>
<linearGradient id="paint1_linear" x1="15.2876" y1="13.0535" x2="21.784" y2="13.0535" gradientUnits="userSpaceOnUse">
<stop stop-color="#DEDEFF"/>
<stop offset="0.1849" stop-color="#DADAFF"/>
<stop offset="0.3691" stop-color="#D0CEFF"/>
<stop offset="0.4888" stop-color="#C5C2FF"/>
<stop offset="0.6241" stop-color="#D2D0FF"/>
<stop offset="0.7978" stop-color="#DBDBFF"/>
<stop offset="1" stop-color="#DEDEFF"/>
</linearGradient>
<linearGradient id="paint2_linear" x1="15.2876" y1="19.6745" x2="19.5663" y2="19.6745" gradientUnits="userSpaceOnUse">
<stop stop-color="#DEDEFF"/>
<stop offset="0.1849" stop-color="#DADAFF"/>
<stop offset="0.3691" stop-color="#D0CEFF"/>
<stop offset="0.4888" stop-color="#C5C2FF"/>
<stop offset="0.6241" stop-color="#D2D0FF"/>
<stop offset="0.7978" stop-color="#DBDBFF"/>
<stop offset="1" stop-color="#DEDEFF"/>
</linearGradient>
</defs>
</svg>
