<?xml version="1.0" encoding="UTF-8"?>
<svg width="121px" height="59px" viewBox="0 0 121 59" version="1.1" xmlns="http://www.w3.org/2000/svg" xmlns:xlink="http://www.w3.org/1999/xlink">
    <title>uniphy</title>
    <defs>
        <path d="M4.18319993,17.7911997 C5.74559991,17.7911997 7.28279988,17.1863997 8.16479987,15.8759997 L8.16479987,17.5643997 L10.3319998,17.5643997 L10.3319998,5.14079992 L8.16479987,5.14079992 L8.16479987,10.5335998 C8.16479987,13.4063998 7.33319988,15.8759997 4.73759992,15.8759997 C2.39399996,15.8759997 2.16719997,13.8851998 2.16719997,12.2723998 L2.16719997,5.14079992 L-3.55271368e-15,5.14079992 L-3.55271368e-15,12.8015998 C-3.55271368e-15,15.7247998 1.25999998,17.7911997 4.18319993,17.7911997 Z M16.7327997,17.5643997 L16.7327997,12.1967998 C16.7327997,9.12239986 17.6399997,6.82919989 20.1347997,6.82919989 C22.1507996,6.82919989 22.7303996,8.29079987 22.7303996,10.3571998 L22.7303996,17.5643997 L24.8975996,17.5643997 L24.8975996,9.82799984 C24.8975996,6.62759989 23.4359996,4.91399992 20.7143997,4.91399992 C19.0259997,4.91399992 17.5643997,5.61959991 16.7327997,6.82919989 L16.7327997,5.14079992 L14.5655998,5.14079992 L14.5655998,17.5643997 L16.7327997,17.5643997 Z M31.1219995,2.64599996 L31.1219995,-1.77635684e-15 L28.7027995,-1.77635684e-15 L28.7027995,2.64599996 L31.1219995,2.64599996 Z M30.9959995,17.5643997 L30.9959995,5.14079992 L28.8287995,5.14079992 L28.8287995,17.5643997 L30.9959995,17.5643997 Z M37.3967994,22.7051996 L37.3967994,16.0019997 C38.2283994,17.1107997 39.6647994,17.7911997 41.3279993,17.7911997 C44.7803993,17.7911997 46.7711993,15.1703998 46.7711993,11.3399998 C46.7711993,7.50959988 44.7551993,4.91399992 41.3279993,4.91399992 C39.7151994,4.91399992 38.3039994,5.49359991 37.3967994,6.67799989 L37.3967994,5.14079992 L35.2295994,5.14079992 L35.2295994,22.7051996 L37.3967994,22.7051996 Z M40.9247994,15.8759997 C38.4551994,15.8759997 37.2203994,13.9355998 37.2203994,11.3399998 C37.2203994,8.64359986 38.5307994,6.80399989 40.9247994,6.80399989 C43.2683993,6.80399989 44.6039993,8.56799986 44.6039993,11.3399998 C44.6039993,14.0363998 43.3439993,15.8759997 40.9247994,15.8759997 Z M52.1891992,17.5643997 L52.1891992,12.0959998 C52.1891992,8.61839986 53.3735992,6.82919989 55.6163991,6.82919989 C57.3803991,6.82919989 58.1867991,7.93799987 58.1867991,10.3571998 L58.1867991,17.5643997 L60.353999,17.5643997 L60.353999,9.82799984 C60.353999,6.62759989 58.8923991,4.91399992 56.1959991,4.91399992 C54.4571991,4.91399992 53.0207992,5.61959991 52.1891992,6.82919989 L52.1891992,-1.77635684e-15 L50.0219992,-1.77635684e-15 L50.0219992,17.5643997 L52.1891992,17.5643997 Z" id="path-1"></path>
        <polygon id="path-2" points="65.4877989 22.7051996 72.3673988 5.14079992 69.9733989 5.14079992 66.4201989 14.8427998 62.514199 5.14079992 60.120199 5.14079992 65.2609989 17.3627997 63.144199 22.7051996"></polygon>
        <linearGradient x1="1.81241502%" y1="49.8672081%" x2="98.187585%" y2="49.8672081%" id="linearGradient-3">
            <stop stop-color="#4E86FF" offset="0%"></stop>
            <stop stop-color="#0755C0" offset="100%"></stop>
        </linearGradient>
        <linearGradient x1="20.8167766%" y1="0%" x2="73.2600821%" y2="22.4108988%" id="linearGradient-4">
            <stop stop-color="#53F9E6" offset="0%"></stop>
            <stop stop-color="#00A9A7" offset="100%"></stop>
        </linearGradient>
        <path d="M0.219843639,0.217274897 C0.232659077,-0.147007949 0.666478132,0.359966811 1.52130081,1.73819917 L21.5446766,1.73819917 L0.219843639,28.0284617 C0.207028201,9.85195334 0.207028201,0.581557742 0.219843639,0.217274897 Z" id="path-5"></path>
        <linearGradient x1="-1.11022302e-14%" y1="50%" x2="100%" y2="50%" id="linearGradient-7">
            <stop stop-color="#FFEE80" offset="0%"></stop>
            <stop stop-color="#FF913B" offset="100%"></stop>
        </linearGradient>
    </defs>
    <g id="Page-1" stroke="none" stroke-width="1" fill="none" fill-rule="evenodd">
        <g id="uniphy">
            <g id="Group-2" transform="translate(47.514399, 20.435600)" fill="#000000" fill-rule="nonzero">
                <g id="Group-3" transform="translate(0.000000, 0.000000)">
                    <g id="uniph">
                        <use xlink:href="#path-1"></use>
                        <use xlink:href="#path-1"></use>
                    </g>
                    <g id="y">
                        <use xlink:href="#path-2"></use>
                        <use xlink:href="#path-2"></use>
                    </g>
                </g>
            </g>
            <g id="Group" transform="translate(28.487577, 29.155483) rotate(140.000000) translate(-28.487577, -29.155483) translate(11.487577, 5.655483)">
                <polygon id="Rectangle" fill="url(#linearGradient-3)" fill-rule="nonzero" points="20.8851457 0 20.8851457 25.4211629 0 25.4211629"></polygon>
                <g id="Rectangle" transform="translate(11.871557, 17.164717)">
                    <g id="Mask" fill="url(#linearGradient-4)" fill-rule="nonzero">
                        <path d="M0.219843639,0.217274897 C0.232659077,-0.147007949 0.666478132,0.359966811 1.52130081,1.73819917 L21.5446766,1.73819917 L0.219843639,28.0284617 C0.207028201,9.85195334 0.207028201,0.581557742 0.219843639,0.217274897 Z" id="path-3"></path>
                    </g>
                    <g id="Clipped">
                        <mask id="mask-6" fill="white">
                            <use xlink:href="#path-5"></use>
                        </mask>
                        <g id="path-3"></g>
                        <rect id="Rectangle" fill="url(#linearGradient-7)" fill-rule="nonzero" mask="url(#mask-6)" x="-1.75874911" y="9.77737036" width="11.8715565" height="24.1175136"></rect>
                    </g>
                </g>
                <path d="M20.8844001,15.8610675 L20.8844001,18.9020675 L13.6123244,18.902916 C12.7723411,18.902916 12.0914001,18.221975 12.0914001,17.3819917 C12.0914001,16.5420085 12.7723411,15.8610675 13.6123244,15.8610675 L20.8844001,15.8610675 Z" id="Combined-Shape" fill="#1D2087" fill-rule="nonzero"></path>
                <path d="M20.4634396,25.4211629 C21.3034229,25.4211629 21.9843639,26.1021039 21.9843639,26.9420872 C21.9843639,27.7820705 21.3034229,28.4630115 20.4634396,28.4630115 L12.0914001,28.4621629 L12.0914001,25.4211629 L20.4634396,25.4211629 Z" id="Combined-Shape" fill="#1D2087" fill-rule="nonzero"></path>
                <polygon id="Path-2" fill-opacity="0.298350087" fill="#008380" fill-rule="nonzero" points="21.8946062 27.4888793 24.6420244 29.7666609 21.9843639 33.0221772"></polygon>
            </g>
        </g>
    </g>
</svg>