<svg width="815" height="173" viewBox="0 0 815 173" fill="none" xmlns="http://www.w3.org/2000/svg">
<g clip-path="url(#clip0)">
<path fill-rule="evenodd" clip-rule="evenodd" d="M566.656 42.5641C562.84 46.2048 559.85 50.6221 557.888 55.5175C555.926 60.4129 555.038 65.6724 555.283 70.9407V121.406H574.912V70.9407C574.713 68.4359 575.039 65.9172 575.867 63.5451C576.695 61.1729 578.009 58.9992 579.723 57.1625C585.001 53.6095 591.427 52.1838 597.711 53.1712L608.646 34.6909L597.711 33.9801C592.239 33.1274 586.648 33.452 581.312 34.9323C575.975 36.4126 571.016 39.0144 566.765 42.5641" fill="white"/>
<path fill-rule="evenodd" clip-rule="evenodd" d="M107.437 42.5639C103.622 46.2046 100.632 50.6219 98.6698 55.5173C96.7079 60.4127 95.8196 65.6722 96.0649 70.9405V121.406H115.693V70.9405C115.488 68.4307 115.816 65.9059 116.655 63.5315C117.493 61.1571 118.824 58.9867 120.559 57.1623C125.814 53.6026 132.225 52.1757 138.493 53.171L149.428 34.6907L138.493 33.9799C133.004 33.1146 127.393 33.4329 122.037 34.9134C116.681 36.3938 111.703 39.0023 107.437 42.5639Z" fill="white"/>
<path fill-rule="evenodd" clip-rule="evenodd" d="M156.755 121.406H176.383V35.3469H156.755V121.406Z" fill="white"/>
<path fill-rule="evenodd" clip-rule="evenodd" d="M794.926 36.6042V87.2883C794.926 90.9135 793.486 94.3902 790.923 96.9536C788.359 99.517 784.882 100.957 781.257 100.957C777.632 100.957 774.155 99.517 771.592 96.9536C769.029 94.3902 767.588 90.9135 767.588 87.2883V36.6042H748.124V87.2883C748.331 89.1693 748.128 91.0727 747.53 92.8681C746.933 94.6635 745.953 96.3083 744.66 97.6898C743.367 99.0713 741.79 100.157 740.038 100.872C738.286 101.587 736.4 101.914 734.51 101.832C732.625 101.918 730.745 101.592 728.999 100.875C727.254 100.159 725.686 99.0705 724.405 97.6855C723.124 96.3005 722.161 94.6524 721.584 92.8566C721.006 91.0608 720.827 89.1604 721.06 87.2883V36.6042H701.486V87.2883C701.262 91.717 701.947 96.1447 703.499 100.299C705.051 104.452 707.437 108.244 710.511 111.441C713.584 114.637 717.28 117.171 721.37 118.884C725.46 120.598 729.857 121.456 734.291 121.406C738.658 121.466 742.989 120.607 747.002 118.883C751.015 117.159 754.62 114.609 757.583 111.4C760.546 114.594 764.143 117.135 768.144 118.858C772.146 120.581 776.463 121.449 780.82 121.406C785.268 121.505 789.687 120.68 793.8 118.983C797.912 117.286 801.628 114.754 804.711 111.547C807.794 108.341 810.179 104.529 811.713 100.353C813.248 96.1774 813.899 91.7286 813.625 87.2883V36.6042H794.926Z" fill="white"/>
<path fill-rule="evenodd" clip-rule="evenodd" d="M43.5243 33.8159C35.0335 33.8338 26.7315 36.3225 19.6311 40.9784V0.463948H0.00265826V69.7377C-0.851542 81.2916 2.08537 92.8089 8.36799 102.543C14.546 111.191 23.6613 117.294 34.0108 119.711C36.6894 120.302 39.4161 120.65 42.1574 120.75H43.5243C49.5863 121.319 55.7003 120.616 61.475 118.686C67.2498 116.756 72.558 113.642 77.06 109.543C81.562 105.443 85.1585 100.449 87.6195 94.8802C90.0805 89.3111 91.3516 83.2895 91.3516 77.2009C91.3516 71.1122 90.0805 65.0906 87.6195 59.5215C85.1585 53.9523 81.562 48.9583 77.06 44.8591C72.558 40.7598 67.2498 37.6456 61.475 35.7158C55.7003 33.7859 49.5863 33.083 43.5243 33.6519V33.8159ZM67.6908 77.3922C67.6908 82.1719 66.2735 86.8443 63.618 90.8184C60.9626 94.7926 57.1883 97.8901 52.7724 99.7192C48.3565 101.548 43.4975 102.027 38.8096 101.094C34.1218 100.162 29.8157 97.8603 26.436 94.4805C23.0562 91.1008 20.7546 86.7947 19.8221 82.1069C18.8896 77.419 19.3682 72.5599 21.1973 68.1441C23.0264 63.7282 26.1239 59.9539 30.0981 57.2985C34.0722 54.643 38.7446 53.2257 43.5243 53.2257C49.9336 53.2257 56.0805 55.7718 60.6126 60.3039C65.1447 64.836 67.6908 70.9829 67.6908 77.3922Z" fill="white"/>
<path fill-rule="evenodd" clip-rule="evenodd" d="M252.6 40.9785C246.923 37.0738 240.404 34.5656 233.573 33.6582C226.743 32.7508 219.795 33.47 213.295 35.757C206.795 38.044 200.928 41.8343 196.171 46.8189C191.414 51.8036 187.901 57.8416 185.92 64.441C183.939 71.0404 183.545 78.0145 184.77 84.7951C185.995 91.5757 188.805 97.9709 192.971 103.46C197.136 108.948 202.539 113.376 208.74 116.38C214.941 119.385 221.764 120.882 228.653 120.75C249.921 120.75 271.245 103.636 271.792 81.7116C272.065 65.5824 271.792 49.6718 271.792 33.2692C271.792 22.3342 271.792 11.3991 271.792 0.463996H252.6V40.9785ZM252.6 77.3923C252.611 82.1851 251.2 86.8734 248.545 90.8637C245.89 94.8541 242.111 97.967 237.686 99.8087C233.261 101.65 228.39 102.138 223.688 101.209C218.985 100.281 214.665 97.9785 211.272 94.5933C207.879 91.2081 205.567 86.8923 204.628 82.1924C203.689 77.4925 204.165 72.6196 205.997 68.1906C207.828 63.7615 210.933 59.9755 214.917 57.3116C218.901 54.6477 223.586 53.2258 228.379 53.2257C234.794 53.2257 240.946 55.7701 245.487 60.3006C250.028 64.8312 252.586 70.9779 252.6 77.3923Z" fill="white"/>
<path fill-rule="evenodd" clip-rule="evenodd" d="M367.364 77.0095C367.364 75.6973 367.364 74.3304 367.036 73.0182C365.746 62.4482 360.682 52.6998 352.776 45.567C344.87 38.4341 334.653 34.397 324.006 34.1987H323.678C316.797 34.1002 309.99 35.6267 303.81 38.6541C297.63 41.6815 292.252 46.1243 288.112 51.6214C283.972 57.1186 281.188 63.515 279.985 70.2907C278.783 77.0664 279.196 84.0303 281.191 90.6164C283.186 97.2024 286.707 103.225 291.468 108.194C296.229 113.163 302.095 116.939 308.589 119.214C315.084 121.49 322.024 122.201 328.845 121.29C335.666 120.378 342.175 117.871 347.845 113.97C347.644 119.094 345.819 124.021 342.634 128.039C339.448 132.058 335.067 134.958 330.123 136.322C325.18 137.686 319.931 137.441 315.136 135.625C310.341 133.808 306.248 130.514 303.448 126.217L301.699 123.538L287.647 137.426L289.014 139.23C293.072 144.577 298.314 148.91 304.328 151.888C310.343 154.867 316.966 156.411 323.678 156.398C334.258 156.212 344.423 152.254 352.342 145.237C360.261 138.22 365.414 128.605 366.872 118.125C367.446 111.617 367.556 105.076 367.2 98.5516C367.2 91.4438 367.801 83.9533 367.2 76.6815L367.364 77.0095ZM347.681 77.4469C347.67 82.2243 346.244 86.8912 343.582 90.8582C340.92 94.8252 337.141 97.9141 332.725 99.7348C328.308 101.556 323.451 102.026 318.766 101.088C314.082 100.149 309.781 97.8431 306.407 94.4612C303.033 91.0793 300.736 86.7732 299.808 82.0868C298.88 77.4005 299.362 72.5442 301.193 68.1315C303.023 63.7189 306.121 59.9478 310.094 57.2947C314.067 54.6417 318.737 53.2257 323.514 53.2257C329.929 53.2402 336.075 55.7985 340.606 60.3392C345.137 64.88 347.681 71.0325 347.681 77.4469Z" fill="white"/>
<path fill-rule="evenodd" clip-rule="evenodd" d="M530.57 96.5833C527.051 99.2774 522.86 100.952 518.453 101.424C514.047 101.896 509.596 101.148 505.586 99.2605C501.576 97.3731 498.163 94.4195 495.719 90.7227C493.275 87.0259 491.895 82.7282 491.729 78.2997C491.563 73.8712 492.618 69.4823 494.779 65.6131C496.939 61.7439 500.122 58.5432 503.979 56.3612C507.837 54.1792 512.22 53.0998 516.649 53.2411C521.078 53.3824 525.384 54.7389 529.094 57.1623L532.046 59.3493L545.77 45.6258L543.583 43.7669C537.197 38.4433 529.425 35.0502 521.18 33.985C512.934 32.9199 504.556 34.2268 497.026 37.7527C489.497 41.2786 483.128 46.8775 478.667 53.8931C474.205 60.9088 471.836 69.0508 471.836 77.3649C471.836 85.679 474.205 93.8209 478.667 100.837C483.128 107.852 489.497 113.451 497.026 116.977C504.556 120.503 512.934 121.81 521.18 120.745C529.425 119.68 537.197 116.286 543.583 110.963L545.879 109.049L532.156 95.3258L530.57 96.5833Z" fill="white"/>
<path fill-rule="evenodd" clip-rule="evenodd" d="M404.325 36.4405C397.677 38.7693 391.691 42.6688 386.874 47.8076C382.057 52.9465 378.552 59.1725 376.658 65.9564C374.763 72.7403 374.535 79.8814 375.993 86.7723C377.45 93.6633 380.55 100.1 385.029 105.536C389.508 110.972 395.234 115.246 401.719 117.994C408.204 120.742 415.257 121.884 422.278 121.322C429.299 120.759 436.08 118.51 442.045 114.765C448.01 111.019 452.983 105.889 456.54 99.8093C455.61 98.6611 440.52 91.608 439.317 90.7332C436.515 95.0633 432.364 98.3493 427.507 100.083C423.2 101.641 418.541 101.954 414.064 100.987C409.587 100.02 405.472 97.812 402.192 94.6152L443.636 79.5247L462.554 72.6356L462.226 70.5033C461.779 67.7667 461.083 65.0766 460.148 62.466C456.155 51.6434 448.049 42.8363 437.594 37.9619C427.139 33.0876 415.181 32.5408 404.325 36.4405ZM395.03 76.2442C395.261 71.4769 396.896 66.8842 399.729 63.0428C402.562 59.2014 406.466 56.2826 410.952 54.6529C415.438 53.0231 420.306 52.7552 424.944 53.8826C429.582 55.01 433.783 57.4826 437.021 60.9898L395.03 76.2442Z" fill="white"/>
<path fill-rule="evenodd" clip-rule="evenodd" d="M633.196 36.4406C626.549 38.7693 620.562 42.6689 615.745 47.8077C610.929 52.9465 607.424 59.1726 605.529 65.9565C603.635 72.7403 603.407 79.8814 604.864 86.7724C606.322 93.6634 609.422 100.1 613.901 105.536C618.38 110.972 624.106 115.246 630.591 117.994C637.076 120.743 644.129 121.884 651.15 121.322C658.171 120.759 664.952 118.51 670.917 114.765C676.882 111.019 681.855 105.889 685.411 99.8094C684.482 98.6612 669.391 91.608 668.243 90.7332C665.409 95.0562 661.244 98.3383 656.379 100.083C652.081 101.643 647.43 101.957 642.961 100.99C638.492 100.023 634.387 97.8129 631.119 94.6152L672.508 79.5248L691.426 72.6357L691.043 70.5033C690.596 67.7668 689.9 65.0766 688.965 62.4661C684.972 51.6565 676.875 42.8594 666.432 37.9862C655.99 33.1131 644.046 32.5576 633.196 36.4406ZM623.956 76.2443C624.173 71.4761 625.797 66.8788 628.623 63.0324C631.449 59.1859 635.351 56.2625 639.837 54.6309C644.322 52.9992 649.191 52.7324 653.828 53.8641C658.465 54.9958 662.663 57.4753 665.892 60.9898L623.956 76.2443Z" fill="white"/>
<path fill-rule="evenodd" clip-rule="evenodd" d="M157.629 24.7399C157.622 24.9455 157.656 25.1504 157.73 25.3425C157.803 25.5346 157.915 25.7099 158.058 25.8579C158.201 26.0059 158.372 26.1236 158.561 26.2039C158.751 26.2843 158.954 26.3256 159.16 26.3255H175.563C175.773 26.3331 175.983 26.2973 176.179 26.2204C176.374 26.1434 176.552 26.0269 176.701 25.8781C176.85 25.7293 176.966 25.5514 177.043 25.3556C177.12 25.1598 177.156 24.9502 177.148 24.7399V8.33726C177.149 8.13153 177.107 7.92789 177.027 7.7385C176.947 7.5491 176.829 7.37784 176.681 7.23494C176.533 7.09205 176.358 6.98045 176.165 6.90681C175.973 6.83317 175.768 6.799 175.563 6.80635L157.629 24.7399Z" fill="white"/>
<path d="M386.61 145.135H401.7C407.168 145.135 410.557 147.486 410.557 151.97C410.685 153.44 410.247 154.903 409.332 156.061C408.418 157.22 407.096 157.985 405.637 158.203C409.3 159.46 411.104 161.428 411.104 164.764C411.104 170.231 407.058 172.309 401.044 172.309H386.61V145.135ZM401.044 156.453C404.215 156.453 405.637 155.359 405.637 152.899C405.637 150.439 404.106 149.509 401.208 149.509H391.257V156.453H401.044ZM401.044 167.88C404.543 167.88 406.019 166.677 406.019 164.108C406.019 161.538 404.598 160.39 401.153 160.39H391.257V167.989L401.044 167.88Z" fill="white"/>
<path d="M426.359 162.959L413.947 145.135H419.962L428.71 158.148H429.092L437.95 145.135H443.417L431.17 162.905V172.309H426.195L426.359 162.959Z" fill="white"/>
<path d="M459.328 145.135H473.106C474.428 144.948 475.776 145.063 477.047 145.47C478.319 145.878 479.482 146.567 480.449 147.487C481.417 148.407 482.164 149.535 482.634 150.784C483.105 152.034 483.287 153.373 483.167 154.703C483.251 156.073 483.031 157.444 482.523 158.718C482.015 159.993 481.231 161.139 480.228 162.074C479.224 163.01 478.026 163.712 476.719 164.129C475.412 164.547 474.029 164.67 472.669 164.49H464.304V172.254H459.328V145.135ZM472.724 160.061C473.469 160.184 474.234 160.128 474.953 159.897C475.673 159.666 476.327 159.266 476.861 158.732C477.396 158.197 477.795 157.543 478.026 156.824C478.258 156.104 478.314 155.34 478.191 154.594C478.191 151.204 476.387 149.4 472.724 149.4H464.304V159.788L472.724 160.061Z" fill="white"/>
<path d="M489.4 145.135H503.615C510.395 145.135 513.73 148.416 513.73 154.266C513.901 156.214 513.366 158.159 512.221 159.745C511.077 161.331 509.4 162.453 507.497 162.905L514.714 172.309H508.864L502.576 163.779H494.375V172.309H489.4V145.135ZM503.451 159.405C504.153 159.557 504.881 159.539 505.575 159.354C506.269 159.169 506.909 158.823 507.442 158.342C507.976 157.862 508.388 157.262 508.645 156.591C508.902 155.921 508.995 155.199 508.919 154.485C508.919 151.696 507.497 149.673 503.451 149.673H494.375V159.405H503.451Z" fill="white"/>
<path d="M520.783 145.135H525.759V172.473H520.783V145.135Z" fill="white"/>
<path d="M533.195 169.958V164.873C536.914 167.006 541.102 168.189 545.387 168.318C549.597 168.318 551.784 166.896 551.784 164.654C551.784 162.413 550.089 161.702 543.583 160.554C538.115 159.569 533.413 158.093 533.413 153.008C533.413 147.924 537.186 144.424 545.223 144.424C548.807 144.439 552.334 145.32 555.502 146.994V152.079C552.323 150.078 548.651 148.999 544.895 148.962C540.685 148.962 538.662 150.384 538.662 152.462C538.662 154.539 541.833 155.469 546.7 156.398C551.566 157.328 557.033 158.804 557.033 164.326C557.033 167.825 554.846 172.856 545.387 172.856C541.147 172.904 536.96 171.909 533.195 169.958Z" fill="white"/>
<path d="M563.321 145.135H569.226L578.849 161.975L588.307 145.135H594.376V172.473H589.456V152.899L579.286 170.505H578.849L568.788 152.899H568.515V172.309H563.649L563.321 145.135Z" fill="white"/>
<path d="M610.779 145.135H618.816L629.751 172.473H624.557L621.823 165.584H607.99L605.257 172.473H599.844L610.779 145.135ZM609.521 161.046H619.964L615.536 149.783H614.005L609.521 161.046Z" fill="white"/>
<path d="M632.649 148.58C632.55 147.252 632.854 145.926 633.521 144.774C634.187 143.622 635.186 142.698 636.386 142.122C637.586 141.547 638.932 141.347 640.248 141.548C641.563 141.75 642.788 142.343 643.761 143.251C644.734 144.159 645.41 145.34 645.702 146.639C645.993 147.937 645.886 149.294 645.395 150.531C644.903 151.768 644.05 152.828 642.947 153.572C641.843 154.316 640.541 154.711 639.21 154.703C638.365 154.79 637.51 154.694 636.705 154.423C635.899 154.152 635.161 153.711 634.539 153.131C633.918 152.551 633.428 151.845 633.102 151.06C632.776 150.275 632.621 149.429 632.649 148.58ZM644.131 148.58C644.186 147.597 643.944 146.62 643.438 145.775C642.931 144.931 642.183 144.258 641.29 143.843C640.398 143.429 639.401 143.291 638.429 143.449C637.457 143.607 636.555 144.053 635.839 144.729C635.123 145.405 634.627 146.28 634.414 147.241C634.201 148.203 634.281 149.206 634.644 150.121C635.007 151.036 635.636 151.821 636.45 152.375C637.264 152.929 638.226 153.226 639.21 153.227C639.833 153.266 640.458 153.174 641.042 152.955C641.627 152.736 642.159 152.396 642.603 151.957C643.047 151.518 643.393 150.99 643.619 150.408C643.844 149.826 643.944 149.203 643.912 148.58H644.131ZM636.695 145.791H639.702C641.452 145.791 642.217 146.502 642.217 147.814C642.224 148.202 642.105 148.582 641.878 148.897C641.652 149.213 641.33 149.446 640.96 149.564L642.381 151.313H640.796L639.538 149.783H638.117V151.313H636.695V145.791ZM639.648 148.634C640.468 148.634 640.796 148.634 640.796 147.814C640.796 146.994 640.468 146.939 639.702 146.939H638.117V148.634H639.648Z" fill="white"/>
<path d="M659.987 159.023C659.942 157.054 660.311 155.097 661.071 153.28C661.831 151.464 662.964 149.827 664.397 148.476C665.831 147.125 667.532 146.091 669.39 145.44C671.249 144.789 673.224 144.536 675.187 144.698C678.824 144.67 682.373 145.821 685.302 147.978V153.063C682.413 150.723 678.846 149.381 675.132 149.236C673.812 149.141 672.488 149.328 671.246 149.783C670.004 150.239 668.873 150.953 667.927 151.878C666.981 152.803 666.242 153.918 665.76 155.149C665.277 156.381 665.061 157.701 665.126 159.023C665.051 160.33 665.258 161.637 665.732 162.858C666.207 164.078 666.938 165.182 667.877 166.094C668.815 167.007 669.939 167.707 671.172 168.147C672.405 168.587 673.718 168.757 675.023 168.645C678.78 168.602 682.408 167.271 685.302 164.873V169.958C682.181 172.09 678.474 173.198 674.695 173.129C672.765 173.331 670.814 173.111 668.979 172.482C667.143 171.854 665.467 170.832 664.067 169.489C662.667 168.146 661.576 166.514 660.871 164.706C660.167 162.899 659.865 160.959 659.987 159.023Z" fill="white"/>
<path d="M692.409 145.135H697.33V167.771H713.733V172.309H692.847L692.409 145.135Z" fill="white"/>
<path d="M716.576 159.023C716.445 156.057 717.205 153.12 718.757 150.589C720.31 148.059 722.584 146.051 725.287 144.824C727.991 143.597 730.999 143.208 733.926 143.705C736.853 144.203 739.563 145.565 741.709 147.616C743.855 149.667 745.338 152.314 745.967 155.215C746.596 158.117 746.343 161.14 745.239 163.896C744.135 166.651 742.232 169.014 739.774 170.679C737.316 172.344 734.417 173.235 731.448 173.238C729.505 173.421 727.546 173.184 725.704 172.543C723.861 171.902 722.177 170.873 720.767 169.525C719.357 168.177 718.253 166.541 717.53 164.729C716.807 162.917 716.481 160.971 716.576 159.023ZM741.235 159.023C741.235 156.427 740.204 153.938 738.368 152.102C736.533 150.267 734.043 149.236 731.448 149.236C728.852 149.236 726.363 150.267 724.527 152.102C722.692 153.938 721.661 156.427 721.661 159.023C721.661 161.618 722.692 164.107 724.527 165.943C726.363 167.778 728.852 168.809 731.448 168.809C734.043 168.809 736.533 167.778 738.368 165.943C740.204 164.107 741.235 161.618 741.235 159.023Z" fill="white"/>
<path d="M752.935 161.866V145.135H757.91V161.538C757.91 166.568 761.519 168.263 765.729 168.263C769.939 168.263 773.547 166.623 773.547 161.702V145.135H778.523V161.538C778.523 169.739 773.055 172.801 765.674 172.801C758.293 172.801 752.935 169.958 752.935 161.866Z" fill="white"/>
<path d="M786.779 145.135H799.737C801.568 144.949 803.418 145.172 805.153 145.786C806.889 146.4 808.466 147.391 809.773 148.687C811.08 149.984 812.083 151.553 812.711 153.284C813.34 155.014 813.577 156.862 813.406 158.694C813.575 160.529 813.338 162.379 812.71 164.112C812.082 165.844 811.08 167.417 809.774 168.717C808.468 170.017 806.892 171.013 805.157 171.634C803.422 172.255 801.571 172.485 799.737 172.309H786.779V145.135ZM799.682 167.825C800.859 167.939 802.047 167.788 803.158 167.384C804.269 166.979 805.276 166.331 806.104 165.487C806.932 164.643 807.561 163.625 807.945 162.506C808.329 161.387 808.457 160.197 808.321 159.023C808.502 157.827 808.408 156.606 808.045 155.452C807.681 154.299 807.059 153.244 806.225 152.368C805.392 151.492 804.369 150.819 803.235 150.399C802.101 149.979 800.886 149.824 799.682 149.946H791.755V168.099L799.682 167.825Z" fill="white"/>
</g>
<defs>
<clipPath id="clip0">
<rect width="814.335" height="172.501" fill="white" transform="translate(0 0.464005)"/>
</clipPath>
</defs>
</svg>
