<svg width="70" height="94" viewBox="0 0 70 94" fill="none" xmlns="http://www.w3.org/2000/svg">
<path d="M52.4553 11.7277C52.5691 11.7277 52.6829 11.7277 52.7587 11.7277C52.8346 11.7665 52.9484 11.7665 53.0242 11.8441L67.5788 3.03186C58.6298 -0.995201 59.0813 -0.207397 48.9721 5.31689L7.5483 29.5398C7.32073 29.6562 7.09316 29.8114 6.86559 29.9666C6.78973 30.0055 6.71388 30.0831 6.63802 30.1219C6.48631 30.2383 6.3346 30.3547 6.18288 30.4711C6.10703 30.5487 6.03117 30.5875 5.95531 30.6652C5.8036 30.7816 5.68982 30.898 5.57603 31.0144C5.50017 31.092 5.42432 31.1696 5.34846 31.2472C5.31053 31.286 5.23468 31.3249 5.19675 31.4025C5.15882 31.4413 5.08296 31.5189 5.04504 31.5577C4.89332 31.7129 4.74161 31.907 4.5899 32.0622C4.55197 32.101 4.47611 32.1786 4.43819 32.2174C4.40026 32.2562 4.36233 32.3338 4.3244 32.3726C4.24854 32.4891 4.13476 32.6055 4.0589 32.7219C3.98305 32.7995 3.94512 32.8771 3.86926 32.9547C3.83133 33.0323 3.79341 33.0711 3.71755 33.1488C3.64169 33.2264 3.60376 33.3428 3.52791 33.4204C3.48998 33.498 3.45205 33.5368 3.3762 33.6144C3.30034 33.7309 3.22448 33.8473 3.14863 33.9249C3.1107 34.0025 3.07277 34.0801 2.99691 34.1189C2.99691 34.1577 2.95899 34.1577 2.95899 34.1965C2.8452 34.3906 2.69349 34.5846 2.5797 34.8174C2.5797 34.8174 2.5797 34.8562 2.54178 34.8562C2.50385 34.895 2.50385 34.9338 2.46592 34.9726C2.39006 35.1279 2.31421 35.2831 2.23835 35.3995C2.20042 35.4771 2.16249 35.5547 2.12457 35.5935C2.08664 35.6712 2.04871 35.7487 2.01078 35.8264C1.97285 35.904 1.93492 35.9428 1.93492 36.0204C1.85907 36.1756 1.78321 36.3696 1.70735 36.5249C1.70735 36.5637 1.66943 36.6025 1.66943 36.6025C1.66943 36.6025 1.66943 36.6025 1.66943 36.6413C1.59357 36.8741 1.47979 37.0681 1.40393 37.301C1.40393 37.3398 1.366 37.3786 1.366 37.4174C1.32807 37.495 1.32807 37.5726 1.29014 37.6502C1.25222 37.7667 1.21429 37.8831 1.17636 37.9607C1.13843 38.0383 1.13843 38.1159 1.1005 38.1935C1.06258 38.3099 1.02465 38.3876 1.02465 38.504C1.02465 38.5816 0.986719 38.6204 0.986719 38.698C0.948791 38.8144 0.948791 38.9308 0.910863 39.0085C0.872934 39.1249 0.835006 39.2413 0.835006 39.3577C0.835006 39.3965 0.797078 39.4353 0.797078 39.4741C0.797078 39.5517 0.75915 39.6682 0.75915 39.7458C0.721222 39.9398 0.683293 40.1338 0.645365 40.3279C0.645365 40.3667 0.607437 40.4443 0.607437 40.4831C0.607437 40.5995 0.569509 40.7159 0.569509 40.8323C0.569509 40.91 0.569509 40.9876 0.531581 41.104C0.493652 41.3756 0.493652 41.6473 0.493652 41.8801L0.721222 86.2976C0.721222 88.5483 1.10281 89.5772 2.35444 90.3533C2.35444 90.3533 8.00344 93.3478 10.1676 93.3478C11.9159 93.3478 8.00344 92.8946 8.00344 90.605L7.77587 46.1876C7.77587 45.916 7.77587 45.6443 7.81379 45.4115C7.81379 45.3339 7.8138 45.2563 7.85172 45.1398C7.85172 44.9846 7.88965 44.7906 7.92758 44.6354C7.96551 44.4413 8.00344 44.2473 8.04137 44.0533C8.07929 43.9368 8.07929 43.7816 8.11722 43.6652C8.15515 43.5488 8.19308 43.4324 8.19308 43.2771C8.23101 43.1219 8.26893 42.9279 8.34479 42.7727C8.38272 42.6562 8.42065 42.5786 8.42065 42.4622C8.4965 42.2682 8.53443 42.0741 8.61029 41.8801C8.64822 41.8025 8.64822 41.7249 8.68615 41.6473C8.79993 41.3756 8.87578 41.104 8.98957 40.8711C8.98957 40.8323 9.0275 40.7935 9.0275 40.7935C9.14128 40.5607 9.21714 40.3279 9.33092 40.095C9.36885 40.0174 9.40678 39.9398 9.44471 39.8622C9.55849 39.6294 9.67228 39.4353 9.78606 39.2025C9.82399 39.1637 9.82399 39.1249 9.86192 39.0861C10.0136 38.8532 10.1653 38.5816 10.3171 38.3488C10.355 38.2711 10.3929 38.1935 10.4688 38.1547C10.5826 37.9995 10.6963 37.8055 10.8101 37.6502C10.886 37.5726 10.9239 37.4562 10.9998 37.3786C11.1135 37.2234 11.2273 37.1069 11.3032 36.9517C11.379 36.8353 11.4928 36.7189 11.5687 36.6025C11.6445 36.486 11.7583 36.4084 11.8342 36.292C11.9859 36.1368 12.1376 35.9428 12.2893 35.7875C12.4031 35.6711 12.479 35.5935 12.5927 35.4771C12.6686 35.3995 12.7445 35.3219 12.8203 35.2443C12.9341 35.1279 13.0858 35.0115 13.1996 34.895C13.2755 34.8174 13.3513 34.7398 13.4272 34.701C13.5789 34.5846 13.7306 34.4682 13.8823 34.3517C13.9582 34.3129 14.034 34.2353 14.1099 34.1965C14.3374 34.0413 14.565 33.8861 14.7926 33.7697L51.6967 11.9606C51.8105 11.8829 51.9243 11.8441 52.0381 11.8053C52.076 11.8053 52.076 11.8053 52.1139 11.7665C52.2656 11.7665 52.3794 11.7277 52.4553 11.7277Z" fill="url(#paint0_linear)"/>
<path d="M69.7848 50.8327L69.8985 51.5748C69.633 56.0375 66.5988 61.2376 62.8818 63.4107L13.689 92.4766C9.82028 94.7662 6.63431 92.9035 6.63431 88.3631L6.40674 43.9457C6.40674 39.4054 9.51685 33.8173 13.4235 31.5277L60.7365 4.05444C66.2506 1.116 69.7848 2.17386 69.7848 9.10853V50.8327Z" fill="url(#paint1_linear)"/>
<path fill-rule="evenodd" clip-rule="evenodd" d="M64.185 13.8739V50.9678C64.185 51.2035 64.0201 51.4863 63.8315 51.6041L15.2607 79.6484C15.0486 79.7662 14.9072 79.6719 14.9072 79.4363V42.3424C14.9072 42.1067 15.0722 41.8239 15.2607 41.7061L63.8315 13.6618C64.0201 13.5676 64.185 13.6618 64.185 13.8739Z" fill="#EBEBFF"/>
<path d="M33.063 57.7508V43.915C33.063 41.6631 35.1158 38.9928 36.8322 39.0118L48.2471 39.1385C50.0968 39.1591 50.0968 42.2386 48.2471 44.46L36.8322 58.1691C35.1158 60.2305 33.063 60.0026 33.063 57.7508Z" fill="#7041FF"/>
<defs>
<linearGradient id="paint0_linear" x1="0.531277" y1="55.7862" x2="69.1944" y2="55.7862" gradientUnits="userSpaceOnUse">
<stop stop-color="#7E5AFF"/>
<stop offset="0.4888" stop-color="#662EFF"/>
<stop offset="0.8021" stop-color="#7448FF"/>
<stop offset="1" stop-color="#7E5AFF"/>
</linearGradient>
<linearGradient id="paint1_linear" x1="-6.09317" y1="14.8571" x2="103.52" y2="86.28" gradientUnits="userSpaceOnUse">
<stop stop-color="#D2CCFF"/>
<stop offset="0.5" stop-color="#9C88FF"/>
<stop offset="0.7032" stop-color="#B0A2FF"/>
<stop offset="0.9888" stop-color="#D2CCFF"/>
</linearGradient>
</defs>
</svg>
