<svg width="76" height="87" viewBox="0 0 76 87" fill="none" xmlns="http://www.w3.org/2000/svg">
<path d="M66.6842 47.3121L62.3066 44.9648L63.776 45.7567L68.1536 48.104L66.6842 47.3121Z" fill="#9E6C2B"/>
<path d="M32.7965 82.551V80.345C32.7965 79.2703 32.3985 78.5067 31.6944 78.139L27.3169 75.7917C27.9904 76.1593 28.4189 76.9229 28.4189 77.9976V80.2036C28.4189 80.6278 28.4802 80.9672 28.6026 81.3066C28.7863 81.8439 29.0924 82.2116 29.521 82.4378L33.8985 84.7852C33.1944 84.4175 32.7965 83.6539 32.7965 82.551Z" fill="url(#paint0_linear)"/>
<path d="M70.4189 17.0226C70.3883 17.0226 70.3883 17.0226 70.4189 17.0226C70.327 16.9661 70.2658 16.9378 70.2046 16.9378H70.174C70.1434 16.9378 70.1434 16.9378 70.1128 16.9095C70.0821 16.9095 70.0515 16.8812 70.0209 16.8812C69.9903 16.8812 69.9597 16.8529 69.8985 16.8529C69.8679 16.8529 69.8679 16.8529 69.8373 16.8529H69.8066C69.7454 16.8529 69.6536 16.8246 69.5924 16.8246C69.5617 16.8246 69.5617 16.8246 69.5311 16.8246C69.4699 16.8246 69.4087 16.8246 69.3475 16.8246C69.3168 16.8246 69.3168 16.8246 69.2862 16.8246C69.2556 16.8246 69.225 16.8246 69.1638 16.8246C69.1332 16.8246 69.1026 16.8246 69.072 16.8246C69.0413 16.8246 69.0107 16.8246 68.9801 16.8529C68.9189 16.8529 68.8883 16.8812 68.8271 16.8812C68.7964 16.8812 68.7658 16.8812 68.7352 16.9095C68.7046 16.9095 68.674 16.9378 68.6434 16.9378C68.5515 16.9661 68.4597 16.9943 68.3679 17.0226C68.3373 17.0226 68.3066 17.0509 68.276 17.0509C68.2454 17.0509 68.2454 17.0792 68.2148 17.0792C68.0617 17.1357 67.9087 17.2206 67.7556 17.3054L65.674 18.4084C65.5209 18.4933 65.3985 18.5498 65.2454 18.6064C65.1842 18.6347 65.123 18.6629 65.0618 18.6912C64.9699 18.7195 64.8781 18.7478 64.7862 18.7761C64.725 18.8044 64.6638 18.8044 64.6332 18.8044C64.572 18.8044 64.5414 18.8326 64.4801 18.8326C64.4189 18.8326 64.3577 18.8609 64.2965 18.8609C64.2658 18.8609 64.2352 18.8609 64.174 18.8609C64.0822 18.8609 64.0209 18.8609 63.9291 18.8609C63.8985 18.8609 63.8985 18.8609 63.8679 18.8609C63.776 18.8609 63.6842 18.8326 63.5924 18.8326C63.5618 18.8326 63.5618 18.8326 63.5311 18.8326C63.4699 18.8044 63.3781 18.8044 63.3169 18.7761C63.2863 18.7761 63.2863 18.7761 63.2556 18.7478C63.1638 18.7195 63.072 18.6912 63.0107 18.6347L67.3883 20.982C67.3883 20.982 67.3883 20.982 67.4189 20.982C67.4801 21.0103 67.5413 21.0386 67.6026 21.0669H67.6332C67.6638 21.0669 67.6638 21.0669 67.6944 21.0952C67.725 21.0952 67.7556 21.1234 67.7862 21.1234C67.8169 21.1234 67.8781 21.1517 67.9087 21.1517C67.9393 21.1517 67.9393 21.1517 67.9699 21.1517H68.0005C68.0617 21.1517 68.1536 21.18 68.2148 21.18C68.2148 21.18 68.2148 21.18 68.2454 21.18C68.276 21.18 68.276 21.18 68.3066 21.18C68.3679 21.18 68.3985 21.18 68.4597 21.18C68.4903 21.18 68.5209 21.18 68.5209 21.18C68.5515 21.18 68.5822 21.18 68.6434 21.18C68.674 21.18 68.7046 21.18 68.7352 21.18C68.7658 21.18 68.7964 21.18 68.8271 21.1517C68.8883 21.1517 68.9189 21.1234 68.9801 21.1234C69.0107 21.1234 69.0413 21.1234 69.0413 21.0952C69.0719 21.0952 69.1026 21.0669 69.1332 21.0669C69.225 21.0386 69.3168 21.0103 69.4087 20.982C69.4393 20.982 69.4699 20.9538 69.5005 20.9538C69.5311 20.9538 69.5617 20.9255 69.5924 20.8972C69.7454 20.8406 69.8679 20.7841 70.0209 20.6992L72.1026 19.5962C72.2556 19.5114 72.4087 19.4548 72.5617 19.37C72.623 19.3417 72.6536 19.3417 72.7148 19.3134C72.8066 19.2851 72.8985 19.2569 72.9903 19.2286C73.0515 19.2003 73.1128 19.2003 73.1434 19.172C73.2046 19.172 73.2352 19.1437 73.2964 19.1437C73.3577 19.1437 73.4189 19.1155 73.4801 19.1155C73.5107 19.1155 73.5413 19.1155 73.6026 19.1155C73.6944 19.1155 73.7556 19.1155 73.8474 19.1155C73.8781 19.1155 73.8781 19.1155 73.9087 19.1155C74.0005 19.1155 74.0923 19.1437 74.1842 19.1437C74.2148 19.1437 74.2148 19.1437 74.2454 19.172C74.3066 19.2003 74.3985 19.2003 74.4597 19.2286C74.4903 19.2286 74.4903 19.2286 74.5209 19.2569C74.6128 19.2851 74.674 19.3134 74.7658 19.37L70.4189 17.0226Z" fill="url(#paint1_linear)"/>
<path d="M55.1125 34.9249C55.1125 34.8117 55.0819 34.6986 55.0513 34.6138C54.99 34.1047 54.8982 33.6522 54.7757 33.1714C54.7451 33.0017 54.6839 32.832 54.6227 32.6906C54.5002 32.2664 54.3472 31.8705 54.1941 31.5028C54.1329 31.3897 54.1023 31.2765 54.041 31.1917C53.8268 30.7392 53.5513 30.315 53.2757 29.919C53.2145 29.8342 53.1227 29.7493 53.0615 29.6645C52.8472 29.3534 52.5717 29.0989 52.2962 28.8443C52.2043 28.7595 52.0819 28.6464 51.99 28.5615C51.6839 28.307 51.3778 28.109 51.0411 27.911C50.9798 27.8545 50.888 27.7979 50.8268 27.7696L46.4492 25.4223C46.5411 25.4788 46.6023 25.5071 46.6635 25.5637C47.0003 25.7616 47.3064 25.9879 47.6125 26.2141C47.7349 26.299 47.8268 26.4121 47.9186 26.497C48.1941 26.7515 48.439 27.006 48.6839 27.3171C48.7451 27.402 48.837 27.4868 48.8982 27.5717C49.1737 27.9676 49.4492 28.3918 49.6635 28.8443C49.7247 28.9574 49.7553 29.0706 49.8166 29.1554C49.9696 29.5231 50.1227 29.919 50.2451 30.3432C50.3064 30.5129 50.337 30.6826 50.3982 30.824C50.5207 31.2765 50.6125 31.7573 50.6737 32.2664C50.6737 32.3795 50.7043 32.4644 50.7349 32.5775C50.7962 33.1148 50.8268 33.6805 50.8268 34.2744C50.8268 34.3592 50.8268 34.4441 50.8268 34.5289C50.8268 34.6986 50.7962 34.8683 50.7962 35.0663C50.7656 35.6036 50.7349 36.1127 50.6737 36.65C50.6431 36.9046 50.6125 37.1591 50.5819 37.4136C50.5207 37.8096 50.4288 38.2055 50.3676 38.6015C50.2451 39.1388 50.1227 39.6762 50.0002 40.2418C50.0002 40.2701 49.9696 40.2984 49.9696 40.3549C49.8472 40.8074 49.7247 41.2599 49.5717 41.7124C49.4798 41.9952 49.388 42.3063 49.2656 42.5892C49.1737 42.872 49.0513 43.1831 48.9594 43.4659C48.8676 43.7204 48.7758 43.975 48.6533 44.2295C48.4696 44.6537 48.3166 45.0779 48.1329 45.5304C48.0411 45.7284 47.9492 45.9264 47.8268 46.1244C47.8268 46.1526 47.7962 46.1809 47.7656 46.2092C47.6431 46.4072 47.5513 46.6051 47.4288 46.7748C47.0309 47.3687 46.6329 47.9344 46.2349 48.5C46.0819 48.698 45.9288 48.9242 45.7758 49.1222C45.3166 49.7444 44.8268 50.3666 44.337 50.9605L44.0921 51.2716C43.939 51.4413 43.8166 51.611 43.6635 51.7807C43.5411 51.9504 43.388 52.0918 43.2656 52.2614C43.0207 52.5443 42.7452 52.8554 42.4697 53.1382C42.3472 53.2513 42.2554 53.3644 42.1329 53.4776C41.9493 53.6472 41.7962 53.8169 41.6125 54.0149C41.4901 54.128 41.3676 54.2412 41.2452 54.3543C41.0921 54.4957 40.939 54.6371 40.786 54.7785C40.4186 55.1179 40.0207 55.4573 39.6533 55.7684L39.4391 55.938C38.888 56.3623 38.3676 56.7582 37.8166 57.1259C37.7248 57.1824 37.6329 57.239 37.5717 57.2956C37.0207 57.6632 36.4391 58.0026 35.8268 58.342C35.3982 58.5682 34.9697 58.7379 34.5717 58.9359C34.3574 59.0207 34.1431 59.1339 33.9595 59.2187C33.7452 59.3036 33.5309 59.3884 33.3166 59.445C33.2248 59.4732 33.1329 59.5298 33.0411 59.5581C32.735 59.6429 32.4595 59.7278 32.184 59.8126C31.8779 59.8975 31.5411 59.954 31.235 60.0106C31.1738 60.0106 31.1125 60.0389 31.0513 60.0389C30.7758 60.0954 30.5003 60.1237 30.2554 60.152C30.2248 60.152 30.1942 60.152 30.1942 60.152C29.9493 60.1803 29.7044 60.1803 29.4595 60.1803C29.2758 60.1803 29.0921 60.1803 28.9085 60.1803C27.5615 60.152 26.3371 59.8409 25.2656 59.2753L29.6432 61.6226C29.6738 61.6226 29.7044 61.6509 29.735 61.6509C29.8881 61.7358 30.0105 61.7923 30.1636 61.8489C30.2554 61.8772 30.3472 61.9337 30.4391 61.962C30.4697 61.962 30.4697 61.9903 30.5003 61.9903C30.7452 62.0751 31.0207 62.1883 31.2962 62.2448C31.5717 62.3297 31.8472 62.3862 32.1227 62.4145H32.0921H32.1227C32.4289 62.4711 32.7044 62.4994 33.0105 62.4994C33.1023 62.4994 33.1942 62.4994 33.286 62.4994C33.4697 62.4994 33.6534 62.4994 33.837 62.4994C33.8983 62.4994 33.9289 62.4994 33.9901 62.4994C34.1738 62.4994 34.388 62.4711 34.5717 62.4711C34.6023 62.4711 34.6329 62.4711 34.6636 62.4711C34.8166 62.4428 34.9697 62.4428 35.1227 62.4145C35.2452 62.3862 35.337 62.3862 35.4595 62.358C35.5207 62.358 35.5819 62.3297 35.6431 62.3297C35.888 62.2731 36.1329 62.2448 36.3778 62.16C36.4391 62.1317 36.5003 62.1317 36.5921 62.1034C36.8676 62.0186 37.1738 61.9337 37.4493 61.8489C37.5411 61.8206 37.6329 61.7923 37.7554 61.7358C37.9391 61.6792 38.0921 61.6226 38.2758 61.5661C38.337 61.5378 38.3676 61.5378 38.4289 61.5095C38.6431 61.4247 38.8574 61.3115 39.0411 61.2267C39.4697 61.057 39.8676 60.859 40.2962 60.6328C40.939 60.2934 41.4901 59.954 42.0411 59.5864C42.1329 59.5298 42.2248 59.4732 42.286 59.4167C42.837 59.049 43.388 58.6531 43.9084 58.2289L44.1227 58.0592C44.5207 57.7481 44.888 57.4087 45.2554 57.0693C45.286 57.041 45.3472 56.9845 45.3778 56.9562C45.5003 56.8431 45.5921 56.7582 45.7145 56.6451C45.837 56.532 45.9594 56.4188 46.0819 56.3057C46.2656 56.136 46.4186 55.9663 46.6023 55.7684C46.7247 55.6552 46.8166 55.5421 46.939 55.429C46.9696 55.4007 47.0003 55.3724 47.0309 55.3441C47.2758 55.0896 47.4901 54.8351 47.7349 54.5805C47.8574 54.4391 47.9798 54.2977 48.1329 54.128C48.1329 54.128 48.1329 54.0997 48.1635 54.0997C48.3166 53.9301 48.439 53.7604 48.5921 53.5907L48.837 53.2796C49.2656 52.7705 49.6635 52.2614 50.0615 51.7241C50.1227 51.6393 50.2145 51.5261 50.2758 51.4413C50.4288 51.2433 50.5819 51.0171 50.7349 50.8191C50.9186 50.5646 51.1023 50.31 51.286 50.0555C51.5002 49.7444 51.7145 49.405 51.9288 49.0939C51.9594 49.0656 51.9594 49.0374 51.99 49.0091C52.0513 48.8959 52.1125 48.7828 52.2043 48.6697C52.2349 48.6131 52.2655 48.5566 52.2962 48.5283C52.3268 48.5 52.3268 48.4717 52.3574 48.4434C52.388 48.4152 52.388 48.3869 52.4186 48.3586C52.4798 48.2455 52.5411 48.1323 52.5717 48.0192C52.6023 47.9627 52.6329 47.9061 52.6635 47.8495C52.786 47.595 52.8778 47.3405 53.0002 47.0859C53.0615 46.9445 53.1227 46.8031 53.1533 46.6617C53.2451 46.4355 53.337 46.2092 53.4288 45.9829C53.49 45.8133 53.5819 45.6436 53.6431 45.4739C53.7043 45.3042 53.7349 45.1628 53.7962 44.9931C53.8574 44.8234 53.888 44.682 53.9492 44.5123C54.041 44.2578 54.1329 43.975 54.2247 43.7204C54.4084 43.0699 54.5921 42.3912 54.7451 41.7407C54.8064 41.4862 54.8676 41.2034 54.9288 40.9488C55.0206 40.5529 55.0819 40.1569 55.1431 39.761C55.1431 39.7044 55.1737 39.6479 55.1737 39.5913C55.2043 39.3933 55.2349 39.1954 55.2349 38.9974C55.2961 38.4601 55.3574 37.9227 55.3574 37.4136C55.3574 37.2439 55.388 37.046 55.388 36.8763C55.388 36.7914 55.388 36.7066 55.388 36.6218C55.2349 36.0278 55.1737 35.4622 55.1125 34.9249Z" fill="url(#paint2_linear)"/>
<path d="M14.8886 72.2282C14.8886 72.1151 14.8886 72.002 14.858 71.8888C14.858 71.804 14.858 71.7192 14.858 71.6626C14.8274 71.5495 14.7968 71.4363 14.7968 71.3232C14.7968 71.2667 14.7662 71.2101 14.7662 71.1535C14.7049 70.9838 14.6437 70.8424 14.5825 70.701C14.3376 70.2485 14.0927 69.796 13.8784 69.3152C13.6947 68.891 13.3886 68.5516 13.0213 68.3537L8.64372 66.0063C9.01107 66.2042 9.28658 66.5153 9.50087 66.9679C9.71515 67.4486 9.96005 67.9294 10.2049 68.3537C10.2968 68.4951 10.358 68.6647 10.3886 68.8062C10.4192 68.8627 10.4192 68.9193 10.4192 68.9758C10.4498 69.089 10.4805 69.2021 10.4805 69.3152C10.4805 69.4001 10.4805 69.4566 10.4805 69.5415C10.4805 69.6546 10.5111 69.7677 10.5111 69.8809C10.5111 69.9657 10.5111 70.0505 10.4805 70.1354C10.4805 70.2485 10.4805 70.3616 10.4498 70.503C10.4498 70.5313 10.4192 70.5879 10.4192 70.6162C10.3886 70.7859 10.358 70.9273 10.3274 71.097C10.3274 71.1252 10.2968 71.1818 10.2968 71.2101C10.2356 71.4081 10.1743 71.5777 10.1131 71.7757C10.1131 71.804 10.0825 71.8323 10.0825 71.8606C9.99066 72.0585 9.92944 72.2565 9.80699 72.4545C9.80699 72.4828 9.77637 72.511 9.77637 72.511C9.65393 72.7373 9.56209 72.9353 9.40903 73.1615L7.93964 75.5089C7.87842 75.5937 7.84781 75.6786 7.78658 75.7634C7.75597 75.82 7.72536 75.8483 7.72536 75.9048C7.69475 75.9331 7.69475 75.9614 7.66414 75.9897C7.66414 76.018 7.63352 76.0462 7.63352 76.0462C7.5723 76.1594 7.54169 76.2442 7.48046 76.3573C7.48046 76.3573 7.48046 76.3573 7.48046 76.3856C7.48046 76.4139 7.44985 76.4139 7.44985 76.4422C7.41924 76.527 7.38863 76.5836 7.35801 76.6684C7.35801 76.6967 7.3274 76.725 7.3274 76.7816C7.29679 76.8098 7.29679 76.8664 7.26618 76.8947C7.26618 76.923 7.23556 76.9512 7.23556 77.0078C7.20495 77.0644 7.20495 77.1209 7.17434 77.1775C7.17434 77.2058 7.14373 77.2623 7.14373 77.2906C7.14373 77.3189 7.14373 77.3189 7.14373 77.3472C7.11312 77.4038 7.11312 77.4886 7.0825 77.5452C7.0825 77.6017 7.05189 77.6583 7.05189 77.7148V77.7431C7.05189 77.7714 7.05189 77.828 7.02128 77.8563C6.99067 77.9694 6.99067 78.0825 6.96006 78.1956C6.96006 78.2239 6.96006 78.2239 6.96006 78.2522C6.96006 78.2805 6.96006 78.3088 6.96006 78.3653C6.96006 78.4785 6.92944 78.5633 6.92944 78.6764C6.92944 78.733 6.92944 78.7895 6.92944 78.8461C6.92944 78.931 6.92944 79.0441 6.92944 79.1289C6.92944 79.1855 6.92944 79.2138 6.92944 79.2703C6.92944 79.3835 6.96006 79.4966 6.96006 79.6097C6.96006 79.638 6.96006 79.6663 6.96006 79.6946C6.99067 79.8077 7.02128 79.9491 7.05189 80.0622C7.05189 80.0905 7.0825 80.1188 7.0825 80.1471C7.11312 80.2319 7.14373 80.3167 7.17434 80.3733C7.20495 80.4016 7.20495 80.4582 7.23556 80.4864C7.26618 80.543 7.3274 80.6278 7.35801 80.6844C7.38863 80.7127 7.41924 80.741 7.44985 80.7693C7.51107 80.8258 7.54169 80.8824 7.60291 80.9389C7.63352 80.9672 7.66414 80.9955 7.69475 81.0238C7.78658 81.1086 7.87842 81.1652 7.97026 81.2218L12.3478 83.5691C12.256 83.5126 12.1641 83.456 12.0723 83.3712C12.0417 83.3429 12.0111 83.3146 11.9804 83.2863C11.9192 83.2298 11.858 83.1732 11.8274 83.1166C11.7968 83.0883 11.7662 83.0601 11.7356 83.0318C11.7049 82.9752 11.6437 82.9187 11.6131 82.8338C11.5825 82.8055 11.5825 82.749 11.5519 82.7207C11.5213 82.6358 11.4907 82.5793 11.46 82.4944C11.46 82.4661 11.4294 82.4379 11.4294 82.4096C11.3988 82.2965 11.3682 82.1833 11.3376 82.0419C11.3376 82.0137 11.3376 81.9854 11.3376 81.9571C11.307 81.844 11.307 81.7308 11.307 81.6177C11.307 81.5611 11.307 81.5329 11.307 81.4763C11.307 81.3915 11.307 81.2783 11.307 81.1935C11.307 81.1369 11.307 81.0804 11.307 81.0238C11.307 80.9389 11.307 80.8258 11.3376 80.7127C11.3376 80.6561 11.3376 80.5996 11.3682 80.543C11.3988 80.4299 11.3988 80.3167 11.4294 80.2319C11.4294 80.1753 11.46 80.1471 11.46 80.0905C11.46 80.0339 11.4907 79.9774 11.4907 79.9208C11.5213 79.836 11.5213 79.7511 11.5519 79.6663C11.5519 79.638 11.5825 79.5814 11.5825 79.5249C11.6131 79.44 11.6437 79.3269 11.6743 79.2421C11.6743 79.2138 11.7049 79.1572 11.7356 79.1289C11.7662 79.0158 11.8274 78.9027 11.8886 78.7896C11.8886 78.7613 11.9192 78.7613 11.9192 78.733C11.9804 78.5916 12.0417 78.4785 12.1029 78.337C12.1335 78.3088 12.1335 78.2805 12.1641 78.2522C12.2253 78.1108 12.3172 77.9977 12.3784 77.8563L13.8478 75.5089C13.909 75.424 13.9396 75.3392 14.0009 75.2544C14.0621 75.1695 14.1233 75.0564 14.1539 74.9715C14.1845 74.9433 14.1845 74.915 14.2151 74.8867C14.2151 74.8584 14.2457 74.8301 14.2457 74.8301C14.2764 74.7736 14.307 74.7453 14.307 74.6887C14.3682 74.5756 14.3988 74.4908 14.4294 74.3776C14.46 74.3211 14.46 74.2645 14.4906 74.2362C14.4906 74.2079 14.5213 74.1796 14.5213 74.1514C14.5213 74.1231 14.5519 74.0948 14.5519 74.0382C14.5825 73.9251 14.6437 73.812 14.6743 73.6989C14.6743 73.6706 14.7049 73.614 14.7049 73.5857C14.7049 73.5575 14.7355 73.5009 14.7355 73.4726C14.7355 73.416 14.7662 73.3595 14.7662 73.3029C14.7968 73.1898 14.7968 73.0767 14.8274 72.9635C14.8274 72.9353 14.858 72.8787 14.858 72.8504V72.8221C14.858 72.709 14.8886 72.5959 14.8886 72.511C14.8886 72.3979 14.8886 72.3131 14.8886 72.2282Z" fill="url(#paint3_linear)"/>
<path d="M60.9291 2.85354C60.9903 2.85354 61.0209 2.82526 61.0822 2.82526C61.1434 2.82526 61.174 2.79698 61.2352 2.79698C61.2965 2.79698 61.3577 2.76869 61.4189 2.76869C61.4495 2.76869 61.4801 2.76869 61.5413 2.76869C61.6026 2.76869 61.6944 2.76869 61.7556 2.76869C61.7862 2.76869 61.8169 2.76869 61.8475 2.76869C61.9393 2.76869 62.0311 2.7687 62.123 2.79698C62.123 2.79698 62.123 2.79698 62.1536 2.79698C62.2454 2.82526 62.3373 2.82526 62.3985 2.85354C62.4291 2.85354 62.4291 2.85354 62.4597 2.88182C62.5515 2.9101 62.6434 2.93838 62.7046 2.99495L68.0311 5.79482L63.6536 3.44745L58.3271 0.647578C58.2658 0.619297 58.2046 0.591015 58.1434 0.562733C58.1128 0.562733 58.1128 0.562733 58.0822 0.534452C58.0516 0.534452 58.0516 0.50617 58.021 0.50617C57.9903 0.50617 57.9597 0.477889 57.9597 0.477889C57.8985 0.449607 57.8373 0.449607 57.7761 0.449607H57.7454C57.6842 0.449607 57.5924 0.421326 57.5312 0.421326C57.5005 0.421326 57.5005 0.421326 57.4699 0.421326C57.4393 0.421326 57.4087 0.421326 57.3781 0.421326C57.3475 0.421326 57.3169 0.421326 57.2863 0.421326C57.2556 0.421326 57.225 0.421326 57.1944 0.421326C57.1638 0.421326 57.1332 0.421326 57.072 0.421326C57.0414 0.421326 57.0414 0.421326 57.0107 0.421326C56.9801 0.421326 56.9189 0.449607 56.8883 0.449607C56.8271 0.449607 56.7965 0.477889 56.7352 0.477889C56.7046 0.477889 56.7046 0.477889 56.674 0.477889C56.6434 0.477889 56.6128 0.50617 56.5822 0.50617C56.4903 0.534452 56.3985 0.562733 56.3067 0.591015C56.2761 0.591015 56.2454 0.591015 56.2454 0.619297C56.2148 0.619297 56.2148 0.647578 56.1842 0.647578C56.0312 0.704141 55.8781 0.788986 55.725 0.873831C55.6026 0.930394 55.5108 1.01524 55.3883 1.0718C55.3577 1.10008 55.3271 1.12836 55.2659 1.15665C55.2046 1.21321 55.1128 1.26977 55.0516 1.32634C55.021 1.35462 54.9597 1.3829 54.9291 1.43946C54.8679 1.49603 54.8067 1.55259 54.7148 1.60915C54.6842 1.63743 54.623 1.694 54.5924 1.72228C54.5618 1.75056 54.5312 1.77884 54.4699 1.80712C54.4393 1.8354 54.4393 1.8354 54.4087 1.86369C54.3169 1.94853 54.225 2.03337 54.1638 2.11822C54.1332 2.1465 54.1026 2.17478 54.072 2.20306L54.0414 2.23135C54.0108 2.28791 53.9495 2.31619 53.9189 2.37275C53.8883 2.42932 53.8271 2.4576 53.7965 2.51416C53.7659 2.54244 53.7659 2.57072 53.7353 2.57072C53.7046 2.59901 53.674 2.65557 53.6434 2.68385C53.6128 2.71213 53.5822 2.7687 53.5516 2.79698C53.521 2.85354 53.4904 2.88182 53.4597 2.93838C53.4291 2.96667 53.3985 2.99495 53.3985 3.05151C53.3985 3.07979 53.3679 3.07979 53.3679 3.10807C53.3067 3.19292 53.2455 3.30604 53.1842 3.39089C53.1842 3.39089 53.1842 3.41917 53.1536 3.41917L51.6842 5.76654C51.5924 5.90795 51.5312 6.02107 51.4393 6.1342C51.4087 6.16248 51.3781 6.19076 51.3781 6.24733C51.3169 6.33217 51.2557 6.41702 51.1944 6.50186C51.1638 6.53014 51.1332 6.58671 51.1026 6.61499C51.0414 6.69983 50.9802 6.7564 50.9189 6.81296C50.8883 6.86952 50.8271 6.92608 50.7965 6.95437C50.7659 7.01093 50.7046 7.03921 50.674 7.09577C50.5822 7.18062 50.4904 7.26546 50.4291 7.35031C50.3679 7.40687 50.3067 7.46343 50.2455 7.49172C50.2149 7.52 50.1536 7.57656 50.123 7.60484C50.0618 7.66141 50.0006 7.71797 49.9087 7.77453C49.8781 7.80281 49.8169 7.83109 49.7863 7.88766C49.7251 7.94422 49.6332 8.00078 49.572 8.05735C49.5414 8.08563 49.5108 8.11391 49.4495 8.14219C49.3271 8.22704 49.2353 8.2836 49.1128 8.34016C48.9598 8.42501 48.8067 8.48157 48.6536 8.56641C48.5924 8.5947 48.5312 8.5947 48.5006 8.62298C48.4087 8.65126 48.3475 8.67954 48.2557 8.70782C48.1945 8.7361 48.1332 8.7361 48.0414 8.76439C47.9802 8.76439 47.9496 8.79267 47.8883 8.79267C47.7659 8.82095 47.674 8.82095 47.5516 8.82095C47.0006 8.84923 46.4496 8.90579 45.8985 8.96236C45.7761 8.99064 45.6843 8.99064 45.5618 8.99064C45.5312 8.99064 45.5006 8.99064 45.47 8.99064C45.3781 8.99064 45.2557 8.99064 45.1638 8.96236C45.1638 8.96236 45.1639 8.96236 45.1332 8.96236C45.0414 8.93408 44.9496 8.93408 44.8577 8.90579C44.8271 8.90579 44.8271 8.90579 44.7965 8.87751C44.7047 8.84923 44.6128 8.82095 44.521 8.76439L48.8985 11.1118C48.8985 11.1118 48.8985 11.1118 48.9291 11.1118C48.9904 11.14 49.0516 11.1683 49.1128 11.1966C49.1434 11.1966 49.1434 11.1966 49.174 11.2249C49.2047 11.2249 49.2047 11.2249 49.2353 11.2532C49.2659 11.2532 49.2965 11.2814 49.2965 11.2814C49.3577 11.3097 49.4189 11.3097 49.5108 11.338C49.5108 11.338 49.5108 11.338 49.5414 11.338C49.6026 11.338 49.6638 11.3663 49.7557 11.3663C49.7863 11.3663 49.8169 11.3663 49.8475 11.3663C49.8781 11.3663 49.9087 11.3663 49.9393 11.3663C49.97 11.3663 50.0006 11.3663 50.0006 11.3663C50.0924 11.3663 50.1842 11.3663 50.2761 11.338C50.8271 11.2532 51.4087 11.2249 51.9291 11.1966C52.021 11.1966 52.1128 11.1966 52.2046 11.1683C52.3271 11.14 52.4189 11.14 52.5414 11.1118C52.6026 11.0835 52.6638 11.0835 52.725 11.0552C52.7863 11.0269 52.8475 11.0269 52.8781 10.9986C52.9087 10.9986 52.9393 10.9703 52.9699 10.9703C53.0006 10.9703 53.0312 10.9421 53.0618 10.9421C53.2148 10.8855 53.3679 10.8289 53.521 10.7441C53.6434 10.6875 53.7353 10.6027 53.8577 10.5461C53.8883 10.5178 53.9189 10.4896 53.9801 10.4613C54.0414 10.4047 54.1332 10.3482 54.1944 10.2916C54.225 10.2633 54.2863 10.235 54.3169 10.1785C54.3781 10.1219 54.4393 10.0653 54.5312 10.0088C54.5618 9.98049 54.623 9.92393 54.6536 9.89565C54.6842 9.86737 54.7148 9.83909 54.7455 9.8108C54.7761 9.78252 54.7761 9.75424 54.8067 9.75424C54.8985 9.6694 54.9903 9.58455 55.0516 9.49971C55.0822 9.47143 55.1128 9.44314 55.1434 9.41486C55.1434 9.38658 55.174 9.38658 55.174 9.3583C55.2046 9.30174 55.2659 9.24517 55.2965 9.21689C55.3271 9.16033 55.3883 9.13205 55.4189 9.07548C55.4495 9.0472 55.4495 9.01892 55.4801 9.01892C55.5108 8.99064 55.5414 8.93408 55.572 8.90579C55.6026 8.87751 55.6332 8.82095 55.6638 8.79267C55.6944 8.7361 55.725 8.70782 55.7557 8.65126C55.7863 8.62298 55.8169 8.5947 55.8169 8.53813C55.8169 8.50985 55.8475 8.50985 55.8475 8.48157C55.9087 8.39673 55.9699 8.2836 56.0312 8.19875C56.0312 8.19875 56.0312 8.17047 56.0618 8.17047L57.5312 5.8231C57.623 5.6817 57.7148 5.56857 57.7761 5.42716C57.8067 5.39888 57.8373 5.3706 57.8373 5.31404C57.8985 5.22919 57.9597 5.14435 58.021 5.0595C58.0516 5.03122 58.0822 4.97466 58.1128 4.94638C58.174 4.86153 58.2352 4.80497 58.2965 4.7484C58.3271 4.69184 58.3883 4.63528 58.4189 4.607C58.4495 4.55043 58.5107 4.52215 58.5414 4.46559C58.6332 4.38074 58.725 4.2959 58.7863 4.21105C58.8475 4.15449 58.9087 4.09793 58.9699 4.04137C59.0005 4.01308 59.0618 3.95652 59.0924 3.92824C59.1536 3.87168 59.2148 3.81511 59.3067 3.75855C59.3373 3.73027 59.3985 3.70199 59.4291 3.64542C59.4903 3.58886 59.5822 3.5323 59.6434 3.47573C59.674 3.44745 59.7046 3.41917 59.7658 3.39089C59.8883 3.30604 59.9801 3.24948 60.1026 3.19292C60.2556 3.10807 60.4087 3.05151 60.5618 2.96667C60.5924 2.93838 60.6536 2.93838 60.6842 2.9101C60.7454 2.9101 60.8373 2.88182 60.9291 2.85354Z" fill="url(#paint4_linear)"/>
<path d="M72.1027 19.6245C74.1843 18.5215 75.868 19.3982 75.868 21.6042L75.8986 29.5796C75.8986 31.7855 74.2149 34.4723 72.1639 35.5753L70.0823 36.6783C68.521 37.4984 67.1435 39.2802 66.5925 41.1185C66.3782 41.8255 66.1639 42.5325 65.919 43.2396C65.2761 45.1062 65.5823 46.7182 66.6843 47.3121L68.1537 48.104C69.6231 48.8676 69.6231 51.413 68.1843 53.732L62.8884 62.1882C62.1537 63.3478 61.2047 64.2528 60.2251 64.7619C59.2762 65.2709 58.2966 65.384 57.5619 65.0164L56.0925 64.2528C55.3884 63.8851 54.4088 63.9982 53.4599 64.5073C52.9395 64.7901 52.3884 65.1861 51.8986 65.6951C51.3476 66.2608 50.7966 66.7981 50.2456 67.3072C48.7762 68.6647 47.8272 70.6727 47.8272 72.313V74.519C47.8272 76.725 46.1436 79.4117 44.0925 80.5147L36.5619 84.5307C34.4803 85.6336 32.7967 84.7569 32.7967 82.551V80.345C32.7967 78.7047 31.8171 77.7431 30.3477 77.9128C29.7967 77.9976 29.215 78.0259 28.6946 78.0542C28.2048 78.0825 27.6538 78.2522 27.1334 78.535C26.1538 79.044 25.2048 79.9773 24.5008 81.1086L23.0314 83.456C22.2967 84.6155 21.3477 85.5205 20.3681 86.0296C19.3885 86.5387 18.4396 86.6518 17.7049 86.2841L12.3477 83.5125C10.8784 82.7489 10.8784 80.2036 12.3171 77.8845L13.7865 75.5371C14.8885 73.7837 15.1641 71.8322 14.5212 70.6727C14.2763 70.2202 14.0314 69.7677 13.8171 69.2869C13.2661 68.0425 11.8579 67.7597 10.2967 68.5799L8.2151 69.6828C6.13347 70.7858 4.4498 69.9091 4.4498 67.7031L4.41919 59.7277C4.41919 57.5218 6.10286 54.835 8.15387 53.732L10.2049 52.6291C11.7661 51.8089 13.1437 50.0272 13.6947 48.1889C13.909 47.4818 14.1232 46.7748 14.3681 46.0677C15.011 44.2012 14.7049 42.5891 13.6028 41.9952L12.1335 41.2033C10.6641 40.4114 10.6641 37.8944 12.1028 35.5753L17.3987 27.1191C18.1334 25.9595 19.0824 25.0545 20.062 24.5455C21.011 24.0364 21.9906 23.9233 22.7253 24.2909L24.2865 24.998C25.0212 25.3656 25.9701 25.2525 26.9497 24.7434C27.4701 24.4606 28.0212 24.0647 28.511 23.5556C29.062 22.99 29.613 22.4526 30.164 21.9436C31.6334 20.586 32.5824 18.5781 32.5824 16.9377V14.7318C32.5824 12.5258 34.2354 9.83905 36.3171 8.73607L43.817 4.72008C45.8987 3.6171 47.5823 4.49383 47.5823 6.69979V8.90576C47.5823 10.5744 48.5619 11.5359 50.0313 11.338C50.5823 11.2531 51.1639 11.2248 51.6844 11.1966C52.1741 11.1683 52.7252 10.9986 53.2456 10.7158C54.2252 10.2067 55.1741 9.3017 55.8782 8.14215L57.3476 5.79478C58.0823 4.63524 59.0313 3.73023 60.0109 3.22116C60.9598 2.71209 61.9394 2.59897 62.6741 2.96663L68.0006 5.7665C69.47 6.55839 69.47 9.07545 68.0312 11.3945L66.5619 13.7419C65.4598 15.4954 65.1537 17.4468 65.8272 18.6063C66.0721 19.0588 66.317 19.5113 66.5312 19.9921C67.0823 21.2365 68.4904 21.5193 70.0516 20.6992L72.1027 19.6245ZM55.2047 36.8762C55.2047 36.7914 55.2047 36.7065 55.2047 36.6217C55.2047 36.0278 55.1741 35.4621 55.1129 34.9248C55.1129 34.8117 55.0823 34.6985 55.0517 34.6137C54.9905 34.1046 54.8986 33.6521 54.7762 33.1713C54.7456 33.0017 54.6843 32.832 54.6231 32.6906C54.5007 32.2663 54.3476 31.8704 54.1945 31.5027C54.1333 31.3896 54.1027 31.2765 54.0415 31.1916C53.8272 30.7391 53.5517 30.3149 53.2762 29.919C53.215 29.8341 53.1231 29.7493 53.0619 29.6644C52.8476 29.3533 52.5721 29.0988 52.2966 28.8443C52.2048 28.7594 52.0823 28.6463 51.9905 28.5614C51.6844 28.3069 51.3782 28.1089 51.0415 27.911C50.9803 27.8544 50.8884 27.7978 50.8272 27.7696C50.4293 27.5433 49.9701 27.3736 49.5415 27.2322C49.4191 27.2039 49.2966 27.1756 49.1742 27.1474C48.8068 27.0625 48.4395 26.9777 48.0721 26.9211C47.9191 26.9211 47.766 26.8928 47.6129 26.8646C47.1538 26.8363 46.6946 26.8363 46.2048 26.8646C46.1436 26.8646 46.0823 26.8646 46.0211 26.8646C45.4701 26.9211 44.9191 27.006 44.3374 27.1191C44.1844 27.1474 44.0007 27.2039 43.8476 27.2322C43.4191 27.3453 42.9599 27.4867 42.5007 27.6564C42.317 27.713 42.164 27.7696 41.9803 27.8544C41.3681 28.1089 40.7252 28.3918 40.113 28.7029C38.8579 29.3816 37.5722 30.2301 36.3477 31.1916C31.0518 35.4621 26.9497 42.0518 25.5722 48.4151C23.5212 58.0591 28.3885 64.1962 36.4395 62.1034C37.0211 61.9337 37.6334 61.7357 38.2456 61.5095C38.4599 61.4246 38.6742 61.3115 38.8579 61.2267C39.2864 61.057 39.6844 60.859 40.113 60.6327C40.7558 60.2934 41.3068 59.954 41.8579 59.5863C41.9497 59.5298 42.0415 59.4732 42.1027 59.4166C42.6538 59.049 43.2048 58.653 43.7252 58.2288L43.9395 58.0591C45.1946 57.041 46.4191 55.8532 47.5517 54.5805C47.8272 54.2694 48.1027 53.93 48.3782 53.6189L48.6231 53.3078C49.7252 51.9786 50.766 50.5645 51.715 49.1221C51.9905 48.7262 52.2048 48.302 52.3884 47.8495C53.3986 45.5304 54.1639 43.2113 54.6231 40.9488C54.715 40.5528 54.7762 40.1569 54.8374 39.7609C54.868 39.5064 54.8986 39.2519 54.9292 38.9973C54.9905 38.46 55.0517 37.9226 55.0517 37.4136C55.2047 37.2156 55.2047 37.0176 55.2047 36.8762Z" fill="url(#paint5_linear)"/>
<path d="M42.1333 2.14649C42.0414 2.08993 41.9802 2.06165 41.919 2.06165H41.8884C41.8578 2.06165 41.8578 2.06165 41.8272 2.03337C41.7965 2.03337 41.7659 2.00509 41.7353 2.00509C41.7047 2.00509 41.6741 1.97681 41.6129 1.97681C41.5823 1.97681 41.5823 1.97681 41.5516 1.94852H41.521C41.4598 1.94852 41.368 1.92024 41.3067 1.92024C41.2761 1.92024 41.2761 1.92024 41.2455 1.92024C41.1843 1.92024 41.1231 1.92024 41.0618 1.92024C41.0312 1.92024 41.0312 1.92024 41.0006 1.92024C40.97 1.92024 40.9394 1.92024 40.8782 1.92024C40.8476 1.92024 40.8169 1.92024 40.7863 1.92024C40.7557 1.92024 40.7251 1.92024 40.6945 1.94852C40.6333 1.94852 40.6027 1.97681 40.5414 1.97681C40.5108 1.97681 40.4802 1.97681 40.4496 2.00509C40.419 2.00509 40.3884 2.03337 40.3578 2.03337C40.2659 2.06165 40.1741 2.08993 40.0823 2.11821C40.0516 2.11821 40.021 2.14649 39.9904 2.14649C39.9598 2.14649 39.9598 2.17478 39.9292 2.17478C39.7761 2.23134 39.6231 2.31618 39.47 2.40103L31.9394 6.38873C31.7251 6.50186 31.5415 6.61498 31.3578 6.75639C31.3272 6.78467 31.2966 6.81295 31.266 6.81295C31.0823 6.95436 30.8986 7.09577 30.7456 7.23718L30.7149 7.26546C30.6843 7.29374 30.6537 7.32202 30.6231 7.3503C30.5313 7.43515 30.47 7.51999 30.3782 7.60484C30.3476 7.63312 30.317 7.6614 30.2864 7.68968C30.2558 7.71796 30.2558 7.74624 30.2251 7.77453C30.1639 7.83109 30.1333 7.88765 30.0721 7.94422C30.0415 7.9725 30.0109 8.00078 29.9802 8.05734C29.9496 8.08562 29.919 8.1139 29.919 8.14219C29.8884 8.19875 29.8578 8.22703 29.8272 8.28359C29.7966 8.31188 29.766 8.34016 29.766 8.36844C29.7354 8.425 29.7047 8.48156 29.6435 8.53813C29.6129 8.56641 29.5823 8.59469 29.5823 8.65125L29.5517 8.67954C29.4905 8.76438 29.4292 8.87751 29.368 8.96235C29.368 8.96235 29.368 8.96235 29.368 8.99063C29.368 9.01891 29.3374 9.01891 29.3374 9.0472C29.3068 9.10376 29.2456 9.1886 29.2149 9.24517C29.1843 9.27345 29.1843 9.30173 29.1537 9.35829C29.1231 9.38658 29.1231 9.41486 29.0925 9.47142C29.0619 9.4997 29.0619 9.52798 29.0313 9.55626C29.0007 9.64111 28.9394 9.72595 28.9088 9.8108C28.9088 9.83908 28.9088 9.83908 28.8782 9.83908C28.817 9.95221 28.7864 10.0371 28.7251 10.1502C28.7251 10.1785 28.7251 10.1785 28.6945 10.2067C28.6639 10.235 28.6639 10.2916 28.6639 10.3199C28.6333 10.3764 28.6333 10.433 28.6027 10.4613C28.6027 10.4896 28.5721 10.5461 28.5721 10.5744C28.5415 10.631 28.5415 10.6592 28.5109 10.7158C28.5109 10.7441 28.4803 10.7724 28.4803 10.8007C28.4496 10.8572 28.4496 10.9138 28.4496 10.9703C28.419 11.0269 28.419 11.0835 28.3884 11.14C28.3884 11.1683 28.3884 11.1683 28.3578 11.1966C28.3578 11.2532 28.3578 11.2814 28.3272 11.338C28.2966 11.4228 28.2966 11.536 28.266 11.6208C28.266 11.6491 28.266 11.6774 28.266 11.7057C28.266 11.7339 28.266 11.7622 28.266 11.7622C28.2354 11.9602 28.2354 12.1582 28.2354 12.3844V14.5904C28.2354 14.7884 28.2047 15.0146 28.2047 15.2409C28.1741 15.4388 28.1435 15.6368 28.0823 15.8348C28.0823 15.8631 28.0517 15.9196 28.0517 15.9479C27.9905 16.1459 27.9292 16.3438 27.868 16.5418C27.868 16.5701 27.868 16.5701 27.8374 16.5984C27.7762 16.7963 27.6843 16.9943 27.5925 17.2206C27.5925 17.2488 27.5619 17.2488 27.5619 17.2771C27.47 17.4751 27.3476 17.6731 27.2558 17.871C27.2558 17.8993 27.2252 17.9276 27.2252 17.9276C27.1027 18.1256 26.9803 18.2953 26.8578 18.465C26.8272 18.4932 26.8272 18.5215 26.7966 18.5498C26.6741 18.7195 26.5211 18.8892 26.3986 19.0589C26.368 19.0872 26.3374 19.1154 26.3068 19.172C26.1537 19.3417 26.0007 19.5114 25.8476 19.6528C25.2966 20.1901 24.7456 20.7275 24.1945 21.2648C24.0721 21.378 23.9803 21.4911 23.8578 21.6042C23.8272 21.6325 23.7966 21.6608 23.7354 21.6891C23.6435 21.7456 23.5823 21.8305 23.4905 21.887C23.4599 21.9153 23.3986 21.9436 23.368 21.9719C23.2762 22.0284 23.215 22.085 23.1231 22.1416C23.0925 22.1698 23.0619 22.1981 23.0007 22.2264C22.8782 22.3112 22.7558 22.3678 22.6333 22.4527C22.4803 22.5375 22.3272 22.5941 22.1741 22.6789C22.1435 22.7072 22.0823 22.7072 22.0517 22.7355C21.9599 22.7638 21.868 22.792 21.7762 22.8203C21.715 22.8203 21.6844 22.8486 21.6231 22.8486C21.5619 22.8486 21.5313 22.8769 21.4701 22.8769C21.4088 22.8769 21.3476 22.9052 21.2864 22.9052C21.2558 22.9052 21.1946 22.9052 21.1639 22.9052C21.1027 22.9052 21.0109 22.9052 20.9497 22.9052C20.919 22.9052 20.8884 22.9052 20.8578 22.9052C20.766 22.9052 20.6742 22.9052 20.5823 22.8769H20.5517C20.4599 22.8486 20.3986 22.8486 20.3068 22.8203C20.2762 22.8203 20.2762 22.8203 20.2456 22.792C20.1537 22.7638 20.0619 22.7355 20.0007 22.6789L18.4395 21.887C18.3782 21.8587 18.317 21.8305 18.2558 21.8022C18.2252 21.8022 18.2252 21.8022 18.1946 21.7739C18.164 21.7739 18.164 21.7456 18.1333 21.7456C18.1027 21.7456 18.0721 21.7173 18.0721 21.7173C18.0109 21.6891 17.9497 21.6891 17.8884 21.6891H17.8578C17.7966 21.6891 17.7048 21.6608 17.6435 21.6608C17.6129 21.6608 17.6129 21.6608 17.5823 21.6608C17.5517 21.6608 17.5211 21.6608 17.4905 21.6608C17.4599 21.6608 17.4293 21.6608 17.368 21.6608C17.3374 21.6608 17.3068 21.6608 17.2762 21.6608C17.2456 21.6608 17.215 21.6608 17.1538 21.6608C17.1231 21.6608 17.1231 21.6608 17.0925 21.6608C17.0619 21.6608 17.0007 21.6891 16.9701 21.6891C16.9089 21.6891 16.8782 21.7173 16.817 21.7173C16.7864 21.7173 16.7864 21.7173 16.7558 21.7173C16.7252 21.7173 16.6946 21.7456 16.664 21.7456C16.5721 21.7739 16.4803 21.8022 16.3885 21.8305C16.3578 21.887 16.3272 21.887 16.3272 21.887C16.2966 21.887 16.2966 21.9153 16.266 21.9153C16.1129 21.9719 15.9599 22.0567 15.8068 22.1416C15.6844 22.1981 15.5925 22.283 15.4701 22.3395C15.4395 22.3678 15.4089 22.3961 15.3476 22.4244C15.2864 22.4809 15.1946 22.5375 15.1334 22.5941C15.1027 22.6223 15.0415 22.6506 15.0109 22.7072C14.9497 22.7638 14.8885 22.8203 14.7966 22.8769C14.766 22.9052 14.7048 22.9617 14.6742 22.99C14.6436 23.0183 14.6129 23.0466 14.5517 23.0749C14.5211 23.1031 14.5211 23.1031 14.4905 23.1314C14.3987 23.2163 14.3068 23.3011 14.2456 23.3859C14.215 23.4142 14.1844 23.4425 14.1538 23.4708L14.1232 23.4991C14.0925 23.5556 14.0313 23.5839 14.0007 23.6405C13.9701 23.697 13.9089 23.7253 13.8783 23.7819C13.8476 23.8102 13.8476 23.8385 13.817 23.8385C13.7864 23.8667 13.7558 23.9233 13.7252 23.9516C13.6946 23.9799 13.664 24.0364 13.6334 24.0647C13.6027 24.1213 13.5721 24.1495 13.5415 24.2061C13.5109 24.2344 13.4803 24.2627 13.4803 24.3192C13.4803 24.3475 13.4497 24.3475 13.4497 24.3758C13.3885 24.4606 13.3272 24.5738 13.266 24.6586C13.266 24.6586 13.266 24.6869 13.2354 24.6869L7.84766 33.1997C7.78643 33.2845 7.75582 33.3693 7.6946 33.4542C7.66399 33.5107 7.63337 33.539 7.63337 33.5956C7.60276 33.6239 7.60276 33.6522 7.57215 33.6804C7.57215 33.7087 7.54154 33.737 7.54154 33.7653C7.48031 33.8784 7.4497 33.9633 7.38848 34.0764C7.38848 34.0764 7.38848 34.0764 7.38848 34.1047C7.38848 34.1329 7.35786 34.1329 7.35786 34.1612C7.32725 34.2461 7.29664 34.3309 7.26603 34.3875C7.26603 34.4158 7.23542 34.444 7.23542 34.5006C7.2048 34.5289 7.2048 34.5854 7.17419 34.6137C7.17419 34.642 7.14358 34.6703 7.14358 34.7269C7.11297 34.7834 7.11297 34.84 7.08235 34.8965C7.08235 34.9248 7.05174 34.9814 7.05174 35.0097C7.05174 35.038 7.05174 35.038 7.02113 35.0662C6.99052 35.1228 6.99052 35.2076 6.95991 35.2642C6.95991 35.3208 6.92929 35.3773 6.92929 35.4339V35.4622C6.92929 35.4905 6.92929 35.547 6.89868 35.5753C6.86807 35.6884 6.86807 35.8016 6.83746 35.8864C6.83746 35.9147 6.83746 35.9147 6.83746 35.943C6.83746 35.9712 6.83746 35.9995 6.83746 36.0561C6.83746 36.1692 6.80685 36.2541 6.80685 36.3389C6.80685 36.3955 6.80685 36.452 6.80685 36.5086C6.80685 36.5934 6.80685 36.7066 6.80685 36.7914C6.80685 36.848 6.80685 36.8763 6.80685 36.9328C6.80685 37.0459 6.83746 37.1591 6.83746 37.2722C6.83746 37.3005 6.83746 37.3288 6.83746 37.357C6.86807 37.4702 6.89868 37.6116 6.92929 37.7247C6.92929 37.753 6.95991 37.7813 6.95991 37.8095C6.99052 37.8944 7.02113 37.9792 7.05174 38.0358C7.08235 38.0641 7.08235 38.1206 7.11297 38.1489C7.14358 38.2055 7.2048 38.2903 7.23542 38.3469C7.26603 38.3752 7.29664 38.4035 7.32725 38.4317C7.38848 38.4883 7.41909 38.5449 7.48031 38.6014C7.51093 38.6297 7.54154 38.658 7.57215 38.6863C7.66399 38.7711 7.75582 38.8277 7.84766 38.8842L9.37827 39.7044C9.4701 39.761 9.59255 39.8175 9.65378 39.9024C9.68439 39.9307 9.715 39.9589 9.74561 39.9872C9.80684 40.0438 9.86806 40.1286 9.92928 40.2135C9.9599 40.2418 9.99051 40.2983 10.0211 40.3266C10.0823 40.4115 10.1436 40.5246 10.1742 40.6094C10.1742 40.6377 10.2048 40.666 10.2354 40.7226C10.2966 40.864 10.3272 41.0054 10.3579 41.1751C10.3579 41.2033 10.3579 41.2599 10.3579 41.2882C10.3885 41.4296 10.3885 41.5427 10.3885 41.6841C10.3885 41.7407 10.3885 41.7973 10.3885 41.8538C10.3885 41.9669 10.3885 42.1083 10.3579 42.2498C10.3579 42.3063 10.3579 42.3629 10.3272 42.4194C10.266 42.8154 10.1742 43.2396 10.0211 43.6921C9.80684 44.3426 9.59255 44.9931 9.40888 45.6153C9.37827 45.6718 9.37827 45.7567 9.34765 45.8132C9.28643 46.0395 9.19459 46.2657 9.10276 46.492V46.5203C9.01092 46.7465 8.91908 46.9445 8.79664 47.1707C8.79664 47.1707 8.79664 47.199 8.76602 47.199C8.64357 47.397 8.55174 47.595 8.42929 47.7929C8.42929 47.8212 8.39868 47.8212 8.39868 47.8495C8.27623 48.0192 8.15378 48.2172 8.00072 48.3869C7.97011 48.4151 7.97011 48.4434 7.9395 48.4717C7.78643 48.6414 7.66399 48.8111 7.51093 48.9808C7.48031 49.009 7.48031 49.009 7.4497 49.0373C7.32725 49.1787 7.17419 49.2919 7.05174 49.4333C6.92929 49.5464 6.80685 49.6595 6.65378 49.7444C6.59256 49.8009 6.53134 49.8575 6.47011 49.8858C6.25583 50.0272 6.07215 50.1686 5.85787 50.2534L3.80685 51.3564C3.59257 51.4695 3.4089 51.5827 3.22522 51.7241C3.19461 51.7524 3.164 51.7806 3.13339 51.7806C2.94971 51.922 2.76604 52.0635 2.61298 52.2049L2.58237 52.2331C2.55176 52.2614 2.52114 52.2897 2.49053 52.318C2.39869 52.4028 2.33747 52.4877 2.24563 52.5725C2.21502 52.6008 2.18441 52.6291 2.1538 52.6574C2.12319 52.6857 2.12319 52.7139 2.09257 52.7422C2.03135 52.7988 2.00074 52.8553 1.93951 52.9119C1.9089 52.9402 1.87829 52.9967 1.84768 53.025C1.81706 53.0533 1.78645 53.0816 1.78645 53.1099C1.75584 53.1664 1.72523 53.1947 1.69462 53.2513C1.664 53.2796 1.63339 53.3078 1.63339 53.3361C1.60278 53.3927 1.57217 53.4493 1.51094 53.5058C1.48033 53.5341 1.44972 53.5624 1.44972 53.6189L1.41911 53.6472C1.35788 53.7321 1.29666 53.8452 1.23543 53.93C1.23543 53.93 1.23543 53.93 1.23543 53.9583C1.23543 53.9866 1.20482 53.9866 1.20482 54.0149C1.17421 54.0714 1.11298 54.1563 1.08237 54.2411C1.05176 54.2694 1.05176 54.2977 1.02115 54.3543C0.990536 54.3825 0.990536 54.4108 0.959924 54.4674C0.929311 54.4957 0.929311 54.524 0.898699 54.5522C0.868087 54.6371 0.806863 54.7219 0.776251 54.8068C0.776251 54.835 0.776251 54.8351 0.745638 54.8633C0.684414 54.9765 0.653802 55.0613 0.592578 55.1744C0.592578 55.2027 0.592578 55.2027 0.561966 55.231C0.531353 55.2593 0.531353 55.3158 0.531353 55.3441C0.500741 55.4007 0.500741 55.4572 0.470129 55.5138C0.470129 55.5421 0.439517 55.5987 0.439517 55.6269C0.408905 55.6835 0.408905 55.7118 0.378293 55.7683C0.378293 55.7966 0.34768 55.8249 0.34768 55.8532C0.317068 55.9098 0.317068 55.9663 0.317068 56.0229C0.286456 56.0794 0.286456 56.136 0.255844 56.1926C0.255844 56.2208 0.255844 56.2208 0.225232 56.2491C0.225232 56.3057 0.225232 56.334 0.19462 56.3905C0.164008 56.4754 0.164008 56.5885 0.133395 56.6734C0.133395 56.7016 0.133395 56.7299 0.133395 56.7582C0.133395 56.7865 0.133395 56.8148 0.133395 56.843C0.102783 57.041 0.102783 57.239 0.102783 57.4652L0.133395 65.4406C0.133395 66.5436 0.561966 67.3072 1.23543 67.6749L5.61297 70.0222C4.9395 69.6546 4.51093 68.891 4.51093 67.788L4.48032 59.8126C4.48032 59.6146 4.51093 59.4167 4.51093 59.1904C4.51093 59.1338 4.51093 59.1056 4.54155 59.049C4.54155 58.9642 4.57216 58.851 4.60277 58.7662C4.60277 58.7096 4.63338 58.6531 4.63338 58.5682C4.63338 58.5117 4.66399 58.4551 4.69461 58.3985C4.72522 58.3137 4.72522 58.2288 4.75583 58.144C4.75583 58.0874 4.78644 58.0591 4.81706 58.0026C4.84767 57.9177 4.87828 57.8046 4.90889 57.7198C4.90889 57.6915 4.9395 57.6349 4.9395 57.6066C5.00073 57.4652 5.03134 57.3521 5.09256 57.239C5.09256 57.2107 5.09256 57.2107 5.12318 57.1824C5.1844 57.0693 5.24563 56.9562 5.30685 56.843C5.33746 56.8148 5.33746 56.7865 5.36807 56.7299C5.4293 56.6168 5.49052 56.5319 5.55175 56.4188C5.55175 56.3905 5.58236 56.3905 5.58236 56.3623C5.64358 56.2491 5.73542 56.136 5.82726 55.9946C5.85787 55.9663 5.88848 55.938 5.88848 55.8815C5.9497 55.7966 6.01093 55.7118 6.07215 55.6269C6.10277 55.5704 6.13338 55.5421 6.16399 55.4855C6.22521 55.429 6.28644 55.3441 6.34766 55.2876C6.40889 55.231 6.4395 55.1744 6.50072 55.1179C6.56195 55.0613 6.59256 55.0047 6.65378 54.9765C6.74562 54.8916 6.80685 54.8068 6.89868 54.7219C6.92929 54.6936 6.99052 54.6371 7.02113 54.6088C7.2048 54.4674 7.35786 54.2977 7.54154 54.1846C7.57215 54.1563 7.60276 54.128 7.63337 54.128C7.81705 53.9866 8.03133 53.8735 8.215 53.7603L10.266 52.6574C10.4803 52.5442 10.664 52.4311 10.8783 52.2897C10.9395 52.2331 11.0007 52.1766 11.0619 52.1483C11.1844 52.0352 11.3374 51.9503 11.4599 51.8372C11.4905 51.8089 11.4905 51.8089 11.5211 51.7806C11.6436 51.6675 11.766 51.5544 11.8579 51.4413C11.8885 51.413 11.8885 51.413 11.9191 51.3847C12.0109 51.2716 12.1334 51.1584 12.2252 51.0453C12.2558 50.9888 12.317 50.9322 12.3476 50.9039C12.3783 50.8756 12.3783 50.8473 12.4089 50.8191C12.4395 50.7908 12.4395 50.7625 12.4701 50.7342C12.5313 50.6494 12.6232 50.5363 12.6844 50.4231C12.715 50.3666 12.7456 50.31 12.7762 50.2534C12.7762 50.2252 12.8068 50.2252 12.8068 50.1969C12.8374 50.1686 12.8374 50.1403 12.8681 50.112C12.9293 50.0272 12.9905 49.9141 13.0517 49.8292C13.0823 49.7444 13.1436 49.6878 13.1742 49.603C13.1742 49.603 13.1742 49.5747 13.2048 49.5747V49.5464C13.266 49.4616 13.2966 49.3484 13.3578 49.2353C13.4191 49.1222 13.4497 49.0373 13.4803 48.9242C13.4803 48.9242 13.4803 48.9242 13.4803 48.8959V48.8676C13.5109 48.7828 13.5415 48.6697 13.6027 48.5848C13.6334 48.4717 13.6946 48.3586 13.7252 48.2172V48.1889C13.9395 47.4818 14.1538 46.7748 14.3987 46.0678C14.4293 45.9829 14.4599 45.8698 14.4905 45.7849C14.5211 45.6435 14.5517 45.5021 14.5823 45.389C14.6129 45.2193 14.6436 45.0496 14.6742 44.9082C14.6742 44.8799 14.6742 44.8517 14.6742 44.8234C14.6742 44.7668 14.6742 44.7102 14.7048 44.6537C14.7048 44.5123 14.7354 44.3992 14.7354 44.2577C14.7354 44.2012 14.7354 44.1446 14.7354 44.0881C14.7354 43.9466 14.7048 43.8052 14.7048 43.6921C14.7048 43.6638 14.7048 43.6073 14.7048 43.579C14.6742 43.4093 14.6436 43.2679 14.5823 43.1265C14.5823 43.0982 14.5517 43.0699 14.5211 43.0134C14.4905 42.9002 14.4293 42.8154 14.368 42.7305C14.3374 42.7023 14.3068 42.6457 14.2762 42.6174C14.215 42.5326 14.1538 42.4477 14.0925 42.3912C14.0619 42.3629 14.0313 42.3346 14.0007 42.3063C13.9089 42.2215 13.7864 42.1366 13.664 42.0518L12.1334 41.2316C12.0721 41.1751 11.9803 41.1468 11.9191 41.0902C11.8885 41.0619 11.8579 41.0336 11.8272 41.0054C11.766 40.9488 11.7048 40.8922 11.6742 40.8357C11.6436 40.8074 11.613 40.7791 11.5823 40.7508C11.5517 40.6943 11.4905 40.6377 11.4599 40.5529C11.4293 40.5246 11.4293 40.468 11.3987 40.4397C11.3681 40.3549 11.3374 40.2983 11.3068 40.2135C11.3068 40.1852 11.2762 40.1569 11.2762 40.1286C11.2456 40.0155 11.215 39.9024 11.1844 39.761C11.1844 39.7327 11.1844 39.7044 11.1844 39.7044C11.1538 39.5913 11.1538 39.4782 11.1538 39.365C11.1538 39.3085 11.1538 39.2802 11.1538 39.2236C11.1538 39.1388 11.1538 39.0257 11.1538 38.9408C11.1538 38.8842 11.1538 38.8277 11.1538 38.7711C11.1538 38.6863 11.1538 38.5732 11.1844 38.46C11.1844 38.4035 11.1844 38.3469 11.215 38.2903C11.2456 38.1772 11.2456 38.0641 11.2762 37.9792C11.2762 37.9227 11.3068 37.8944 11.3068 37.8378C11.3068 37.7813 11.3374 37.7247 11.3374 37.6681C11.3681 37.5833 11.3681 37.4984 11.3987 37.4136C11.3987 37.3853 11.4293 37.3288 11.4293 37.3005C11.4599 37.2156 11.4905 37.1025 11.5211 37.0177C11.5211 36.9894 11.5517 36.9328 11.5823 36.9045C11.613 36.7914 11.6742 36.6783 11.7354 36.5652C11.7354 36.5369 11.766 36.5369 11.766 36.5086C11.8272 36.3672 11.8885 36.2541 11.9497 36.1127C11.9803 36.0844 11.9803 36.0561 12.0109 36.0278C12.0721 35.8864 12.164 35.7733 12.2252 35.6319L17.5211 27.1757C17.6129 27.0343 17.7048 26.9211 17.766 26.7797C17.7966 26.7515 17.8272 26.7232 17.8272 26.6666C17.8884 26.5818 17.9497 26.4969 18.0109 26.4121C18.0415 26.3838 18.0721 26.3272 18.1027 26.2989C18.164 26.2141 18.2252 26.1575 18.2864 26.0727C18.317 26.0161 18.3782 25.9596 18.4089 25.9313C18.4395 25.8747 18.5007 25.8464 18.5313 25.7899C18.6231 25.705 18.715 25.6202 18.7762 25.5353C18.8374 25.4788 18.8986 25.4222 18.9599 25.3657C18.9905 25.3374 19.0517 25.2808 19.0823 25.2525C19.1435 25.196 19.2048 25.1394 19.2966 25.0828C19.3272 25.0546 19.3884 25.0263 19.4191 24.9697C19.4803 24.9132 19.5721 24.8566 19.6333 24.8C19.664 24.7717 19.6946 24.7435 19.7558 24.7152C19.8782 24.6303 19.9701 24.5738 20.0925 24.5172C20.2456 24.4324 20.3986 24.3758 20.5517 24.291C20.5823 24.2627 20.6435 24.2627 20.6742 24.2344C20.766 24.2061 20.8578 24.1778 20.9497 24.1496C21.0109 24.1496 21.0415 24.1213 21.1027 24.1213C21.1639 24.1213 21.1946 24.093 21.2558 24.093C21.317 24.093 21.3782 24.0647 21.4395 24.0647C21.4701 24.0647 21.5007 24.0647 21.5619 24.0647C21.6231 24.0647 21.715 24.0647 21.7762 24.0647C21.8068 24.0647 21.8374 24.0647 21.868 24.0647C21.9599 24.0647 22.0517 24.0647 22.1435 24.093H22.1741C22.266 24.1213 22.3272 24.1213 22.419 24.1496C22.4497 24.1496 22.4497 24.1496 22.4803 24.1778C22.5721 24.2061 22.6639 24.2344 22.7252 24.291L24.2864 24.998C24.3476 25.0263 24.4088 25.0546 24.4701 25.0828C24.5007 25.0828 24.5007 25.0828 24.5313 25.1111C24.5619 25.1111 24.5619 25.1394 24.5925 25.1394C24.6231 25.1394 24.6537 25.1677 24.6537 25.1677C24.715 25.196 24.7762 25.196 24.8374 25.196H24.868C24.9292 25.196 25.0211 25.2243 25.0823 25.2243C25.1129 25.2243 25.1129 25.2243 25.1435 25.2243C25.1741 25.2243 25.2048 25.2243 25.2354 25.2243C25.266 25.2243 25.2966 25.2243 25.3578 25.2243C25.3884 25.2243 25.419 25.2243 25.4496 25.2243C25.4803 25.2243 25.5109 25.2243 25.5721 25.2243C25.6027 25.2243 25.6027 25.2243 25.6333 25.2243C25.6639 25.2243 25.7252 25.196 25.7558 25.196C25.817 25.196 25.8476 25.1677 25.9088 25.1677C25.9394 25.1677 25.9394 25.1677 25.9701 25.1677C26.0007 25.1677 26.0313 25.1394 26.0619 25.1394C26.1537 25.1111 26.2456 25.0828 26.3374 25.0546C26.368 25.0546 26.3986 25.0263 26.4292 25.0263C26.4598 25.0263 26.4598 24.998 26.4905 24.998C26.6435 24.9414 26.7966 24.8566 26.9496 24.7717C27.0721 24.7152 27.1945 24.6303 27.317 24.5455C27.3476 24.5172 27.3782 24.4889 27.4394 24.4606C27.5313 24.4041 27.6231 24.3475 27.6843 24.291C27.7149 24.2627 27.7762 24.2344 27.8068 24.2061C27.8986 24.1495 27.9598 24.0647 28.0517 24.0081C28.0823 23.9799 28.1129 23.9516 28.1741 23.9233L28.2047 23.895C28.2966 23.8102 28.419 23.697 28.5109 23.6122C29.0619 23.0466 29.6129 22.5092 30.1639 22.0002C30.2864 21.887 30.4088 21.7739 30.5007 21.6608C30.5313 21.6042 30.5925 21.5759 30.6231 21.5194C30.6537 21.4911 30.6843 21.4628 30.7149 21.4062C30.7456 21.378 30.7762 21.3497 30.8068 21.2931C30.8986 21.18 30.9598 21.0951 31.0517 20.982C31.0823 20.9537 31.1129 20.9255 31.1129 20.8972C31.1435 20.8689 31.1435 20.8406 31.1741 20.8123C31.2047 20.7558 31.2353 20.7275 31.266 20.6709C31.3272 20.5861 31.3884 20.4729 31.4496 20.3881C31.4802 20.3598 31.5109 20.3033 31.5415 20.275C31.5415 20.2467 31.5721 20.2184 31.5721 20.2184C31.6027 20.1901 31.6027 20.1619 31.6333 20.1336C31.6945 20.0487 31.7558 19.9356 31.7864 19.8508C31.817 19.7942 31.8476 19.7093 31.8782 19.6528C31.8782 19.6245 31.9088 19.6245 31.9088 19.5962C31.9088 19.5679 31.9394 19.5679 31.9394 19.5397C32.0006 19.4265 32.0313 19.3417 32.0619 19.2286C32.0925 19.1437 32.1231 19.0589 32.1537 18.974C32.1537 18.9457 32.1537 18.9457 32.1843 18.9175V18.8892C32.2149 18.7761 32.2762 18.6629 32.3068 18.5498C32.3374 18.4932 32.3374 18.4084 32.368 18.3518C32.368 18.3235 32.3986 18.267 32.3986 18.2387C32.3986 18.2104 32.4292 18.1821 32.4292 18.1539C32.4598 17.9842 32.4904 17.8145 32.5211 17.6731C32.5211 17.6731 32.5211 17.6731 32.5211 17.6448C32.5517 17.4185 32.5823 17.1923 32.5517 16.9943V14.7884C32.5517 14.5904 32.5823 14.3924 32.5823 14.1662C32.5823 14.1096 32.5823 14.0813 32.6129 14.0248C32.6129 13.9399 32.6435 13.8268 32.6741 13.7419C32.6741 13.6854 32.7047 13.6288 32.7047 13.544C32.7047 13.4874 32.7353 13.4308 32.766 13.3743C32.7966 13.2894 32.7966 13.2046 32.8272 13.1197C32.8272 13.0632 32.8578 13.0349 32.8884 12.9783C32.919 12.8935 32.9496 12.7804 32.9802 12.6955C32.9802 12.6672 33.0109 12.6107 33.0109 12.5824C33.0721 12.441 33.1027 12.3279 33.1639 12.2147C33.1639 12.2147 33.1639 12.1864 33.1945 12.1864C33.2557 12.0733 33.317 11.9602 33.3782 11.8471C33.4088 11.8188 33.4088 11.7905 33.4394 11.7339C33.5006 11.6208 33.5619 11.536 33.6231 11.4228C33.6231 11.3946 33.6537 11.3946 33.6537 11.3663C33.7149 11.2532 33.8068 11.14 33.8986 10.9986C33.9292 10.9703 33.9598 10.9421 33.9598 10.8855C34.0211 10.8007 34.0823 10.7158 34.1435 10.631C34.1741 10.5744 34.2047 10.5461 34.2353 10.4896C34.2966 10.433 34.3578 10.3481 34.419 10.2916C34.4802 10.235 34.5108 10.1785 34.5721 10.1219C34.6333 10.0653 34.6639 10.0088 34.7251 9.98049C34.817 9.89564 34.8782 9.8108 34.97 9.72595C35.0006 9.69767 35.0619 9.64111 35.0925 9.61283C35.2762 9.47142 35.4292 9.30173 35.6129 9.1886C35.6435 9.16032 35.6741 9.13204 35.7047 9.13204C35.8884 8.99063 36.1027 8.87751 36.2864 8.76438L43.7863 4.7484C43.9394 4.66355 44.0925 4.60699 44.2455 4.52215C44.3067 4.49386 44.3373 4.49386 44.3986 4.46558C44.4904 4.4373 44.5822 4.40902 44.6741 4.38074C44.7353 4.35246 44.7965 4.35246 44.8271 4.32418C44.8884 4.32418 44.919 4.29589 44.9802 4.29589C45.0414 4.29589 45.1027 4.26761 45.1945 4.26761C45.2251 4.26761 45.2557 4.26761 45.3169 4.26761C45.4088 4.26761 45.47 4.26761 45.5618 4.26761C45.5924 4.26761 45.5924 4.26761 45.6231 4.26761C45.7149 4.26761 45.8067 4.29589 45.8986 4.29589C45.9292 4.29589 45.9292 4.29589 45.9598 4.32418C46.021 4.35246 46.1129 4.35246 46.1741 4.38074C46.2047 4.38074 46.2047 4.38074 46.2353 4.40902C46.3271 4.4373 46.3884 4.46558 46.4802 4.52215L42.1333 2.14649Z" fill="url(#paint6_linear)"/>
<defs>
<linearGradient id="paint0_linear" x1="27.3066" y1="80.294" x2="33.8773" y2="80.294" gradientUnits="userSpaceOnUse">
<stop stop-color="#7E5AFF"/>
<stop offset="0.4888" stop-color="#662EFF"/>
<stop offset="0.8021" stop-color="#7448FF"/>
<stop offset="1" stop-color="#7E5AFF"/>
</linearGradient>
<linearGradient id="paint1_linear" x1="63.0095" y1="18.9934" x2="74.7856" y2="18.9934" gradientUnits="userSpaceOnUse">
<stop stop-color="#7E5AFF"/>
<stop offset="0.4888" stop-color="#662EFF"/>
<stop offset="0.8021" stop-color="#7448FF"/>
<stop offset="1" stop-color="#7E5AFF"/>
</linearGradient>
<linearGradient id="paint2_linear" x1="25.1793" y1="43.9372" x2="55.2259" y2="43.9372" gradientUnits="userSpaceOnUse">
<stop stop-color="#7E5AFF"/>
<stop offset="0.4888" stop-color="#662EFF"/>
<stop offset="0.8021" stop-color="#7448FF"/>
<stop offset="1" stop-color="#7E5AFF"/>
</linearGradient>
<linearGradient id="paint3_linear" x1="6.88524" y1="74.7363" x2="14.8895" y2="74.7363" gradientUnits="userSpaceOnUse">
<stop stop-color="#7E5AFF"/>
<stop offset="0.4888" stop-color="#662EFF"/>
<stop offset="0.8021" stop-color="#7448FF"/>
<stop offset="1" stop-color="#7E5AFF"/>
</linearGradient>
<linearGradient id="paint4_linear" x1="44.3287" y1="5.87656" x2="68.0242" y2="5.87656" gradientUnits="userSpaceOnUse">
<stop stop-color="#7E5AFF"/>
<stop offset="0.4888" stop-color="#662EFF"/>
<stop offset="0.8021" stop-color="#7448FF"/>
<stop offset="1" stop-color="#7E5AFF"/>
</linearGradient>
<linearGradient id="paint5_linear" x1="-9.65327" y1="12.4675" x2="84.4612" y2="100.145" gradientUnits="userSpaceOnUse">
<stop stop-color="#D2CCFF"/>
<stop offset="0.5" stop-color="#9C88FF"/>
<stop offset="0.7032" stop-color="#B0A2FF"/>
<stop offset="0.9888" stop-color="#D2CCFF"/>
</linearGradient>
<linearGradient id="paint6_linear" x1="0.10388" y1="36.0651" x2="46.4662" y2="36.0651" gradientUnits="userSpaceOnUse">
<stop stop-color="#7E5AFF"/>
<stop offset="0.4888" stop-color="#662EFF"/>
<stop offset="0.8021" stop-color="#7448FF"/>
<stop offset="1" stop-color="#7E5AFF"/>
</linearGradient>
</defs>
</svg>
