<svg width="25" height="30" viewBox="0 0 25 30" fill="none" xmlns="http://www.w3.org/2000/svg">
<path d="M14.6858 2.90743C14.7165 2.90743 14.7472 2.90743 14.7676 2.90743C14.7881 2.91789 14.8187 2.91789 14.8392 2.9388L19.1956 1.33821C16.1309 -0.530563 16.4714 -0.308818 13.7472 1.17985L2.58442 7.70738C2.52309 7.73875 2.46177 7.78058 2.40044 7.82241C2.38 7.83287 2.35956 7.85378 2.33912 7.86424C2.29824 7.89561 2.25735 7.92698 2.21647 7.95836C2.19603 7.97927 2.17559 7.98973 2.15514 8.01064C2.11426 8.04202 2.0836 8.07339 2.05294 8.10476C2.0325 8.12567 2.01205 8.14658 1.99161 8.1675C1.98139 8.17796 1.96095 8.18842 1.95073 8.20934C1.94051 8.21979 1.92007 8.24071 1.90985 8.25116C1.86896 8.29299 1.82808 8.34528 1.7872 8.38711C1.77698 8.39757 1.75653 8.41849 1.74631 8.42894C1.73609 8.4394 1.72587 8.46031 1.71565 8.47077C1.69521 8.50214 1.66455 8.53351 1.6441 8.56489C1.62366 8.5858 1.61344 8.60672 1.593 8.62763C1.58278 8.64855 1.57256 8.659 1.55212 8.67992C1.53168 8.70083 1.52146 8.73221 1.50101 8.75312C1.49079 8.77404 1.48057 8.78449 1.46013 8.80541C1.43969 8.83678 1.41925 8.86815 1.39881 8.88907C1.38858 8.90998 1.37836 8.93089 1.35792 8.94135C1.35792 8.95181 1.3477 8.95181 1.3477 8.96227C1.31704 9.01455 1.27616 9.06684 1.24549 9.12958C1.24549 9.12958 1.24549 9.14004 1.23527 9.14004C1.22505 9.1505 1.22505 9.16096 1.21483 9.17141C1.19439 9.21324 1.17395 9.25507 1.15351 9.28644C1.14329 9.30736 1.13306 9.32827 1.12284 9.33873C1.11262 9.35965 1.1024 9.38056 1.09218 9.40148C1.08196 9.42239 1.07174 9.43285 1.07174 9.45376C1.0513 9.49559 1.03086 9.54788 1.01042 9.58971C1.01042 9.60017 1.00019 9.61062 1.00019 9.61062C1.00019 9.61062 1.00019 9.61063 1.00019 9.62108C0.979753 9.68383 0.94909 9.73611 0.928649 9.79886C0.928649 9.80931 0.918428 9.81977 0.918428 9.83023C0.908207 9.85114 0.908207 9.87206 0.897986 9.89297C0.887766 9.92435 0.877545 9.95572 0.867324 9.97663C0.857103 9.99755 0.857103 10.0185 0.846882 10.0394C0.836662 10.0707 0.826441 10.0917 0.826441 10.123C0.826441 10.144 0.81622 10.1544 0.81622 10.1753C0.805999 10.2067 0.805999 10.2381 0.795778 10.259C0.785558 10.2904 0.775337 10.3217 0.775337 10.3531C0.775337 10.3636 0.765116 10.374 0.765116 10.3845C0.765116 10.4054 0.754895 10.4368 0.754895 10.4577C0.744674 10.51 0.734454 10.5622 0.724233 10.6145C0.724233 10.625 0.714012 10.6459 0.714012 10.6564C0.714012 10.6877 0.703791 10.7191 0.703791 10.7505C0.703791 10.7714 0.703791 10.7923 0.69357 10.8237C0.68335 10.8969 0.68335 10.9701 0.68335 11.0328L0.744674 27.1576C0.744674 27.7642 0.959311 28.1929 1.2966 28.4021L3.25899 29.5628C2.92171 29.3641 2.70707 28.9354 2.70707 28.3184L2.64574 12.1936C2.64574 12.1204 2.64574 12.0472 2.65596 11.9845C2.65596 11.9635 2.65596 11.9426 2.66619 11.9113C2.66619 11.8694 2.67641 11.8171 2.68663 11.7753C2.69685 11.723 2.70707 11.6707 2.71729 11.6184C2.72751 11.5871 2.72751 11.5452 2.73773 11.5139C2.74795 11.4825 2.75817 11.4511 2.75817 11.4093C2.76839 11.3675 2.77861 11.3152 2.79906 11.2734C2.80928 11.242 2.8195 11.2211 2.8195 11.1897C2.83994 11.1374 2.85016 11.0851 2.8706 11.0328C2.88082 11.0119 2.88082 10.991 2.89104 10.9701C2.92171 10.8969 2.94215 10.8237 2.97281 10.7609C2.97281 10.7505 2.98303 10.74 2.98303 10.74C3.01369 10.6773 3.03413 10.6145 3.0648 10.5518C3.07502 10.5309 3.08524 10.51 3.09546 10.489C3.12612 10.4263 3.15678 10.374 3.18745 10.3113C3.19767 10.3008 3.19767 10.2904 3.20789 10.2799C3.24877 10.2172 3.28965 10.144 3.33054 10.0812C3.34076 10.0603 3.35098 10.0394 3.37142 10.0289C3.40208 9.98709 3.43275 9.9348 3.46341 9.89297C3.48385 9.87206 3.49407 9.84069 3.51451 9.81977C3.54517 9.77794 3.57584 9.74657 3.59628 9.70474C3.61672 9.67337 3.64738 9.642 3.66782 9.61062C3.68827 9.57925 3.71893 9.55834 3.73937 9.52697C3.78025 9.48514 3.82114 9.43285 3.86202 9.39102C3.89268 9.35965 3.91312 9.33873 3.94379 9.30736C3.96423 9.28644 3.98467 9.26553 4.00511 9.24461C4.03577 9.21324 4.07666 9.18187 4.10732 9.1505C4.12776 9.12958 4.1482 9.10867 4.16864 9.09821C4.20953 9.06684 4.25041 9.03547 4.29129 9.0041C4.31173 8.99364 4.33218 8.97272 4.35262 8.96227C4.41394 8.92044 4.47527 8.87861 4.53659 8.84724L14.4814 2.97017C14.5121 2.94926 14.5428 2.9388 14.5734 2.92834C14.5836 2.92834 14.5836 2.92834 14.5939 2.91789C14.6347 2.91789 14.6654 2.90743 14.6858 2.90743Z" fill="url(#paint0_linear)"/>
<path d="M19.6527 15.2261L19.6834 18.3942C19.6118 19.5968 18.7941 20.9981 17.7925 21.5837L4.53612 29.4163C3.4936 30.0333 2.63506 29.5313 2.63506 28.3078L2.57373 12.183C2.57373 10.9595 3.41184 9.45363 4.46458 8.83664L17.2144 1.43321C18.7003 0.641369 19.6527 0.926436 19.6527 2.79517V15.2261Z" fill="url(#paint1_linear)"/>
<path d="M12.1072 13.3251C12.0561 13.3251 11.9846 13.3565 11.913 13.3983L8.94901 15.312C8.70371 15.4689 8.48907 15.8244 8.45841 16.1172C8.43797 16.3264 8.52996 16.431 8.66283 16.431C8.72415 16.431 8.78548 16.3996 8.85702 16.3578L11.8108 14.4441C12.0561 14.2872 12.2708 13.9212 12.3014 13.6388C12.3321 13.4297 12.2401 13.3147 12.1072 13.3251Z" fill="#DBDBFF"/>
<path d="M5.05445 18.7737C5.11577 18.7737 5.1771 18.7423 5.24864 18.7005L7.52788 17.226C7.77318 17.0691 7.98782 16.7136 8.01848 16.4208C8.03892 16.2221 7.95716 16.1071 7.81406 16.1071C7.76296 16.1071 7.69141 16.1384 7.61987 16.1803L5.34063 17.6548C5.09533 17.8116 4.88069 18.1672 4.85003 18.46C4.82959 18.6691 4.91136 18.7737 5.05445 18.7737Z" fill="#DBDBFF"/>
<path d="M5.43297 16.5149L6.69013 15.6992C6.93543 15.5424 7.15006 15.1868 7.18073 14.894C7.20117 14.6953 7.1194 14.5803 6.97631 14.5907C6.91499 14.5907 6.85366 14.6221 6.78211 14.6639L5.51474 15.4796C5.26944 15.6365 5.0548 16.0025 5.03436 16.2848C5.01392 16.494 5.09568 16.609 5.23877 16.5986C5.3001 16.5881 5.36142 16.5672 5.43297 16.5149Z" fill="#DBDBFF"/>
<path d="M15.7557 9.83249L17.1968 8.90178C17.4421 8.74492 17.6568 8.38937 17.6874 8.09656C17.7079 7.89787 17.6159 7.78284 17.483 7.78284C17.4319 7.78284 17.3604 7.81421 17.2888 7.85604L15.8477 8.78675C15.6024 8.94361 15.3878 9.29916 15.3571 9.59197C15.3367 9.79066 15.4286 9.90569 15.5615 9.90569C15.6228 9.89523 15.6944 9.87432 15.7557 9.83249Z" fill="#DBDBFF"/>
<path d="M9.46542 17.8138L10.9066 16.8831C11.1519 16.7262 11.3665 16.3707 11.3972 16.0779C11.4176 15.8792 11.3256 15.7642 11.1927 15.7642C11.1416 15.7642 11.0701 15.7955 10.9985 15.8374L9.55741 16.7681C9.31211 16.9249 9.09747 17.2805 9.06681 17.5733C9.04637 17.772 9.13835 17.887 9.27122 17.887C9.33255 17.8766 9.4041 17.8556 9.46542 17.8138Z" fill="#DBDBFF"/>
<path d="M8.52972 17.8846C8.55016 17.686 8.45818 17.5709 8.32531 17.5709C8.2742 17.5709 8.20266 17.6023 8.13111 17.6441L5.16708 19.5578C4.92178 19.7147 4.70714 20.0702 4.6867 20.363C4.66626 20.5722 4.74803 20.6872 4.89112 20.6768C4.94222 20.6768 5.01377 20.6454 5.08531 20.6036L8.03913 18.6899C8.28442 18.533 8.49906 18.1775 8.52972 17.8846Z" fill="#DBDBFF"/>
<path d="M13.599 11.2232L14.3655 10.7317C14.6006 10.5749 14.8255 10.2089 14.8459 9.92652C14.8664 9.72782 14.7846 9.61279 14.6415 9.61279C14.5904 9.61279 14.5189 9.64416 14.4473 9.68599L13.6808 10.188C13.4355 10.3448 13.2208 10.7004 13.2004 10.9932C13.1799 11.1919 13.2617 11.3069 13.4048 11.3069C13.4661 11.2964 13.5274 11.2755 13.599 11.2232Z" fill="#DBDBFF"/>
<path d="M13.1289 13.5449C13.1903 13.5449 13.2516 13.5135 13.3231 13.4717L17.1866 10.9723C17.4319 10.8155 17.6465 10.4599 17.6772 10.1671C17.6976 9.96843 17.6057 9.85339 17.4728 9.85339C17.4217 9.85339 17.3501 9.88477 17.2786 9.9266L13.4049 12.4259C13.1596 12.5828 12.945 12.9383 12.9143 13.2311C12.9143 13.4298 12.9961 13.5449 13.1289 13.5449Z" fill="#DBDBFF"/>
<path d="M5.06156 22.5384C5.12289 22.5384 5.18421 22.507 5.25576 22.4652L9.11922 19.9659C9.36452 19.809 9.57916 19.4535 9.60982 19.1606C9.63026 18.962 9.53827 18.8469 9.4054 18.8469C9.3543 18.8469 9.28275 18.8783 9.21121 18.9201L5.33752 21.4194C5.09222 21.5763 4.87759 21.9319 4.84692 22.2247C4.84692 22.4234 4.92869 22.5384 5.06156 22.5384Z" fill="#DBDBFF"/>
<path d="M9.79676 11.1186C9.78654 11.3173 9.8683 11.4324 10.0012 11.4324C10.0625 11.4324 10.1238 11.401 10.1954 11.3592L15.3978 7.99187C15.6431 7.83501 15.8577 7.47945 15.8781 7.18665C15.8986 6.98796 15.8168 6.87292 15.6737 6.87292C15.6226 6.87292 15.5511 6.9043 15.4795 6.94613L10.2771 10.3239C10.0318 10.4703 9.8172 10.8258 9.79676 11.1186Z" fill="#DBDBFF"/>
<path d="M7.83463 14.465C7.81419 14.6741 7.90618 14.7892 8.03905 14.7787C8.09015 14.7787 8.1617 14.7473 8.23324 14.7055L12.0047 12.2585C12.25 12.1016 12.4647 11.7461 12.4851 11.4532C12.5055 11.2546 12.4238 11.1395 12.2807 11.1395C12.2296 11.1395 12.158 11.1709 12.0865 11.2127L8.32523 13.6598C8.07993 13.8166 7.86529 14.1826 7.83463 14.465Z" fill="#DBDBFF"/>
<path d="M5.21795 14.0784C5.19751 14.2771 5.27928 14.3921 5.42237 14.3921C5.48369 14.3921 5.54502 14.3607 5.61656 14.3189L8.5806 12.4052C8.82589 12.2483 9.04053 11.8823 9.06097 11.6C9.08141 11.4013 8.99965 11.2863 8.85656 11.2863C8.80545 11.2863 8.73391 11.3176 8.66236 11.3595L5.70855 13.2732C5.46325 13.43 5.24861 13.7856 5.21795 14.0784Z" fill="#DBDBFF"/>
<path d="M22.4322 20.533L21.6274 20.0613L21.898 20.2208L22.7028 20.6926L22.4322 20.533Z" fill="#9E6C2B"/>
<path d="M16.1677 27.5884V27.1514C16.1677 26.9363 16.0914 26.7837 15.9665 26.7074L15.1548 26.2356C15.2797 26.3119 15.356 26.4645 15.356 26.6796V27.1167C15.356 27.1999 15.3699 27.2693 15.3907 27.3317C15.4254 27.4358 15.4809 27.5121 15.5641 27.5607L16.3758 28.0324C16.244 27.9561 16.1677 27.8035 16.1677 27.5884Z" fill="url(#paint2_linear)"/>
<path d="M23.1258 14.4696C23.1258 14.4696 23.1189 14.4696 23.1258 14.4696C23.112 14.4626 23.0981 14.4557 23.0842 14.4488H23.0773C23.0703 14.4488 23.0703 14.4488 23.0634 14.4418C23.0565 14.4418 23.0495 14.4349 23.0426 14.4349C23.0356 14.4349 23.0287 14.4349 23.0218 14.428C23.0148 14.428 23.0148 14.428 23.0079 14.428H23.001C22.9871 14.428 22.9732 14.421 22.9593 14.421H22.9524C22.9385 14.421 22.9316 14.421 22.9177 14.421C22.9108 14.421 22.9108 14.421 22.9038 14.421C22.8969 14.421 22.89 14.421 22.883 14.421C22.8761 14.421 22.8691 14.421 22.8622 14.421C22.8553 14.421 22.8483 14.421 22.8414 14.428C22.8345 14.428 22.8206 14.4349 22.8136 14.4349C22.8067 14.4349 22.8067 14.4349 22.7998 14.4349C22.7928 14.4349 22.7859 14.4418 22.7859 14.4418C22.772 14.4488 22.7512 14.4557 22.7373 14.4557C22.7304 14.4557 22.7235 14.4626 22.7235 14.4626L22.7165 14.4696C22.6888 14.4835 22.661 14.4973 22.6263 14.5112L22.2448 14.7332C22.217 14.7471 22.1893 14.761 22.1685 14.7748C22.1546 14.7818 22.1476 14.7887 22.1338 14.7887C22.1199 14.7956 22.0991 14.8026 22.0852 14.8026C22.0783 14.8026 22.0644 14.8095 22.0575 14.8095C22.0505 14.8095 22.0366 14.8165 22.0297 14.8165C22.0158 14.8165 22.0089 14.8234 21.995 14.8234C21.9881 14.8234 21.9811 14.8234 21.9742 14.8234C21.9603 14.8234 21.9464 14.8234 21.9326 14.8234C21.9256 14.8234 21.9256 14.8234 21.9187 14.8234C21.8979 14.8234 21.884 14.8234 21.8701 14.8165C21.8632 14.8165 21.8632 14.8165 21.8563 14.8165C21.8424 14.8165 21.8285 14.8095 21.8146 14.8026C21.8077 14.8026 21.8077 14.8026 21.8008 14.7956C21.7869 14.7887 21.773 14.7818 21.7522 14.7748L22.5639 15.2466C22.5639 15.2466 22.5639 15.2466 22.5708 15.2466C22.5847 15.2535 22.5916 15.2605 22.6055 15.2605H22.6125C22.6194 15.2605 22.6194 15.2605 22.6263 15.2674C22.6333 15.2674 22.6402 15.2743 22.6402 15.2743C22.6471 15.2743 22.6541 15.2743 22.661 15.2813C22.668 15.2813 22.668 15.2813 22.6749 15.2813H22.6818C22.6957 15.2813 22.7096 15.2882 22.7235 15.2882C22.7235 15.2882 22.7235 15.2882 22.7304 15.2882C22.7373 15.2882 22.7373 15.2882 22.7443 15.2882C22.7512 15.2882 22.7651 15.2882 22.772 15.2882C22.779 15.2882 22.779 15.2882 22.7859 15.2882C22.7928 15.2882 22.7998 15.2882 22.8067 15.2882C22.8136 15.2882 22.8206 15.2882 22.8275 15.2882C22.8345 15.2882 22.8414 15.2882 22.8483 15.2813C22.8553 15.2813 22.8691 15.2743 22.8761 15.2743C22.883 15.2743 22.883 15.2743 22.89 15.2743C22.8969 15.2743 22.9038 15.2674 22.9038 15.2674C22.9177 15.2605 22.9385 15.2605 22.9524 15.2535C22.9593 15.2535 22.9663 15.2535 22.9663 15.2466C22.9732 15.2466 22.9801 15.2397 22.9871 15.2397C23.0148 15.2258 23.0356 15.2188 23.0634 15.198L23.445 14.976C23.4727 14.9622 23.5005 14.9483 23.5352 14.9344C23.5421 14.9275 23.556 14.9275 23.5629 14.9205C23.5768 14.9136 23.5976 14.9067 23.6115 14.9067C23.6184 14.9067 23.6323 14.8997 23.6392 14.8997C23.6462 14.8997 23.66 14.8928 23.667 14.8928C23.6808 14.8928 23.6947 14.8858 23.7017 14.8858C23.7086 14.8858 23.7155 14.8858 23.7225 14.8858C23.7363 14.8858 23.7502 14.8858 23.7641 14.8858H23.771C23.7918 14.8858 23.8057 14.8858 23.8196 14.8928C23.8265 14.8928 23.8265 14.8928 23.8335 14.8928C23.8473 14.8928 23.8612 14.8997 23.8682 14.9067C23.8751 14.9067 23.8751 14.9066 23.882 14.9136C23.8959 14.9205 23.9098 14.9275 23.9306 14.9344L23.1258 14.4696Z" fill="url(#paint3_linear)"/>
<path d="M20.2954 18.0493C20.2954 18.0285 20.2885 18.0077 20.2885 17.9869C20.2746 17.8898 20.2607 17.7926 20.2399 17.7025C20.233 17.6678 20.226 17.6331 20.2122 17.6053C20.1913 17.5221 20.1636 17.4458 20.1289 17.3694C20.122 17.3486 20.115 17.3278 20.1012 17.307C20.0595 17.2168 20.011 17.1266 19.9624 17.0503C19.9485 17.0295 19.9347 17.0156 19.9208 17.0018C19.8792 16.9393 19.8306 16.8838 19.782 16.8353C19.7612 16.8144 19.7404 16.7936 19.7196 16.7798C19.6641 16.7312 19.6086 16.6896 19.5462 16.6479C19.5323 16.641 19.5184 16.6271 19.5045 16.6202L18.6928 16.1484C18.7067 16.1554 18.7206 16.1692 18.7345 16.1762C18.7969 16.2178 18.8524 16.2594 18.9079 16.308C18.9287 16.3288 18.9495 16.3427 18.9703 16.3635C19.0189 16.4121 19.0675 16.4676 19.1091 16.53C19.123 16.5439 19.1368 16.5647 19.1507 16.5786C19.2062 16.6549 19.2478 16.7451 19.2895 16.8353C19.2964 16.8561 19.3033 16.8769 19.3172 16.8977C19.345 16.974 19.3727 17.0503 19.4005 17.1336C19.4074 17.1683 19.4213 17.196 19.4282 17.2307C19.449 17.3209 19.4698 17.418 19.4768 17.5151C19.4768 17.5359 19.4837 17.5568 19.4837 17.5776C19.4976 17.6886 19.5045 17.7996 19.5045 17.9175C19.5045 17.9314 19.5045 17.9522 19.5045 17.9661C19.5045 18.0008 19.5045 18.0355 19.4976 18.0701C19.4907 18.1742 19.4837 18.2783 19.4768 18.3893C19.4698 18.4378 19.4629 18.4864 19.456 18.5419C19.4421 18.6182 19.4282 18.7015 19.4143 18.7778C19.3935 18.8888 19.3727 18.9928 19.345 19.1038C19.345 19.1108 19.345 19.1177 19.338 19.1247C19.3172 19.2148 19.2895 19.305 19.2617 19.3952C19.2478 19.4577 19.227 19.5132 19.2062 19.5756C19.1854 19.6311 19.1715 19.6935 19.1507 19.749C19.1368 19.7976 19.116 19.8462 19.0952 19.9017C19.0605 19.9849 19.0328 20.0751 18.9981 20.1583C18.9842 20.2 18.9634 20.2416 18.9426 20.2763C18.9426 20.2832 18.9356 20.2902 18.9356 20.2902C18.9148 20.3318 18.894 20.3665 18.8732 20.4081C18.8038 20.526 18.7275 20.637 18.6512 20.755C18.6235 20.7966 18.5957 20.8382 18.568 20.8799C18.4847 21.0047 18.3945 21.1296 18.2974 21.2475L18.2558 21.31C18.228 21.3447 18.2072 21.3794 18.1795 21.4071C18.1517 21.4418 18.1309 21.4695 18.1031 21.5042C18.0546 21.5667 18.006 21.6222 17.9575 21.6777C17.9366 21.6985 17.9158 21.7193 17.895 21.747C17.8603 21.7817 17.8326 21.8164 17.7979 21.8511C17.7771 21.8719 17.7563 21.8997 17.7285 21.9205C17.7008 21.9482 17.673 21.976 17.6453 22.0037C17.5759 22.0731 17.5065 22.1356 17.4302 22.198L17.3955 22.2396C17.2984 22.3229 17.1943 22.4061 17.0903 22.4755C17.0764 22.4894 17.0556 22.4963 17.0417 22.5102C16.9376 22.5865 16.8336 22.6489 16.7156 22.7183C16.6393 22.7669 16.563 22.8016 16.4798 22.8362C16.4451 22.8571 16.4034 22.8779 16.3618 22.8917C16.3202 22.9056 16.2786 22.9264 16.2439 22.9403C16.2231 22.9472 16.2092 22.9542 16.1884 22.9611C16.1329 22.9819 16.0843 22.9958 16.0288 23.0097C15.9664 23.0236 15.9109 23.0374 15.8554 23.0513C15.8415 23.0513 15.8346 23.0582 15.8207 23.0582C15.7721 23.0652 15.7236 23.0721 15.675 23.0791C15.6681 23.0791 15.6681 23.0791 15.6611 23.0791C15.6126 23.086 15.5709 23.086 15.5224 23.086C15.4877 23.086 15.453 23.086 15.4183 23.086C15.1686 23.0791 14.9396 23.0166 14.7454 22.9056L15.5571 23.3774C15.564 23.3774 15.564 23.3843 15.5709 23.3843C15.5987 23.3982 15.6264 23.4121 15.6542 23.4259C15.6681 23.4329 15.6889 23.4398 15.7027 23.4468C15.7027 23.4468 15.7097 23.4468 15.7097 23.4537C15.7582 23.4745 15.8068 23.4884 15.8554 23.5023C15.9039 23.5161 15.9594 23.53 16.008 23.5369C16.0635 23.5439 16.119 23.5508 16.1745 23.5578C16.1884 23.5578 16.2092 23.5578 16.2231 23.5578C16.2577 23.5578 16.2924 23.5578 16.3271 23.5578C16.3341 23.5578 16.3479 23.5578 16.3549 23.5578C16.3896 23.5578 16.4243 23.5508 16.4659 23.5508C16.4728 23.5508 16.4728 23.5508 16.4798 23.5508C16.5075 23.5508 16.5353 23.5439 16.563 23.5369C16.5838 23.5369 16.6046 23.53 16.6254 23.5231C16.6393 23.5231 16.6463 23.5161 16.6601 23.5161C16.7087 23.5092 16.7503 23.4953 16.7989 23.4814C16.8128 23.4814 16.8266 23.4745 16.8336 23.4745C16.8891 23.4606 16.9376 23.4398 16.9931 23.4259C17.0139 23.419 17.0278 23.4121 17.0486 23.4051C17.0833 23.3913 17.1111 23.3843 17.1458 23.3704C17.1527 23.3635 17.1596 23.3635 17.1735 23.3566C17.2082 23.3427 17.2498 23.3149 17.2914 23.3011C17.3678 23.2664 17.4441 23.2317 17.5273 23.1831C17.6453 23.1137 17.7493 23.0444 17.8534 22.975C17.8673 22.9611 17.8881 22.9542 17.902 22.9403C18.006 22.864 18.1031 22.7877 18.2072 22.7044L18.2488 22.6697C18.3182 22.6073 18.3876 22.5379 18.4639 22.4755C18.4708 22.4686 18.4778 22.4616 18.4916 22.4547C18.5125 22.4339 18.5333 22.4131 18.5541 22.3922C18.5749 22.3714 18.5957 22.3437 18.6235 22.3229C18.6581 22.2882 18.6859 22.2535 18.7206 22.2188C18.7414 22.198 18.7622 22.1772 18.783 22.1494C18.79 22.1425 18.7969 22.1356 18.7969 22.1286C18.8385 22.0801 18.8871 22.0246 18.9287 21.976C18.9495 21.9482 18.9773 21.9205 18.9981 21.8858C18.9981 21.8858 18.9981 21.8858 19.005 21.8789C19.0328 21.8442 19.0536 21.8095 19.0813 21.7817L19.123 21.7193C19.1993 21.6152 19.2756 21.5112 19.3519 21.4071C19.3658 21.3863 19.3796 21.3655 19.3935 21.3516C19.4213 21.31 19.449 21.2684 19.4768 21.2267C19.5115 21.1782 19.5462 21.1227 19.5808 21.0741C19.6225 21.0117 19.6641 20.9492 19.6988 20.8799C19.7057 20.8729 19.7057 20.866 19.7127 20.859C19.7265 20.8382 19.7404 20.8174 19.7473 20.7897C19.7543 20.7827 19.7543 20.7689 19.7612 20.7619C19.7612 20.755 19.7682 20.748 19.7682 20.748C19.7682 20.7411 19.7751 20.7342 19.7751 20.7272C19.789 20.7064 19.7959 20.6856 19.8028 20.6579C19.8098 20.644 19.8098 20.637 19.8167 20.6232C19.8375 20.5746 19.8583 20.5191 19.8792 20.4705C19.893 20.4428 19.9 20.415 19.9069 20.3873C19.9208 20.3387 19.9416 20.2971 19.9555 20.2485C19.9693 20.2138 19.9832 20.1792 19.9902 20.1445C20.004 20.1098 20.011 20.082 20.0179 20.0473C20.0248 20.0127 20.0387 19.9849 20.0457 19.9502C20.0595 19.8947 20.0803 19.8462 20.0942 19.7907C20.1289 19.6588 20.1636 19.527 20.1913 19.3952C20.2052 19.3397 20.2122 19.2912 20.226 19.2357C20.2399 19.1593 20.2538 19.0761 20.2677 18.9998C20.2677 18.9859 20.2677 18.979 20.2746 18.9651C20.2815 18.9235 20.2815 18.8888 20.2885 18.8471C20.3023 18.7431 20.3093 18.6321 20.3093 18.528C20.3093 18.4933 20.3162 18.4586 20.3162 18.424C20.3162 18.4101 20.3162 18.3893 20.3162 18.3754C20.3162 18.2713 20.3093 18.1603 20.2954 18.0493Z" fill="url(#paint4_linear)"/>
<path d="M12.8583 25.5141C12.8583 25.4933 12.8583 25.4656 12.8583 25.4448C12.8583 25.4309 12.8583 25.4101 12.8583 25.3962C12.8583 25.3685 12.8513 25.3476 12.8444 25.3268C12.8444 25.313 12.8375 25.306 12.8375 25.2921C12.8305 25.2575 12.8166 25.2297 12.8028 25.202C12.7542 25.1118 12.7126 25.0216 12.671 24.9244C12.6363 24.8343 12.5808 24.7718 12.5114 24.7371L11.6997 24.2654C11.7691 24.307 11.8176 24.3694 11.8593 24.4527C11.9009 24.5498 11.9425 24.64 11.9911 24.7302C12.005 24.7579 12.0188 24.7926 12.0258 24.8204C12.0258 24.8343 12.0327 24.8412 12.0327 24.8551C12.0396 24.8759 12.0466 24.9036 12.0466 24.9244C12.0466 24.9383 12.0466 24.9522 12.0466 24.973C12.0466 24.9938 12.0535 25.0216 12.0466 25.0424C12.0466 25.0563 12.0466 25.0771 12.0396 25.0979C12.0396 25.1187 12.0396 25.1465 12.0327 25.1673C12.0327 25.1742 12.0327 25.1811 12.0258 25.195C12.0188 25.2297 12.0119 25.2575 12.005 25.2921C12.005 25.2991 11.998 25.306 11.998 25.313C11.9911 25.3476 11.9772 25.3893 11.9633 25.4309C11.9633 25.4378 11.9564 25.4378 11.9564 25.4448C11.9425 25.4864 11.9286 25.5211 11.9078 25.5627C11.9078 25.5696 11.9009 25.5696 11.9009 25.5766C11.8801 25.6182 11.8593 25.6598 11.8315 25.7015L11.561 26.1732C11.554 26.1871 11.5401 26.2079 11.5332 26.2218C11.5263 26.2287 11.5263 26.2426 11.5193 26.2495C11.5193 26.2565 11.5124 26.2634 11.5124 26.2703C11.5124 26.2773 11.5055 26.2773 11.5055 26.2842C11.4985 26.305 11.4846 26.3258 11.4777 26.3466C11.4777 26.3466 11.4777 26.3466 11.4777 26.3536C11.4777 26.3605 11.4777 26.3605 11.4708 26.3675C11.4638 26.3813 11.4569 26.3952 11.4499 26.416C11.4499 26.423 11.443 26.4299 11.443 26.4368C11.443 26.4438 11.4361 26.4507 11.4361 26.4646C11.4361 26.4715 11.4291 26.4785 11.4291 26.4854C11.4222 26.4993 11.4222 26.5062 11.4153 26.5201C11.4153 26.527 11.4083 26.534 11.4083 26.5478V26.5548C11.4014 26.5687 11.4014 26.5825 11.4014 26.5964C11.4014 26.6103 11.3944 26.6172 11.3944 26.6311V26.638C11.3944 26.645 11.3944 26.6519 11.3875 26.6588C11.3806 26.6797 11.3806 26.7005 11.3736 26.7213C11.3736 26.7282 11.3736 26.7282 11.3736 26.7352C11.3736 26.7421 11.3736 26.749 11.3736 26.756C11.3736 26.7768 11.3667 26.7976 11.3667 26.8184C11.3667 26.8323 11.3667 26.8392 11.3667 26.8531C11.3667 26.8739 11.3667 26.8947 11.3667 26.9086C11.3667 26.9155 11.3667 26.9294 11.3667 26.9363C11.3667 26.9572 11.3736 26.978 11.3736 26.9988C11.3736 27.0057 11.3736 27.0057 11.3736 27.0127C11.3806 27.0404 11.3875 27.0612 11.3944 27.089C11.3944 27.0959 11.4014 27.1028 11.4014 27.1098C11.4083 27.1237 11.4153 27.1445 11.4222 27.1583C11.4291 27.1653 11.4291 27.1722 11.4361 27.1792C11.443 27.193 11.4499 27.2069 11.4569 27.2138C11.4638 27.2208 11.4638 27.2277 11.4708 27.2347C11.4777 27.2485 11.4916 27.2555 11.4985 27.2693C11.5055 27.2763 11.5054 27.2763 11.5124 27.2832C11.5263 27.2971 11.5471 27.311 11.5679 27.3179L12.3796 27.7897C12.3588 27.7758 12.3449 27.7688 12.3241 27.755C12.3171 27.748 12.3171 27.748 12.3102 27.7411C12.2963 27.7272 12.2894 27.7203 12.2825 27.7064C12.2755 27.6995 12.2755 27.6925 12.2686 27.6856C12.2616 27.6717 12.2547 27.6578 12.2478 27.6509C12.2408 27.644 12.2408 27.637 12.2339 27.6301C12.227 27.6162 12.22 27.6023 12.2131 27.5815C12.2131 27.5746 12.2061 27.5677 12.2061 27.5607C12.1992 27.5399 12.1923 27.5122 12.1853 27.4844C12.1853 27.4775 12.1853 27.4775 12.1853 27.4705C12.1784 27.4497 12.1784 27.4289 12.1784 27.4081C12.1784 27.4012 12.1784 27.3873 12.1784 27.3803C12.1784 27.3595 12.1784 27.3457 12.1784 27.3248C12.1784 27.311 12.1784 27.304 12.1784 27.2902C12.1784 27.2693 12.1784 27.2485 12.1853 27.2277C12.1853 27.2138 12.1853 27.2069 12.1923 27.193C12.1923 27.1722 12.1992 27.1514 12.2061 27.1306C12.2061 27.1237 12.2061 27.1098 12.2131 27.1028C12.2131 27.089 12.22 27.082 12.22 27.0682C12.227 27.0543 12.227 27.0335 12.2339 27.0196C12.2339 27.0127 12.2408 27.0057 12.2408 26.9918C12.2478 26.971 12.2547 26.9572 12.2616 26.9363C12.2616 26.9294 12.2686 26.9225 12.2686 26.9155C12.2755 26.8947 12.2825 26.8739 12.2963 26.8462C12.2963 26.8392 12.2963 26.8392 12.3033 26.8323C12.3171 26.8045 12.3241 26.7837 12.338 26.756C12.338 26.749 12.3449 26.7421 12.3449 26.7352C12.3588 26.7074 12.3726 26.6866 12.3865 26.6588L12.6571 26.1871C12.664 26.1732 12.6779 26.1524 12.6848 26.1385C12.6918 26.1177 12.7056 26.0969 12.7126 26.083C12.7126 26.0761 12.7195 26.0691 12.7195 26.0622C12.7195 26.0553 12.7265 26.0553 12.7265 26.0483C12.7334 26.0414 12.7334 26.0275 12.7403 26.0206C12.7473 25.9998 12.7611 25.979 12.7681 25.9581C12.775 25.9512 12.775 25.9373 12.782 25.9304C12.782 25.9235 12.7889 25.9235 12.7889 25.9165C12.7889 25.9096 12.7958 25.9026 12.7958 25.8957C12.8028 25.8749 12.8097 25.8471 12.8166 25.8263C12.8166 25.8194 12.8236 25.8125 12.8236 25.7986C12.8236 25.7916 12.8305 25.7847 12.8305 25.7778C12.8305 25.7639 12.8375 25.757 12.8375 25.7431C12.8444 25.7223 12.8444 25.7015 12.8513 25.6737C12.8513 25.6668 12.8513 25.6598 12.8583 25.646V25.639C12.8583 25.6182 12.8583 25.5974 12.8652 25.5766C12.8513 25.5488 12.8583 25.535 12.8583 25.5141Z" fill="url(#paint5_linear)"/>
<path d="M21.3707 11.6321C21.3777 11.6321 21.3846 11.6252 21.3985 11.6252C21.4054 11.6252 21.4193 11.6182 21.4262 11.6182C21.4401 11.6182 21.4471 11.6113 21.4609 11.6113C21.4679 11.6113 21.4748 11.6113 21.4817 11.6113C21.4956 11.6113 21.5095 11.6113 21.5234 11.6113C21.5303 11.6113 21.5372 11.6113 21.5372 11.6113C21.5581 11.6113 21.5719 11.6113 21.5927 11.6182C21.5927 11.6182 21.5927 11.6182 21.5997 11.6182C21.6136 11.6182 21.6344 11.6252 21.6482 11.6321C21.6552 11.6321 21.6552 11.6321 21.6621 11.639C21.676 11.646 21.6968 11.6529 21.7107 11.6598L22.6958 12.2218L21.8841 11.75L20.899 11.1881C20.8851 11.1812 20.8782 11.1742 20.8643 11.1742C20.8574 11.1742 20.8574 11.1742 20.8504 11.1673C20.8435 11.1673 20.8435 11.1673 20.8366 11.1603C20.8296 11.1603 20.8296 11.1603 20.8227 11.1534C20.8088 11.1534 20.8019 11.1465 20.788 11.1465C20.788 11.1465 20.788 11.1465 20.7811 11.1465C20.7672 11.1465 20.7533 11.1395 20.7394 11.1395H20.7325C20.7256 11.1395 20.7186 11.1395 20.7186 11.1395C20.7117 11.1395 20.7047 11.1395 20.6978 11.1395C20.6909 11.1395 20.6839 11.1395 20.677 11.1395C20.6701 11.1395 20.6631 11.1395 20.6562 11.1395C20.6492 11.1395 20.6492 11.1395 20.6423 11.1395C20.6354 11.1395 20.6284 11.1395 20.6215 11.1465C20.6146 11.1465 20.6007 11.1534 20.5937 11.1534H20.5868C20.5799 11.1534 20.5729 11.1603 20.5729 11.1603C20.559 11.1673 20.5382 11.1742 20.5244 11.1812C20.5174 11.1812 20.5174 11.1812 20.5105 11.1881C20.5035 11.1881 20.5036 11.195 20.4966 11.195C20.4689 11.2089 20.4411 11.2228 20.4064 11.2367C20.3856 11.2505 20.3648 11.2644 20.344 11.2783C20.337 11.2852 20.3301 11.2852 20.3232 11.2922C20.3093 11.2991 20.2954 11.313 20.2815 11.3268C20.2746 11.3338 20.2677 11.3407 20.2607 11.3477C20.2469 11.3615 20.233 11.3685 20.226 11.3823C20.2191 11.3893 20.2122 11.3962 20.1983 11.4032C20.1914 11.4101 20.1844 11.417 20.1775 11.424C20.1705 11.4309 20.1705 11.4309 20.1636 11.4378C20.1497 11.4517 20.1289 11.4725 20.115 11.4864C20.1081 11.4933 20.1012 11.5003 20.1012 11.5072L20.0942 11.5142C20.0873 11.5211 20.0804 11.535 20.0665 11.5419C20.0595 11.5488 20.0526 11.5627 20.0457 11.5697C20.0457 11.5766 20.0387 11.5766 20.0387 11.5835C20.0318 11.5905 20.0249 11.5974 20.0179 11.6043C20.011 11.6113 20.004 11.6182 19.9971 11.6321C19.9902 11.639 19.9832 11.6529 19.9763 11.6598C19.9694 11.6668 19.9694 11.6737 19.9624 11.6807C19.9624 11.6876 19.9555 11.6876 19.9555 11.6945C19.9416 11.7153 19.9277 11.7362 19.9208 11.757V11.7639L19.6502 12.2357C19.6364 12.2634 19.6225 12.2842 19.6017 12.312C19.5947 12.3189 19.5947 12.3258 19.5878 12.3328C19.5739 12.3467 19.567 12.3675 19.5531 12.3813C19.5462 12.3883 19.5392 12.3952 19.5323 12.4091C19.5184 12.423 19.5115 12.4368 19.4976 12.4507C19.4907 12.4577 19.4837 12.4715 19.4699 12.4785C19.4629 12.4854 19.456 12.4993 19.449 12.5062C19.4352 12.5201 19.4213 12.5409 19.4005 12.5548C19.3866 12.5687 19.3797 12.5756 19.3658 12.5825C19.3589 12.5895 19.3519 12.5964 19.338 12.6034C19.3242 12.6172 19.3103 12.6242 19.3034 12.638C19.2964 12.645 19.2895 12.6519 19.2825 12.6589C19.2687 12.6727 19.2548 12.6797 19.2409 12.6935C19.234 12.7005 19.227 12.7005 19.2201 12.7074C19.1993 12.7213 19.1785 12.7352 19.1577 12.749C19.1299 12.7629 19.1022 12.7768 19.0675 12.7907C19.0605 12.7976 19.0467 12.7976 19.0397 12.8045C19.0258 12.8115 19.012 12.8184 18.9912 12.8184C18.9773 12.8254 18.9634 12.8254 18.9565 12.8254C18.9495 12.8254 18.9426 12.8323 18.9287 12.8323C18.9079 12.8392 18.8871 12.8392 18.8663 12.8392C18.7622 12.8462 18.6651 12.8531 18.561 12.867C18.5402 12.867 18.5194 12.8739 18.4986 12.8739C18.4917 12.8739 18.4917 12.8739 18.4847 12.8739C18.4639 12.8739 18.45 12.8739 18.4292 12.867C18.4084 12.867 18.3945 12.86 18.3737 12.8531C18.3668 12.8531 18.3668 12.8531 18.3598 12.8462C18.346 12.8392 18.3252 12.8323 18.3113 12.8254L19.123 13.2971C19.123 13.2971 19.123 13.2971 19.1299 13.2971C19.1438 13.304 19.1507 13.311 19.1646 13.311C19.1715 13.311 19.1715 13.311 19.1785 13.3179C19.1854 13.3179 19.1854 13.3179 19.1923 13.3249C19.1993 13.3249 19.1993 13.3249 19.2062 13.3318C19.2201 13.3387 19.234 13.3387 19.2479 13.3387C19.2617 13.3387 19.2756 13.3457 19.2825 13.3457C19.2895 13.3457 19.2964 13.3457 19.2964 13.3457C19.3034 13.3457 19.3034 13.3457 19.3103 13.3457C19.3172 13.3457 19.3172 13.3457 19.3242 13.3457C19.338 13.3457 19.3589 13.3457 19.3727 13.3387C19.4768 13.3249 19.5809 13.311 19.678 13.311C19.6919 13.311 19.7127 13.311 19.7265 13.304C19.7474 13.304 19.7682 13.2971 19.789 13.2902C19.8029 13.2902 19.8098 13.2832 19.8237 13.2763C19.8306 13.2763 19.8445 13.2694 19.8514 13.2624C19.8584 13.2624 19.8584 13.2624 19.8653 13.2555C19.8722 13.2555 19.8722 13.2485 19.8792 13.2485C19.9069 13.2347 19.9347 13.2208 19.9624 13.2069C19.9832 13.193 20.004 13.1792 20.0249 13.1653C20.0318 13.1584 20.0387 13.1584 20.0457 13.1514C20.0595 13.1445 20.0734 13.1306 20.0873 13.1167C20.0942 13.1098 20.1012 13.1029 20.1081 13.0959C20.122 13.082 20.1359 13.0751 20.1428 13.0612C20.1497 13.0543 20.1567 13.0474 20.1705 13.0404C20.1775 13.0335 20.1844 13.0265 20.1914 13.0196C20.1983 13.0127 20.1983 13.0127 20.2052 13.0057C20.2191 12.9919 20.2399 12.971 20.2538 12.9572C20.2607 12.9502 20.2677 12.9433 20.2677 12.9364L20.2746 12.9294C20.2815 12.9225 20.2885 12.9086 20.3024 12.9017C20.3093 12.8947 20.3162 12.8809 20.3232 12.8739C20.3232 12.867 20.3301 12.867 20.3301 12.86C20.337 12.8531 20.344 12.8462 20.3509 12.8323C20.3579 12.8254 20.3648 12.8184 20.3717 12.8115C20.3787 12.8045 20.3856 12.7907 20.3925 12.7837C20.3995 12.7768 20.3995 12.7699 20.4064 12.7629C20.4064 12.756 20.4134 12.756 20.4134 12.749C20.4272 12.7282 20.4342 12.7074 20.448 12.6935C20.448 12.6935 20.448 12.6935 20.448 12.6866L20.7186 12.2148C20.7325 12.1871 20.7533 12.1593 20.7672 12.1385C20.7741 12.1316 20.7741 12.1247 20.7811 12.1177C20.7949 12.0969 20.8019 12.083 20.8157 12.0692C20.8227 12.0622 20.8296 12.0553 20.8366 12.0414C20.8504 12.0275 20.8574 12.0137 20.8712 11.9998C20.8782 11.9928 20.8851 11.979 20.899 11.972C20.9059 11.9651 20.9129 11.9582 20.9198 11.9443C20.9337 11.9235 20.9545 11.9096 20.9684 11.8957C20.9822 11.8818 20.9892 11.8749 21.0031 11.861C21.01 11.8541 21.0169 11.8472 21.0308 11.8402C21.0447 11.8263 21.0586 11.8194 21.0655 11.8055C21.0724 11.7986 21.0794 11.7917 21.0863 11.7847C21.1002 11.7708 21.1141 11.7639 21.1279 11.75C21.1349 11.7431 21.1418 11.7431 21.1487 11.7362C21.1696 11.7223 21.1904 11.7084 21.2112 11.6945C21.2389 11.6807 21.2667 11.6668 21.3014 11.6529C21.3083 11.646 21.3152 11.646 21.3291 11.646C21.3361 11.646 21.3499 11.639 21.3707 11.6321Z" fill="url(#paint6_linear)"/>
<path d="M23.4381 14.9899C23.8197 14.7679 24.1319 14.9482 24.1319 15.3853L24.1388 16.981C24.1388 17.425 23.8336 17.9591 23.445 18.1812L23.0635 18.4032C22.7721 18.5697 22.5154 18.9235 22.4183 19.2912C22.3767 19.4368 22.335 19.5756 22.2934 19.7213C22.1755 20.0959 22.231 20.415 22.4322 20.533L22.7027 20.6925C22.9733 20.8452 22.9733 21.3516 22.7027 21.8234L21.7245 23.5161C21.5858 23.752 21.4123 23.9324 21.232 24.0365C21.0516 24.1405 20.8781 24.1613 20.7394 24.085L20.4688 23.9324C20.337 23.8561 20.1566 23.8769 19.9763 23.981C19.8791 24.0365 19.782 24.1197 19.6849 24.2168C19.5808 24.3278 19.4837 24.4388 19.3796 24.5429C19.1091 24.8135 18.9356 25.2158 18.9356 25.5419V25.979C18.9356 26.423 18.6234 26.9572 18.2419 27.1792L16.8544 27.9839C16.4728 28.2059 16.1606 28.0255 16.1606 27.5885V27.1514C16.1606 26.8184 15.9802 26.6311 15.7097 26.6658C15.6056 26.6797 15.5015 26.6935 15.4044 26.6935C15.3142 26.7005 15.2102 26.7282 15.113 26.7907C14.9327 26.8947 14.7592 27.0751 14.6274 27.304L14.3568 27.7758C14.225 28.0117 14.0447 28.1921 13.8643 28.2892C13.6839 28.3932 13.5105 28.4141 13.3717 28.3377L12.3866 27.7758C12.116 27.6232 12.116 27.1167 12.3866 26.645L12.6571 26.1732C12.8583 25.8194 12.9138 25.4309 12.7959 25.202C12.7473 25.1118 12.7057 25.0216 12.6641 24.9245C12.56 24.6747 12.3033 24.6192 12.0189 24.7857L11.6373 25.0077C11.2558 25.2297 10.9436 25.0493 10.9366 24.6123L10.9297 23.0166C10.9297 22.5726 11.2419 22.0384 11.6234 21.8164L12.005 21.5944C12.2964 21.4279 12.5531 21.0741 12.6502 20.7064C12.6918 20.5677 12.7335 20.422 12.7751 20.2763C12.893 19.9017 12.8375 19.5825 12.6363 19.4646L12.3658 19.305C12.0952 19.1524 12.0952 18.646 12.3658 18.1742L13.344 16.4814C13.4758 16.2456 13.6561 16.0652 13.8365 15.9681C14.0169 15.864 14.1903 15.8432 14.3291 15.9195L14.6066 16.0721C14.7384 16.1484 14.9188 16.1276 15.0992 16.0236C15.1963 15.9681 15.2934 15.8848 15.3836 15.7877C15.4877 15.6767 15.5848 15.5657 15.6889 15.4616C15.9594 15.1911 16.1329 14.7887 16.1329 14.4557V14.0186C16.1329 13.5746 16.4381 13.0404 16.8266 12.8184L18.2141 12.0137C18.5957 11.7917 18.9079 11.972 18.9148 12.4091V12.8462C18.9148 13.1792 19.0952 13.3734 19.3658 13.3318C19.4698 13.3179 19.5739 13.304 19.671 13.304C19.7612 13.2971 19.8653 13.2694 19.9624 13.2069C20.1428 13.1029 20.3162 12.9225 20.448 12.6935L20.7186 12.2218C20.8573 11.9859 21.0308 11.8055 21.2112 11.7015C21.3915 11.5974 21.565 11.5766 21.7037 11.6529L22.6889 12.2148C22.9594 12.3675 22.9594 12.8739 22.6889 13.3457L22.4183 13.8174C22.2171 14.1712 22.1616 14.5597 22.2795 14.7887C22.3281 14.8789 22.3697 14.9691 22.4113 15.0662C22.5154 15.3159 22.7721 15.3714 23.0635 15.2049L23.4381 14.9899ZM20.3162 18.4378C20.3162 18.424 20.3162 18.4032 20.3162 18.3893C20.3162 18.2713 20.3093 18.1603 20.2954 18.0493C20.2954 18.0285 20.2885 18.0077 20.2885 17.9869C20.2746 17.8898 20.2607 17.7926 20.2399 17.7025C20.233 17.6678 20.226 17.6331 20.2121 17.6053C20.1913 17.5221 20.1636 17.4458 20.1289 17.3695C20.122 17.3486 20.115 17.3278 20.1011 17.307C20.0595 17.2168 20.011 17.1266 19.9624 17.0503C19.9485 17.0295 19.9346 17.0156 19.9208 17.0018C19.8791 16.9393 19.8306 16.8838 19.782 16.8353C19.7612 16.8145 19.7404 16.7936 19.7196 16.7798C19.6641 16.7312 19.6086 16.6896 19.5461 16.6479C19.5323 16.641 19.5184 16.6271 19.5045 16.6202C19.4282 16.5786 19.3449 16.5369 19.2617 16.5092C19.2409 16.5023 19.2201 16.4953 19.1923 16.4884C19.1229 16.4676 19.0536 16.4537 18.9842 16.4468C18.9564 16.4468 18.9287 16.4398 18.9009 16.4398C18.8177 16.4329 18.7275 16.4329 18.6443 16.4398C18.6304 16.4398 18.6234 16.4398 18.6096 16.4398C18.5055 16.4468 18.4014 16.4676 18.2974 16.4953C18.2696 16.5023 18.2349 16.5092 18.2072 16.5231C18.1239 16.5439 18.0407 16.5716 17.9574 16.6063C17.9227 16.6202 17.895 16.6341 17.8603 16.6479C17.7493 16.6965 17.6314 16.752 17.5134 16.8214C17.2776 16.9601 17.0486 17.1266 16.8197 17.3209C15.8415 18.1742 15.0783 19.4993 14.8286 20.7689C14.447 22.6975 15.3489 23.9255 16.8336 23.5092C16.9446 23.4745 17.0556 23.4398 17.1666 23.3913C17.2012 23.3774 17.2429 23.3496 17.2845 23.3358C17.3608 23.3011 17.4371 23.2664 17.5204 23.2178C17.6383 23.1484 17.7424 23.0791 17.8464 23.0097C17.8603 22.9958 17.8811 22.9889 17.895 22.975C17.9991 22.8987 18.0962 22.8224 18.2003 22.7391L18.2419 22.7044C18.4778 22.4963 18.6998 22.2674 18.9079 22.0107C18.9564 21.9482 19.0119 21.8858 19.0605 21.8164L19.1021 21.754C19.3033 21.4904 19.4976 21.2059 19.678 20.9145C19.7265 20.8313 19.7681 20.748 19.8028 20.6579C19.9901 20.193 20.1289 19.7282 20.2191 19.2773C20.233 19.201 20.2468 19.1177 20.2607 19.0414C20.2676 18.9928 20.2746 18.9373 20.2815 18.8888C20.2954 18.7847 20.3023 18.6737 20.3023 18.5697C20.3093 18.5072 20.3162 18.4725 20.3162 18.4378Z" fill="#EBEBFF"/>
<path d="M17.8951 11.4864C17.8812 11.4795 17.8674 11.4726 17.8535 11.4656H17.8465C17.8396 11.4656 17.8396 11.4656 17.8327 11.4587C17.8257 11.4587 17.8188 11.4517 17.8119 11.4517C17.8049 11.4517 17.798 11.4517 17.791 11.4448C17.7841 11.4448 17.7841 11.4448 17.7772 11.4448H17.7702C17.7564 11.4448 17.7425 11.4379 17.7286 11.4379H17.7217C17.7078 11.4379 17.7009 11.4379 17.687 11.4379C17.68 11.4379 17.68 11.4379 17.6731 11.4379C17.6662 11.4379 17.6592 11.4379 17.6523 11.4379C17.6454 11.4379 17.6384 11.4379 17.6315 11.4379C17.6245 11.4379 17.6176 11.4379 17.6176 11.4448C17.6107 11.4448 17.5968 11.4517 17.5899 11.4517C17.5829 11.4517 17.5829 11.4517 17.576 11.4517C17.569 11.4517 17.5621 11.4587 17.5621 11.4587C17.5482 11.4656 17.5274 11.4726 17.5135 11.4726C17.5066 11.4726 17.4997 11.4795 17.4997 11.4795L17.4927 11.4864C17.465 11.5003 17.4372 11.5142 17.4025 11.5281L16.015 12.3328C15.9803 12.3536 15.9387 12.3814 15.904 12.4091C15.8971 12.4161 15.8902 12.4161 15.8832 12.423C15.8485 12.4508 15.8138 12.4785 15.7861 12.5063L15.7792 12.5132C15.7722 12.5201 15.7722 12.5271 15.7653 12.5271C15.7514 12.5409 15.7375 12.5618 15.7167 12.5756C15.7098 12.5826 15.7098 12.5826 15.7028 12.5895C15.6959 12.5964 15.6959 12.5964 15.689 12.6034C15.682 12.6173 15.6682 12.6242 15.6612 12.6381C15.6543 12.645 15.6473 12.6519 15.6404 12.6589C15.6335 12.6658 15.6335 12.6728 15.6265 12.6797C15.6196 12.6866 15.6127 12.7005 15.6057 12.7074C15.5988 12.7144 15.5988 12.7213 15.5918 12.7283C15.5849 12.7352 15.578 12.7491 15.571 12.7629C15.5641 12.7699 15.5641 12.7768 15.5571 12.7838L15.5502 12.7907C15.5363 12.8115 15.5225 12.8323 15.5155 12.8462C15.5155 12.8462 15.5155 12.8462 15.5155 12.8531C15.5155 12.8601 15.5086 12.8601 15.5086 12.867C15.5016 12.8809 15.4947 12.8948 15.4878 12.9086C15.4808 12.9156 15.4808 12.9225 15.4808 12.9294C15.4739 12.9364 15.4739 12.9433 15.467 12.9503C15.467 12.9572 15.46 12.9641 15.46 12.9711C15.4531 12.9849 15.4461 13.0058 15.4392 13.0196C15.4392 13.0196 15.4392 13.0266 15.4323 13.0266C15.4253 13.0474 15.4115 13.0682 15.4045 13.089C15.4045 13.0959 15.4045 13.0959 15.3976 13.1029C15.3976 13.1098 15.3906 13.1168 15.3906 13.1237C15.3837 13.1306 15.3837 13.1445 15.3768 13.1514C15.3768 13.1584 15.3698 13.1653 15.3698 13.1792C15.3698 13.1861 15.3629 13.2 15.3629 13.2069C15.3629 13.2139 15.356 13.2208 15.356 13.2278C15.356 13.2416 15.349 13.2486 15.349 13.2624C15.349 13.2763 15.3421 13.2833 15.3421 13.2971C15.3421 13.3041 15.3421 13.3041 15.3421 13.311C15.3421 13.3179 15.3421 13.3249 15.3351 13.3388C15.3282 13.3596 15.3282 13.3734 15.3282 13.3943C15.3282 13.4012 15.3282 13.4012 15.3282 13.4081C15.3282 13.4151 15.3282 13.4151 15.3282 13.422C15.3213 13.4636 15.3213 13.5053 15.3213 13.5469V13.984C15.3213 14.0256 15.3213 14.0672 15.3143 14.1158C15.3074 14.1574 15.3005 14.1921 15.2935 14.2337C15.2935 14.2406 15.2866 14.2476 15.2866 14.2545C15.2796 14.2961 15.2658 14.3308 15.2519 14.3725V14.3794C15.238 14.421 15.2241 14.4626 15.2033 14.5043C15.2033 14.5112 15.2033 14.5112 15.1964 14.5181C15.1756 14.5598 15.1617 14.5945 15.1409 14.6361C15.1409 14.643 15.134 14.643 15.134 14.65C15.1131 14.6846 15.0923 14.7263 15.0646 14.761C15.0646 14.7679 15.0576 14.7679 15.0576 14.7748C15.0368 14.8095 15.0091 14.8442 14.9813 14.8789C14.9744 14.8858 14.9675 14.8928 14.9675 14.8997C14.9397 14.9344 14.912 14.9691 14.8773 14.9968C14.7732 15.1009 14.6691 15.2119 14.572 15.3229C14.5512 15.3437 14.5304 15.3645 14.5096 15.3923C14.5026 15.3992 14.4957 15.4062 14.4888 15.4131C14.4749 15.427 14.461 15.4408 14.4402 15.4547C14.4333 15.4617 14.4263 15.4686 14.4194 15.4755C14.4055 15.4894 14.3916 15.4963 14.3708 15.5102C14.3639 15.5172 14.357 15.5172 14.35 15.5241C14.3292 15.538 14.3084 15.5518 14.2806 15.5657C14.2529 15.5796 14.2251 15.5935 14.1974 15.6073C14.1905 15.6143 14.1835 15.6143 14.1696 15.6143C14.1558 15.6212 14.135 15.6282 14.1211 15.6351C14.1141 15.6351 14.1003 15.642 14.0933 15.642C14.0864 15.642 14.0725 15.649 14.0656 15.649C14.0517 15.649 14.0448 15.6559 14.0309 15.6559C14.0239 15.6559 14.017 15.6559 14.0101 15.6559C13.9962 15.6559 13.9823 15.6559 13.9684 15.6559C13.9615 15.6559 13.9546 15.6559 13.9546 15.6559C13.9338 15.6559 13.9199 15.6559 13.906 15.649H13.8991C13.8852 15.649 13.8713 15.642 13.8574 15.6351C13.8505 15.6351 13.8505 15.6351 13.8436 15.6282C13.8297 15.6212 13.8089 15.6143 13.795 15.6073L13.5175 15.4547C13.5036 15.4478 13.4967 15.4408 13.4828 15.4408C13.4759 15.4408 13.4759 15.4408 13.4689 15.4339C13.462 15.4339 13.462 15.4339 13.4551 15.427C13.4481 15.427 13.4481 15.427 13.4412 15.42C13.4273 15.42 13.4204 15.4131 13.4065 15.4131C13.4065 15.4131 13.4065 15.4131 13.3996 15.4131C13.3857 15.4131 13.3718 15.4062 13.3579 15.4062H13.351C13.3441 15.4062 13.3371 15.4062 13.3371 15.4062C13.3302 15.4062 13.3233 15.4062 13.3163 15.4062C13.3094 15.4062 13.3024 15.4062 13.2955 15.4062C13.2886 15.4062 13.2816 15.4062 13.2747 15.4062C13.2678 15.4062 13.2678 15.4062 13.2608 15.4062C13.2539 15.4062 13.2469 15.4062 13.24 15.4131C13.2331 15.4131 13.2192 15.42 13.2123 15.42H13.2053C13.1984 15.42 13.1914 15.427 13.1914 15.427C13.1776 15.4339 13.1568 15.4408 13.1429 15.4478C13.1359 15.4478 13.1359 15.4478 13.129 15.4547C13.1221 15.4547 13.1221 15.4617 13.1151 15.4617C13.0874 15.4755 13.0596 15.4894 13.0249 15.5033C13.0041 15.5172 12.9833 15.531 12.9625 15.5449C12.9556 15.5518 12.9486 15.5518 12.9417 15.5588C12.9278 15.5657 12.9139 15.5796 12.9001 15.5935C12.8931 15.6004 12.8862 15.6073 12.8793 15.6143C12.8654 15.6282 12.8515 15.6351 12.8446 15.649C12.8376 15.6559 12.8307 15.6628 12.8168 15.6698C12.8099 15.6767 12.8029 15.6837 12.796 15.6906C12.7891 15.6975 12.7891 15.6975 12.7821 15.7045C12.7683 15.7183 12.7474 15.7392 12.7336 15.753C12.7266 15.76 12.7197 15.7669 12.7197 15.7738L12.7128 15.7808C12.7058 15.7877 12.6989 15.8016 12.6919 15.8085C12.685 15.8155 12.6781 15.8293 12.6711 15.8363C12.6711 15.8432 12.6642 15.8432 12.6642 15.8502C12.6573 15.8571 12.6503 15.864 12.6434 15.8779C12.6364 15.8848 12.6295 15.8918 12.6226 15.9057C12.6156 15.9126 12.6087 15.9265 12.6017 15.9334C12.5948 15.9403 12.5948 15.9473 12.5879 15.9542C12.5879 15.9612 12.5809 15.9612 12.5809 15.9681C12.5671 15.9889 12.5532 16.0097 12.5462 16.0305C12.5462 16.0305 12.5462 16.0375 12.5393 16.0375L11.5611 17.7302C11.5542 17.7441 11.5403 17.7649 11.5334 17.7788C11.5264 17.7857 11.5264 17.7927 11.5195 17.8065C11.5195 17.8135 11.5126 17.8204 11.5126 17.8274C11.5126 17.8343 11.5056 17.8343 11.5056 17.8412C11.4987 17.862 11.4848 17.8829 11.4779 17.9037C11.4779 17.9037 11.4779 17.9037 11.4779 17.9106C11.4779 17.9175 11.4779 17.9175 11.4709 17.9245C11.464 17.9384 11.4571 17.9592 11.4501 17.973C11.4501 17.98 11.4432 17.9869 11.4432 17.9939C11.4432 18.0008 11.4362 18.0077 11.4362 18.0147C11.4362 18.0216 11.4293 18.0285 11.4293 18.0355C11.4224 18.0494 11.4224 18.0563 11.4154 18.0702C11.4154 18.0771 11.4085 18.0841 11.4085 18.0979V18.1049C11.4016 18.1187 11.4016 18.1326 11.4016 18.1465C11.4016 18.1604 11.3946 18.1673 11.3946 18.1812V18.1881C11.3946 18.1951 11.3946 18.202 11.3877 18.2089C11.3807 18.2297 11.3807 18.2506 11.3738 18.2714C11.3738 18.2783 11.3738 18.2783 11.3738 18.2852C11.3738 18.2922 11.3738 18.2991 11.3738 18.3061C11.3738 18.3269 11.3669 18.3477 11.3669 18.3685C11.3669 18.3824 11.3669 18.3893 11.3669 18.4032C11.3669 18.424 11.3669 18.4448 11.3669 18.4587C11.3669 18.4656 11.3669 18.4795 11.3669 18.4864C11.3669 18.5072 11.3738 18.5281 11.3738 18.5489C11.3738 18.5558 11.3738 18.5558 11.3738 18.5627C11.3807 18.5905 11.3877 18.6113 11.3946 18.6391C11.3946 18.646 11.4016 18.6529 11.4016 18.6599C11.4085 18.6737 11.4154 18.6946 11.4224 18.7084C11.4293 18.7154 11.4293 18.7223 11.4362 18.7292C11.4432 18.7431 11.4501 18.757 11.4571 18.7639C11.464 18.7709 11.464 18.7778 11.4709 18.7847C11.4779 18.7986 11.4917 18.8056 11.4987 18.8194C11.5056 18.8264 11.5056 18.8264 11.5126 18.8333C11.5264 18.8472 11.5472 18.8611 11.5681 18.868L11.8525 19.0345C11.8733 19.0484 11.8872 19.0622 11.908 19.0761C11.9149 19.0831 11.9219 19.09 11.9219 19.0969C11.9357 19.1108 11.9496 19.1247 11.9566 19.1455C11.9635 19.1524 11.9635 19.1594 11.9704 19.1663C11.9843 19.1871 11.9912 19.2079 11.9982 19.2287C11.9982 19.2357 12.0051 19.2426 12.0051 19.2496C12.0121 19.2773 12.0259 19.3051 12.0259 19.3397C12.0259 19.3467 12.0259 19.3536 12.0259 19.3606C12.0329 19.3883 12.0329 19.4161 12.0329 19.4438C12.0329 19.4577 12.0329 19.4646 12.0329 19.4785C12.0329 19.5062 12.0329 19.5271 12.0329 19.5548C12.0329 19.5687 12.0329 19.5756 12.0329 19.5895C12.0259 19.6728 12.0051 19.756 11.9774 19.8462C11.9357 19.978 11.8941 20.1029 11.8594 20.2347C11.8525 20.2486 11.8525 20.2624 11.8456 20.2763C11.8317 20.3179 11.8178 20.3665 11.8039 20.4081V20.4151C11.7901 20.4567 11.7692 20.5053 11.7484 20.5469V20.5538C11.7276 20.5954 11.7068 20.6371 11.686 20.6718C11.686 20.6787 11.6791 20.6787 11.6791 20.6856C11.6582 20.7203 11.6305 20.755 11.6097 20.7897C11.6027 20.7966 11.6027 20.8036 11.5958 20.8036C11.5681 20.8383 11.5403 20.8729 11.5126 20.9076C11.5126 20.9146 11.5056 20.9146 11.5056 20.9215C11.4848 20.9493 11.4571 20.977 11.4293 20.9978C11.4085 21.0186 11.3807 21.0395 11.3599 21.0603C11.3461 21.0672 11.3391 21.0811 11.3252 21.088C11.2906 21.1158 11.2489 21.1435 11.2142 21.1643L10.8327 21.3863C10.798 21.4071 10.7564 21.4349 10.7217 21.4626C10.7147 21.4696 10.7078 21.4696 10.7009 21.4765C10.6662 21.5043 10.6315 21.532 10.6037 21.5598L10.5968 21.5667C10.5899 21.5736 10.5899 21.5806 10.5829 21.5806C10.569 21.5945 10.5552 21.6153 10.5344 21.6291C10.5274 21.6361 10.5274 21.6361 10.5205 21.643C10.5135 21.65 10.5135 21.65 10.5066 21.6569C10.4997 21.6708 10.4858 21.6777 10.4789 21.6916C10.4719 21.6985 10.465 21.7055 10.458 21.7124C10.4511 21.7193 10.4511 21.7263 10.4442 21.7332C10.4372 21.7401 10.4303 21.7471 10.4234 21.761C10.4164 21.7679 10.4164 21.7748 10.4095 21.7818C10.4025 21.7887 10.3956 21.8026 10.3887 21.8165C10.3817 21.8234 10.3817 21.8303 10.3748 21.8373L10.3679 21.8442C10.354 21.865 10.3401 21.8858 10.3332 21.8997C10.3332 21.8997 10.3332 21.8997 10.3332 21.9066C10.3332 21.9136 10.3262 21.9136 10.3262 21.9205C10.3193 21.9344 10.3124 21.9483 10.3054 21.9621C10.2985 21.9691 10.2985 21.976 10.2985 21.983C10.2915 21.9899 10.2915 21.9968 10.2846 22.0038C10.2846 22.0107 10.2777 22.0176 10.2777 22.0246C10.2707 22.0385 10.2638 22.0593 10.2569 22.0731C10.2569 22.0731 10.2569 22.0801 10.2499 22.0801C10.243 22.1009 10.2291 22.1217 10.2222 22.1425C10.2222 22.1495 10.2222 22.1495 10.2152 22.1564C10.2152 22.1633 10.2083 22.1703 10.2083 22.1772C10.2014 22.1911 10.2014 22.198 10.1944 22.2119C10.1944 22.2188 10.1875 22.2258 10.1875 22.2396C10.1875 22.2466 10.1805 22.2605 10.1805 22.2674C10.1805 22.2743 10.1736 22.2813 10.1736 22.2882C10.1736 22.3021 10.1667 22.309 10.1667 22.3229C10.1667 22.3368 10.1597 22.3437 10.1597 22.3576C10.1597 22.3645 10.1597 22.3645 10.1597 22.3715C10.1597 22.3784 10.1597 22.3853 10.1528 22.3992C10.1459 22.42 10.1459 22.4339 10.1459 22.4547C10.1459 22.4617 10.1459 22.4617 10.1459 22.4686C10.1459 22.4755 10.1459 22.4755 10.1459 22.4825C10.1389 22.5241 10.1389 22.5657 10.1389 22.6073L10.1459 24.203C10.1459 24.425 10.2222 24.5776 10.347 24.647L11.1587 25.1187C11.0339 25.0494 10.9575 24.8898 10.9575 24.6747L10.9506 23.0791C10.9506 23.0375 10.9506 22.9958 10.9575 22.9542C10.9575 22.9473 10.9575 22.9334 10.9645 22.9265C10.9645 22.9057 10.9714 22.8918 10.9714 22.871C10.9714 22.8571 10.9784 22.8432 10.9784 22.8363C10.9784 22.8224 10.9853 22.8155 10.9853 22.8016C10.9922 22.7877 10.9922 22.7669 10.9992 22.753C10.9992 22.7461 11.0061 22.7322 11.0061 22.7253C11.013 22.7045 11.02 22.6906 11.0269 22.6698C11.0269 22.6628 11.0339 22.6559 11.0339 22.649C11.0408 22.6212 11.0547 22.6004 11.0616 22.5727C11.0616 22.5727 11.0616 22.5657 11.0685 22.5657C11.0755 22.5449 11.0894 22.5241 11.1032 22.4963C11.1032 22.4894 11.1102 22.4825 11.1171 22.4755C11.131 22.4547 11.1379 22.4339 11.1518 22.4131C11.1518 22.4062 11.1587 22.4062 11.1587 22.3992C11.1726 22.3784 11.1865 22.3506 11.2004 22.3298C11.2073 22.3229 11.2073 22.316 11.2142 22.309C11.2281 22.2952 11.2351 22.2743 11.2489 22.2605C11.2559 22.2535 11.2628 22.2396 11.2697 22.2327C11.2767 22.2188 11.2906 22.205 11.3044 22.1911C11.3114 22.1772 11.3252 22.1703 11.3322 22.1564C11.3391 22.1495 11.353 22.1356 11.3599 22.1286C11.3738 22.1148 11.3877 22.094 11.4085 22.0801C11.4154 22.0731 11.4224 22.0662 11.4293 22.0593C11.464 22.0315 11.4917 21.9968 11.5264 21.976C11.5334 21.9691 11.5403 21.9691 11.5472 21.9621C11.5819 21.9344 11.6166 21.9136 11.6582 21.8858L12.0398 21.6638C12.0814 21.643 12.1161 21.6153 12.1508 21.5875C12.1647 21.5806 12.1716 21.5667 12.1855 21.5598C12.2132 21.539 12.2341 21.5181 12.2549 21.4973C12.2618 21.4904 12.2618 21.4904 12.2687 21.4904C12.2896 21.4696 12.3104 21.4488 12.3312 21.421C12.3312 21.4141 12.3381 21.4141 12.3451 21.4071C12.3659 21.3863 12.3797 21.3655 12.4006 21.3378C12.4075 21.3308 12.4144 21.317 12.4214 21.31C12.4283 21.3031 12.4283 21.3031 12.4352 21.2961C12.4422 21.2892 12.4422 21.2892 12.4491 21.2823C12.463 21.2615 12.4769 21.2406 12.4907 21.2198C12.4977 21.2129 12.5046 21.199 12.5116 21.1851C12.5116 21.1782 12.5185 21.1782 12.5185 21.1713C12.5185 21.1643 12.5254 21.1643 12.5254 21.1574C12.5393 21.1366 12.5462 21.1158 12.5601 21.1019C12.5671 21.088 12.574 21.0741 12.5809 21.0533V21.0464C12.5809 21.0464 12.5809 21.0464 12.5809 21.0395C12.5879 21.0186 12.6017 20.9978 12.6087 20.977C12.6156 20.9562 12.6226 20.9354 12.6364 20.9146C12.6364 20.9146 12.6364 20.9146 12.6364 20.9076V20.9007C12.6434 20.8799 12.6503 20.866 12.6573 20.8452C12.6642 20.8244 12.6711 20.7966 12.6781 20.7758V20.7689C12.7197 20.6301 12.7613 20.4844 12.8029 20.3388C12.8099 20.3179 12.8168 20.3041 12.8168 20.2833C12.8238 20.2555 12.8307 20.2278 12.8376 20.2C12.8446 20.1653 12.8515 20.1376 12.8515 20.1029C12.8515 20.0959 12.8515 20.089 12.8515 20.0821C12.8515 20.0682 12.8515 20.0543 12.8515 20.0474C12.8515 20.0196 12.8515 19.9919 12.8515 19.9711C12.8515 19.9572 12.8515 19.9503 12.8515 19.9364C12.8515 19.9086 12.8446 19.8809 12.8446 19.8531C12.8446 19.8462 12.8446 19.8393 12.8446 19.8323C12.8376 19.7976 12.8307 19.7699 12.8238 19.7421C12.8238 19.7352 12.8168 19.7283 12.8168 19.7213C12.8099 19.7005 12.796 19.6797 12.7891 19.6589C12.7821 19.6519 12.7821 19.645 12.7752 19.6381C12.7613 19.6242 12.7544 19.6034 12.7405 19.5895C12.7336 19.5826 12.7266 19.5756 12.7266 19.5687C12.7058 19.5479 12.685 19.534 12.6642 19.5201L12.3797 19.3536C12.3659 19.3467 12.352 19.3328 12.3381 19.3259C12.3312 19.3189 12.3312 19.3189 12.3242 19.312C12.3104 19.2981 12.3034 19.2912 12.2965 19.2773C12.2896 19.2704 12.2896 19.2634 12.2826 19.2565C12.2757 19.2426 12.2687 19.2287 12.2618 19.2218C12.2549 19.2149 12.2549 19.2079 12.2479 19.201C12.241 19.1871 12.2341 19.1732 12.2271 19.1524C12.2271 19.1455 12.2202 19.1386 12.2202 19.1316C12.2132 19.1108 12.2063 19.0831 12.1994 19.0553C12.1994 19.0484 12.1994 19.0484 12.1994 19.0414C12.1924 19.0206 12.1924 18.9998 12.1924 18.979C12.1924 18.9721 12.1924 18.9582 12.1924 18.9512C12.1924 18.9304 12.1924 18.9166 12.1924 18.8957C12.1924 18.8819 12.1924 18.8749 12.1924 18.8611C12.1924 18.8402 12.1924 18.8194 12.1994 18.7986C12.1994 18.7847 12.1994 18.7778 12.2063 18.7639C12.2063 18.7431 12.2132 18.7223 12.2202 18.7015C12.2202 18.6946 12.2202 18.6807 12.2271 18.6737C12.2271 18.6599 12.2341 18.6529 12.2341 18.6391C12.241 18.6252 12.241 18.6044 12.2479 18.5905C12.2479 18.5836 12.2549 18.5766 12.2549 18.5627C12.2618 18.5419 12.2687 18.5281 12.2757 18.5072C12.2757 18.5003 12.2826 18.4934 12.2826 18.4864C12.2896 18.4656 12.2965 18.4379 12.3104 18.4171C12.3104 18.4101 12.3104 18.4101 12.3173 18.4032C12.3312 18.3754 12.3381 18.3477 12.352 18.3269C12.352 18.3199 12.3589 18.313 12.3589 18.3061C12.3728 18.2783 12.3867 18.2575 12.4006 18.2297L13.3788 16.537C13.3926 16.5092 13.4134 16.4815 13.4273 16.4607C13.4343 16.4537 13.4343 16.4468 13.4412 16.4398C13.4551 16.419 13.462 16.4052 13.4759 16.3913C13.4828 16.3843 13.4898 16.3774 13.4967 16.3635C13.5106 16.3497 13.5175 16.3358 13.5314 16.3219C13.5383 16.315 13.5453 16.3011 13.5522 16.2942C13.5591 16.2872 13.5661 16.2733 13.573 16.2664C13.5869 16.2456 13.6077 16.2317 13.6216 16.2178C13.6354 16.204 13.6424 16.197 13.6563 16.1832C13.6632 16.1762 13.6701 16.1693 13.684 16.1623C13.6979 16.1485 13.7118 16.1415 13.7187 16.1277C13.7256 16.1207 13.7326 16.1138 13.7395 16.1068C13.7534 16.093 13.7673 16.086 13.7811 16.0722C13.7881 16.0652 13.795 16.0652 13.8019 16.0583C13.8228 16.0444 13.8436 16.0305 13.8644 16.0167C13.8921 16.0028 13.9199 15.9889 13.9546 15.975C13.9615 15.9681 13.9684 15.9681 13.9823 15.9681C13.9962 15.9612 14.017 15.9542 14.0309 15.9473C14.0378 15.9473 14.0448 15.9403 14.0586 15.9403C14.0656 15.9403 14.0795 15.9334 14.0864 15.9334C14.1003 15.9334 14.1072 15.9265 14.1211 15.9265C14.128 15.9265 14.135 15.9265 14.1419 15.9265C14.1558 15.9265 14.1696 15.9265 14.1835 15.9265C14.1905 15.9265 14.1974 15.9265 14.1974 15.9265C14.2182 15.9265 14.2321 15.9265 14.2529 15.9334C14.2529 15.9334 14.2529 15.9334 14.2598 15.9334C14.2737 15.9334 14.2876 15.9403 14.3084 15.9473C14.3153 15.9473 14.3153 15.9473 14.3223 15.9542C14.3361 15.9612 14.357 15.9681 14.3708 15.975L14.6483 16.1277C14.6622 16.1346 14.6691 16.1415 14.683 16.1415C14.69 16.1415 14.69 16.1415 14.6969 16.1485C14.7038 16.1485 14.7038 16.1485 14.7108 16.1554C14.7177 16.1554 14.7177 16.1554 14.7246 16.1623C14.7316 16.1623 14.7455 16.1693 14.7593 16.1693H14.7663C14.7801 16.1693 14.794 16.1762 14.8079 16.1762H14.8148C14.8218 16.1762 14.8287 16.1762 14.8287 16.1762C14.8356 16.1762 14.8426 16.1762 14.8495 16.1762C14.8565 16.1762 14.8634 16.1762 14.8703 16.1762C14.8773 16.1762 14.8842 16.1762 14.8911 16.1762C14.8981 16.1762 14.8981 16.1762 14.905 16.1762C14.912 16.1762 14.9189 16.1762 14.9258 16.1693C14.9328 16.1693 14.9466 16.1623 14.9536 16.1623H14.9605C14.9675 16.1623 14.9744 16.1554 14.9744 16.1554C14.9883 16.1485 15.0091 16.1415 15.023 16.1415C15.0299 16.1415 15.0299 16.1415 15.0368 16.1346C15.0438 16.1346 15.0438 16.1277 15.0507 16.1277C15.0785 16.1138 15.1062 16.0999 15.134 16.086C15.1548 16.0722 15.1756 16.0583 15.2033 16.0444C15.2103 16.0375 15.2172 16.0375 15.2241 16.0305C15.238 16.0167 15.2519 16.0097 15.2727 15.9958C15.2796 15.9889 15.2866 15.982 15.2935 15.975C15.3074 15.9612 15.3213 15.9473 15.3421 15.9334C15.349 15.9265 15.356 15.9195 15.3629 15.9126L15.3698 15.9057C15.3906 15.8848 15.4045 15.871 15.4253 15.8502C15.5294 15.7392 15.6265 15.6282 15.7306 15.5241C15.7514 15.5033 15.7722 15.4755 15.793 15.4547C15.8 15.4478 15.8069 15.4339 15.8138 15.427C15.8208 15.42 15.8277 15.4131 15.8277 15.4062C15.8347 15.3992 15.8416 15.3923 15.8416 15.3853C15.8555 15.3645 15.8693 15.3437 15.8902 15.3229C15.8971 15.316 15.8971 15.309 15.904 15.3021C15.904 15.2952 15.911 15.2952 15.911 15.2882C15.9179 15.2813 15.9248 15.2674 15.9318 15.2605C15.9457 15.2396 15.9526 15.2188 15.9665 15.205C15.9734 15.198 15.9734 15.1911 15.9803 15.1772C15.9803 15.1703 15.9873 15.1703 15.9873 15.1633C15.9942 15.1564 15.9942 15.1495 16.0012 15.1425C16.0081 15.1217 16.022 15.1009 16.0289 15.087C16.0358 15.0731 16.0428 15.0593 16.0497 15.0454C16.0497 15.0385 16.0497 15.0385 16.0567 15.0315C16.0567 15.0246 16.0567 15.0246 16.0636 15.0176C16.0705 14.9968 16.0844 14.976 16.0913 14.9552C16.0983 14.9413 16.1052 14.9205 16.1122 14.9066V14.8997V14.8928C16.1191 14.872 16.126 14.8442 16.133 14.8234C16.1399 14.8095 16.1399 14.7956 16.1399 14.7818C16.1399 14.7748 16.1468 14.7679 16.1468 14.761C16.1468 14.754 16.1468 14.7471 16.1538 14.7401C16.1607 14.7055 16.1677 14.6777 16.1677 14.643C16.1746 14.6014 16.1746 14.5528 16.1746 14.5112V14.0741C16.1746 14.0325 16.1746 13.9909 16.1815 13.9493C16.1815 13.9423 16.1815 13.9285 16.1885 13.9215C16.1885 13.9007 16.1954 13.8868 16.1954 13.866C16.1954 13.8521 16.2023 13.8383 16.2023 13.8313C16.2023 13.8174 16.2093 13.8105 16.2093 13.7966C16.2162 13.7828 16.2162 13.7619 16.2232 13.7481C16.2232 13.7411 16.2301 13.7273 16.2301 13.7203C16.237 13.6995 16.244 13.6856 16.2509 13.6648C16.2509 13.6579 16.2578 13.6509 16.2578 13.644C16.2648 13.6163 16.2787 13.5954 16.2856 13.5677C16.2856 13.5677 16.2856 13.5608 16.2925 13.5608C16.2995 13.5399 16.3133 13.5122 16.3272 13.4914C16.3272 13.4844 16.3342 13.4775 16.3411 13.4706C16.355 13.4498 16.3619 13.4289 16.3758 13.4081C16.3758 13.4012 16.3827 13.4012 16.3827 13.3943C16.3966 13.3734 16.4105 13.3457 16.4243 13.3249C16.4313 13.3179 16.4313 13.311 16.4382 13.3041C16.4521 13.2902 16.459 13.2694 16.4729 13.2555C16.4798 13.2486 16.4868 13.2347 16.4937 13.2278C16.5007 13.2139 16.5145 13.2 16.5284 13.1861C16.5353 13.1723 16.5492 13.1653 16.5562 13.1514C16.5631 13.1445 16.577 13.1306 16.5839 13.1237C16.5978 13.1098 16.6117 13.089 16.6325 13.0751C16.6394 13.0682 16.6463 13.0613 16.6533 13.0543C16.688 13.0266 16.7157 12.9919 16.7504 12.9711C16.7573 12.9641 16.7643 12.9641 16.7712 12.9572C16.8059 12.9294 16.8406 12.9086 16.8822 12.8809L18.2697 12.0761C18.2975 12.0622 18.3252 12.0484 18.3599 12.0345C18.3669 12.0276 18.3807 12.0276 18.3877 12.0206C18.4015 12.0137 18.4224 12.0067 18.4362 12.0067C18.4432 12.0067 18.457 11.9998 18.464 11.9998C18.4709 11.9998 18.4848 11.9929 18.4917 11.9929C18.5056 11.9929 18.5195 11.9859 18.5264 11.9859C18.5334 11.9859 18.5403 11.9859 18.5472 11.9859C18.5611 11.9859 18.575 11.9859 18.5889 11.9859H18.5958C18.6166 11.9859 18.6305 11.9859 18.6444 11.9929C18.6513 11.9929 18.6513 11.9929 18.6582 11.9929C18.6721 11.9929 18.686 11.9998 18.6999 12.0067C18.7068 12.0067 18.7068 12.0067 18.7137 12.0137C18.7276 12.0206 18.7415 12.0276 18.7623 12.0345L17.8951 11.4864Z" fill="url(#paint7_linear)"/>
<defs>
<linearGradient id="paint0_linear" x1="0.693488" y1="14.7802" x2="19.1967" y2="14.7802" gradientUnits="userSpaceOnUse">
<stop stop-color="#7E5AFF"/>
<stop offset="0.4888" stop-color="#662EFF"/>
<stop offset="0.8021" stop-color="#7448FF"/>
<stop offset="1" stop-color="#7E5AFF"/>
</linearGradient>
<linearGradient id="paint1_linear" x1="-0.794715" y1="4.34429" x2="28.7435" y2="23.5912" gradientUnits="userSpaceOnUse">
<stop stop-color="#D2CCFF"/>
<stop offset="0.5" stop-color="#9C88FF"/>
<stop offset="0.7032" stop-color="#B0A2FF"/>
<stop offset="0.9888" stop-color="#D2CCFF"/>
</linearGradient>
<linearGradient id="paint2_linear" x1="15.1548" y1="27.134" x2="16.3758" y2="27.134" gradientUnits="userSpaceOnUse">
<stop stop-color="#DEDEFF"/>
<stop offset="0.1849" stop-color="#DADAFF"/>
<stop offset="0.3691" stop-color="#D0CEFF"/>
<stop offset="0.4888" stop-color="#C5C2FF"/>
<stop offset="0.6241" stop-color="#D2D0FF"/>
<stop offset="0.7978" stop-color="#DBDBFF"/>
<stop offset="1" stop-color="#DEDEFF"/>
</linearGradient>
<linearGradient id="paint3_linear" x1="21.7522" y1="14.8546" x2="23.9306" y2="14.8546" gradientUnits="userSpaceOnUse">
<stop stop-color="#DEDEFF"/>
<stop offset="0.1849" stop-color="#DADAFF"/>
<stop offset="0.3691" stop-color="#D0CEFF"/>
<stop offset="0.4888" stop-color="#C5C2FF"/>
<stop offset="0.6241" stop-color="#D2D0FF"/>
<stop offset="0.7978" stop-color="#DBDBFF"/>
<stop offset="1" stop-color="#DEDEFF"/>
</linearGradient>
<linearGradient id="paint4_linear" x1="14.7454" y1="19.8531" x2="20.3162" y2="19.8531" gradientUnits="userSpaceOnUse">
<stop stop-color="#DEDEFF"/>
<stop offset="0.1849" stop-color="#DADAFF"/>
<stop offset="0.3691" stop-color="#D0CEFF"/>
<stop offset="0.4888" stop-color="#C5C2FF"/>
<stop offset="0.6241" stop-color="#D2D0FF"/>
<stop offset="0.7978" stop-color="#DBDBFF"/>
<stop offset="1" stop-color="#DEDEFF"/>
</linearGradient>
<linearGradient id="paint5_linear" x1="11.3667" y1="26.0275" x2="12.8652" y2="26.0275" gradientUnits="userSpaceOnUse">
<stop stop-color="#DEDEFF"/>
<stop offset="0.1849" stop-color="#DADAFF"/>
<stop offset="0.3691" stop-color="#D0CEFF"/>
<stop offset="0.4888" stop-color="#C5C2FF"/>
<stop offset="0.6241" stop-color="#D2D0FF"/>
<stop offset="0.7978" stop-color="#DBDBFF"/>
<stop offset="1" stop-color="#DEDEFF"/>
</linearGradient>
<linearGradient id="paint6_linear" x1="18.3113" y1="12.2426" x2="22.6958" y2="12.2426" gradientUnits="userSpaceOnUse">
<stop stop-color="#DEDEFF"/>
<stop offset="0.1849" stop-color="#DADAFF"/>
<stop offset="0.3691" stop-color="#D0CEFF"/>
<stop offset="0.4888" stop-color="#C5C2FF"/>
<stop offset="0.6241" stop-color="#D2D0FF"/>
<stop offset="0.7978" stop-color="#DBDBFF"/>
<stop offset="1" stop-color="#DEDEFF"/>
</linearGradient>
<linearGradient id="paint7_linear" x1="10.1389" y1="18.2783" x2="18.7623" y2="18.2783" gradientUnits="userSpaceOnUse">
<stop stop-color="#DEDEFF"/>
<stop offset="0.1849" stop-color="#DADAFF"/>
<stop offset="0.3691" stop-color="#D0CEFF"/>
<stop offset="0.4888" stop-color="#C5C2FF"/>
<stop offset="0.6241" stop-color="#D2D0FF"/>
<stop offset="0.7978" stop-color="#DBDBFF"/>
<stop offset="1" stop-color="#DEDEFF"/>
</linearGradient>
</defs>
</svg>
