<svg width="64" height="99" viewBox="0 0 64 99" fill="none" xmlns="http://www.w3.org/2000/svg">
<path d="M47.6709 10.7077C47.7742 10.7077 47.8775 10.7077 47.9464 10.7077C48.0152 10.7429 48.1185 10.7429 48.1874 10.8134L61.4019 2.81252C53.2769 -0.843748 53.6868 -0.128482 44.5084 4.88715L6.89873 26.8797C6.69212 26.9854 6.4855 27.1263 6.27889 27.2673C6.21001 27.3025 6.14114 27.373 6.07227 27.4082C5.93453 27.5139 5.79678 27.6196 5.65904 27.7253C5.59017 27.7957 5.5213 27.831 5.45242 27.9014C5.31468 28.0071 5.21137 28.1128 5.10807 28.2185C5.03919 28.289 4.97032 28.3595 4.90145 28.4299C4.86701 28.4652 4.79814 28.5004 4.76371 28.5709C4.72927 28.6061 4.6604 28.6766 4.62596 28.7118C4.48822 28.8527 4.35048 29.0289 4.21273 29.1698C4.1783 29.2051 4.10942 29.2756 4.07499 29.3108C4.04055 29.346 4.00612 29.4165 3.97168 29.4517C3.90281 29.5574 3.7995 29.6631 3.73063 29.7688C3.66176 29.8393 3.62732 29.9097 3.55845 29.9802C3.52401 30.0507 3.48958 30.0859 3.42071 30.1564C3.35183 30.2268 3.3174 30.3325 3.24853 30.403C3.21409 30.4735 3.17965 30.5087 3.11078 30.5792C3.04191 30.6849 2.97304 30.7906 2.90417 30.861C2.86973 30.9315 2.83529 31.002 2.76642 31.0372C2.76642 31.0724 2.73199 31.0724 2.73199 31.1077C2.62868 31.2838 2.49094 31.46 2.38763 31.6714C2.38763 31.6714 2.38763 31.7066 2.35319 31.7066C2.31876 31.7418 2.31876 31.7771 2.28432 31.8123C2.21545 31.9532 2.14658 32.0942 2.0777 32.1999C2.04327 32.2703 2.00883 32.3408 1.9744 32.376C1.93996 32.4465 1.90553 32.517 1.87109 32.5874C1.83665 32.6579 1.80222 32.6931 1.80222 32.7636C1.73335 32.9045 1.66447 33.0807 1.5956 33.2216C1.5956 33.2568 1.56117 33.2921 1.56117 33.2921C1.56117 33.2921 1.56117 33.2921 1.56117 33.3273C1.49229 33.5387 1.38899 33.7149 1.32011 33.9263C1.32011 33.9615 1.28568 33.9967 1.28568 34.032C1.25124 34.1024 1.25124 34.1729 1.21681 34.2434C1.18237 34.3491 1.14793 34.4548 1.1135 34.5252C1.07906 34.5957 1.07906 34.6662 1.04463 34.7366C1.01019 34.8423 0.975755 34.9128 0.975755 35.0185C0.975755 35.089 0.941319 35.1242 0.941319 35.1947C0.906883 35.3004 0.906883 35.4061 0.872447 35.4765C0.838012 35.5822 0.803576 35.6879 0.803576 35.7936C0.803576 35.8289 0.76914 35.8641 0.76914 35.8993C0.76914 35.9698 0.734704 36.0755 0.734704 36.146C0.700268 36.3221 0.665832 36.4983 0.631396 36.6744C0.631396 36.7097 0.59696 36.7801 0.59696 36.8154C0.59696 36.9211 0.562524 37.0268 0.562524 37.1325C0.562524 37.2029 0.562524 37.2734 0.528088 37.3791C0.493652 37.6257 0.493652 37.8724 0.493652 38.0838L0.700268 92.4114C0.700268 94.4549 1.04672 95.3891 2.18311 96.0938C2.18311 96.0938 7.31196 98.8125 9.27686 98.8125C10.8642 98.8125 7.31196 98.401 7.31196 96.3223L7.10535 41.9946C7.10535 41.748 7.10535 41.5014 7.13978 41.29C7.13978 41.2195 7.13978 41.149 7.17422 41.0434C7.17422 40.9024 7.20866 40.7263 7.24309 40.5853C7.27753 40.4092 7.31196 40.233 7.3464 40.0568C7.38084 39.9511 7.38084 39.8102 7.41527 39.7045C7.44971 39.5988 7.48414 39.4931 7.48414 39.3522C7.51858 39.2112 7.55302 39.0351 7.62189 38.8941C7.65632 38.7884 7.69076 38.718 7.69076 38.6123C7.75963 38.4361 7.79407 38.2599 7.86294 38.0838C7.89738 38.0133 7.89738 37.9428 7.93181 37.8724C8.03512 37.6257 8.10399 37.3791 8.2073 37.1677C8.2073 37.1325 8.24173 37.0972 8.24173 37.0972C8.34504 36.8858 8.41391 36.6744 8.51722 36.4631C8.55166 36.3926 8.58609 36.3221 8.62053 36.2517C8.72384 36.0403 8.82714 35.8641 8.93045 35.6527C8.96489 35.6175 8.96489 35.5822 8.99932 35.547C9.13707 35.3356 9.27481 35.089 9.41255 34.8776C9.44699 34.8071 9.48143 34.7366 9.5503 34.7014C9.65361 34.5605 9.75692 34.3843 9.86022 34.2434C9.92909 34.1729 9.96353 34.0672 10.0324 33.9967C10.1357 33.8558 10.239 33.7501 10.3079 33.6092C10.3768 33.5035 10.4801 33.3978 10.5489 33.2921C10.6178 33.1864 10.7211 33.1159 10.79 33.0102C10.9277 32.8693 11.0655 32.6931 11.2032 32.5522C11.3065 32.4465 11.3754 32.376 11.4787 32.2703C11.5476 32.1999 11.6165 32.1294 11.6853 32.0589C11.7886 31.9532 11.9264 31.8475 12.0297 31.7418C12.0986 31.6714 12.1674 31.6009 12.2363 31.5657C12.374 31.46 12.5118 31.3543 12.6495 31.2486C12.7184 31.2134 12.7873 31.1429 12.8561 31.1077C13.0628 30.9667 13.2694 30.8258 13.476 30.7201L46.9821 10.9191C47.0854 10.8486 47.1888 10.8134 47.2921 10.7782C47.3265 10.7782 47.3265 10.7782 47.3609 10.7429C47.4987 10.7429 47.602 10.7077 47.6709 10.7077Z" fill="url(#paint0_linear)"/>
<path d="M63.4047 50.212L63.508 60.8858C63.267 64.9376 60.5121 69.6589 57.1374 71.6319L12.474 98.0215C8.96154 100.1 6.06892 98.4091 6.06892 94.2868L5.8623 39.9592C5.8623 35.8369 8.68605 30.7633 12.233 28.6846L55.1896 3.74094C60.196 1.07306 63.4047 2.03351 63.4047 8.32966V50.212Z" fill="url(#paint1_linear)"/>
<path d="M23.8327 76.8743L28.8298 73.9697C29.6802 73.4805 30.4587 72.3179 30.6082 71.3373C30.7084 70.6718 30.417 70.2701 29.9698 70.2491C29.7978 70.2411 29.552 70.3353 29.3047 70.4648L24.3075 73.3694C23.4571 73.8586 22.6786 75.0213 22.5291 76.0019C22.429 76.6673 22.7204 77.069 23.1675 77.09C23.3756 77.0645 23.6197 77.0054 23.8327 76.8743Z" fill="#EBEBFF"/>
<path d="M29.8183 54.7729L34.8154 51.8683C35.6658 51.3791 36.4443 50.2164 36.5938 49.2358C36.694 48.5704 36.4026 48.1687 35.9554 48.1477C35.7834 48.1396 35.5376 48.2339 35.2902 48.3634L30.2931 51.268C29.4427 51.7571 28.6642 52.9198 28.5147 53.9004C28.4146 54.5659 28.706 54.9676 29.1531 54.9886C29.3612 54.963 29.6053 54.904 29.8183 54.7729Z" fill="#EBEBFF"/>
<path d="M32.2873 65.9187L37.2844 63.0141C38.1348 62.525 38.9133 61.3623 39.0628 60.3817C39.163 59.7162 38.8715 59.3146 38.4244 59.2936C38.2524 59.2855 38.0066 59.3798 37.7592 59.5092L32.7621 62.4138C31.9117 62.903 31.1332 64.0657 30.9837 65.0463C30.8835 65.7117 31.175 66.1134 31.6221 66.1344C31.8302 66.1089 32.0743 66.0498 32.2873 65.9187Z" fill="#EBEBFF"/>
<path d="M13.6503 82.7596L18.6475 79.855C19.4978 79.3659 20.2763 78.2032 20.4258 77.2226C20.526 76.5571 20.2346 76.1555 19.7874 76.1345C19.6154 76.1264 19.3697 76.2207 19.1223 76.3502L14.1251 79.2547C13.2748 79.7439 12.4962 80.9066 12.3468 81.8872C12.2466 82.5527 12.538 82.9543 12.9852 82.9753C13.1932 82.9498 13.4373 82.8907 13.6503 82.7596Z" fill="#EBEBFF"/>
<path d="M25.6726 55.4583C25.7728 54.7929 25.4814 54.3912 25.0342 54.3702C24.8622 54.3621 24.6165 54.4564 24.3691 54.5859L14.0913 60.5581C13.241 61.0473 12.4624 62.21 12.3474 63.1922C12.2455 63.8928 12.5025 64.2929 12.9858 64.2803C13.1578 64.2884 13.4035 64.1941 13.6509 64.0646L23.8943 58.0908C24.7446 57.6016 25.5232 56.4389 25.6726 55.4583Z" fill="#EBEBFF"/>
<path d="M51.4935 48.9956L54.151 47.4625C54.967 46.9718 55.7816 45.7755 55.895 44.8285C55.9952 44.163 55.7381 43.763 55.2566 43.7404C55.0846 43.7323 54.8388 43.8266 54.5915 43.956L51.9323 45.5242C51.082 46.0134 50.3034 47.1761 50.1884 48.1583C50.0882 48.8238 50.3452 49.2238 50.8268 49.2464C51.0348 49.2209 51.2445 49.1602 51.4935 48.9956Z" fill="#EBEBFF"/>
<path d="M39.0847 42.7935C39.2911 42.8032 39.5024 42.7073 39.7498 42.5778L53.1471 34.7768C53.9975 34.2876 54.776 33.1249 54.9255 32.1444C55.0257 31.4789 54.7343 31.0772 54.2871 31.0562C54.1151 31.0481 53.8693 31.1424 53.6219 31.2719L40.1902 39.0713C39.3399 39.5605 38.5613 40.7232 38.4119 41.7038C38.3805 42.3725 38.6375 42.7725 39.0847 42.7935Z" fill="#EBEBFF"/>
<path d="M39.1425 49.1856C39.3489 49.1953 39.5603 49.0994 39.8077 48.9699L53.205 41.1689C54.0553 40.6797 54.8339 39.517 54.9833 38.5364C55.0835 37.8709 54.7921 37.4693 54.3449 37.4483C54.173 37.4402 53.9272 37.5345 53.6798 37.664L40.2481 45.4634C39.3977 45.9525 38.6192 47.1152 38.4697 48.0958C38.4383 48.7645 38.6953 49.1646 39.1425 49.1856Z" fill="#EBEBFF"/>
<path d="M13.01 76.7072C13.2163 76.7169 13.4277 76.621 13.6751 76.4916L27.0724 68.6905C27.9228 68.2014 28.7013 67.0387 28.8508 66.0581C28.951 65.3926 28.6595 64.991 28.2124 64.97C28.0404 64.9619 27.7946 65.0562 27.5472 65.1856L14.1155 72.9851C13.2652 73.4742 12.4866 74.6369 12.3372 75.6175C12.3058 76.2862 12.5628 76.6863 13.01 76.7072Z" fill="#EBEBFF"/>
<path d="M13.01 70.7271C13.2163 70.7368 13.4277 70.6409 13.6751 70.5114L27.0724 62.7104C27.9228 62.2212 28.7013 61.0585 28.8508 60.0779C28.951 59.4125 28.6595 59.0108 28.2124 58.9898C28.0404 58.9817 27.7946 59.076 27.5472 59.2055L14.1155 67.0049C13.2652 67.494 12.4866 68.6567 12.3372 69.6373C12.3058 70.306 12.5628 70.7061 13.01 70.7271Z" fill="#EBEBFF"/>
<path d="M32.684 59.3602C32.8904 59.3699 33.1018 59.274 33.3492 59.1446L46.7465 51.3435C47.5968 50.8544 48.3754 49.6917 48.5248 48.7111C48.625 48.0456 48.3336 47.644 47.8864 47.623C47.7145 47.6149 47.4687 47.7092 47.2213 47.8386L33.7896 55.6381C32.9392 56.1272 32.1607 57.2899 32.0112 58.2705C31.9798 58.9392 32.2369 59.3393 32.684 59.3602Z" fill="#EBEBFF"/>
<path d="M42.1066 60.1132C42.313 60.1229 42.5244 60.027 42.7718 59.8976L56.1691 52.0965C57.0195 51.6074 57.798 50.4447 57.9474 49.4641C58.0476 48.7986 57.7562 48.3969 57.3091 48.376C57.1371 48.3679 56.8913 48.4622 56.6439 48.5916L43.2122 56.391C42.3618 56.8802 41.5833 58.0429 41.4338 59.0235C41.4025 59.6922 41.6595 60.0922 42.1066 60.1132Z" fill="#EBEBFF"/>
<path d="M32.7214 70.2297C32.6212 70.8952 32.8782 71.2952 33.3598 71.3178C33.5662 71.3275 33.7775 71.2316 34.0249 71.1022L44.3027 65.1299C45.1531 64.6407 45.9332 63.4429 46.0467 62.4958C46.1468 61.8304 45.8898 61.4303 45.4083 61.4077C45.2363 61.3996 44.9905 61.4939 44.7431 61.6234L34.4997 67.5973C33.6494 68.0864 32.8709 69.2491 32.7214 70.2297Z" fill="#EBEBFF"/>
<path d="M39.6565 28.6725C39.5563 29.3379 39.8133 29.738 40.2949 29.7606C40.5012 29.7703 40.7126 29.6744 40.96 29.5449L51.2378 23.5727C52.0881 23.0835 52.8683 21.8856 52.9817 20.9386C53.0819 20.2731 52.8249 19.8731 52.3433 19.8505C52.1713 19.8424 51.9256 19.9367 51.6782 20.0662L41.4348 26.04C40.5845 26.5292 39.8059 27.6919 39.6565 28.6725Z" fill="#EBEBFF"/>
<path d="M41.4443 33.5947C41.3441 34.2602 41.6011 34.6603 42.0827 34.6829C42.2891 34.6926 42.5004 34.5967 42.7478 34.4672L53.0256 28.4949C53.876 28.0058 54.6561 26.8079 54.7696 25.8609C54.8697 25.1954 54.6127 24.7954 54.1312 24.7727C53.9592 24.7647 53.7134 24.859 53.466 24.9884L43.2226 30.9623C42.3723 31.4514 41.5938 32.6141 41.4443 33.5947Z" fill="#EBEBFF"/>
<path d="M21.2195 37.3264C21.101 37.2474 20.943 37.2079 20.8246 37.2474C20.5876 37.2474 20.3507 37.3659 20.0743 37.5238C19.6399 37.8003 19.2055 38.2741 18.8106 38.8665L12.9268 48.4229C12.5714 48.9757 12.3739 49.6075 12.2949 50.1209C12.2554 50.6342 12.3739 51.0291 12.6898 51.1871L17.468 53.9908C17.5865 54.0698 17.7049 54.1093 17.8629 54.0698C18.0998 54.0698 18.3368 53.9513 18.6132 53.7934C19.0476 53.517 19.482 53.0431 19.8768 52.4507C20.5876 51.2661 20.7061 50.0024 20.1138 49.647L16.4018 47.4751L20.943 40.0906C21.6933 38.906 21.8118 37.6818 21.2195 37.3264Z" fill="#EBEBFF"/>
<path d="M29.4727 31.7584C29.4332 31.7584 29.3937 31.7584 29.3148 31.7584C29.1173 31.7979 28.9199 31.8768 28.6829 32.0348C28.0116 32.4692 27.3403 33.3379 27.0244 34.2857L21.7723 49.2915C21.3774 50.4367 21.6539 51.3055 22.3647 51.266C22.4041 51.266 22.4436 51.266 22.4831 51.266C22.6806 51.2265 22.878 51.1475 23.115 50.9896C23.7863 50.5552 24.4576 49.6864 24.813 48.7387L30.065 33.7328C30.4599 32.5482 30.1835 31.7189 29.4727 31.7584Z" fill="#EBEBFF"/>
<path d="M33.9352 29.2706C33.8168 29.1916 33.6588 29.1916 33.5009 29.1916C33.2639 29.1916 33.027 29.3101 32.7506 29.468C32.3162 29.7445 31.8818 30.2183 31.4869 30.8107C30.7761 31.9953 30.6576 33.259 31.25 33.6144L34.9619 35.7863L30.4602 43.1313C29.7494 44.3159 29.6309 45.5796 30.2233 45.935C30.3417 46.014 30.4602 46.0535 30.6181 46.014C30.8551 46.014 31.092 45.8955 31.3684 45.7375C31.8028 45.4611 32.2767 44.9873 32.6321 44.3949L38.4765 34.8385C39.2268 33.6539 39.3452 32.3902 38.7134 32.0348L33.9352 29.2706Z" fill="#EBEBFF"/>
<defs>
<linearGradient id="paint0_linear" x1="0.527812" y1="50.7095" x2="62.8687" y2="50.7095" gradientUnits="userSpaceOnUse">
<stop stop-color="#7E5AFF"/>
<stop offset="0.4888" stop-color="#662EFF"/>
<stop offset="0.8021" stop-color="#7448FF"/>
<stop offset="1" stop-color="#7E5AFF"/>
</linearGradient>
<linearGradient id="paint1_linear" x1="-5.48666" y1="13.5489" x2="94.0336" y2="78.3955" gradientUnits="userSpaceOnUse">
<stop stop-color="#D2CCFF"/>
<stop offset="0.5" stop-color="#9C88FF"/>
<stop offset="0.7032" stop-color="#B0A2FF"/>
<stop offset="0.9888" stop-color="#D2CCFF"/>
</linearGradient>
</defs>
</svg>
