<svg width="29" height="27" viewBox="0 0 29 27" fill="none" xmlns="http://www.w3.org/2000/svg">
<path d="M20.2692 12.0242L18.1738 10.8033C18.1903 10.8033 18.2068 10.8198 18.2068 10.8198L20.3022 12.0407C20.3022 12.0407 20.2857 12.0242 20.2692 12.0242Z" fill="#A8A8A8"/>
<path d="M20.3187 12.0407L18.2234 10.8198C18.2399 10.8198 18.2564 10.8363 18.2729 10.8528L20.3682 12.0737C20.3517 12.0572 20.3352 12.0572 20.3187 12.0407Z" fill="#A3A3A3"/>
<path d="M20.368 12.0737L18.2727 10.8528L20.368 12.0737Z" fill="#9E9E9E"/>
<path d="M9.26466 25.7181L8.93468 23.3093L6.83936 22.0884L7.16933 24.4972C7.18583 24.5632 7.18583 24.6127 7.20233 24.6787C7.25182 24.8436 7.35081 24.9591 7.4663 25.0251L9.56163 26.246C9.41315 26.147 9.29766 25.9656 9.26466 25.7181Z" fill="url(#paint0_linear)"/>
<path d="M18.1738 10.8034L16.3755 10.226L18.4708 11.4468L20.2692 12.0243L18.1738 10.8034Z" fill="url(#paint1_linear)"/>
<path d="M14.1813 9.59895L12.086 8.37805C12.7624 8.77402 13.1914 9.61545 13.1914 10.8199C13.1914 10.9353 13.1914 11.0343 13.1749 11.1498C13.1749 11.1663 13.1749 11.1993 13.1749 11.2158C13.1749 11.3313 13.1584 11.4303 13.1419 11.5458C13.1419 11.5788 13.1254 11.6118 13.1254 11.6448C13.1254 11.6943 13.1089 11.7438 13.1089 11.7933C13.1089 11.8263 13.0924 11.8593 13.0924 11.8923C13.0759 11.9418 13.0759 11.9913 13.0594 12.0408C13.0594 12.0738 13.0429 12.0903 13.0429 12.1232C13.0099 12.2552 12.9769 12.3707 12.9439 12.5027C12.9439 12.5192 12.9274 12.5522 12.9274 12.5687C12.8944 12.6842 12.8614 12.7832 12.8284 12.8987C12.8284 12.9152 12.8284 12.9152 12.8119 12.9317C12.7789 13.0307 12.7459 13.1462 12.6964 13.2452C12.6799 13.2782 12.6799 13.2947 12.6634 13.3277C12.6304 13.4101 12.5974 13.5091 12.5479 13.5916C12.5479 13.6081 12.5314 13.6246 12.5314 13.6411C12.4819 13.7401 12.4489 13.8391 12.3994 13.9381C12.3829 13.9711 12.3829 13.9876 12.3664 14.0206C12.3335 14.1031 12.284 14.1691 12.251 14.2516C12.2345 14.2681 12.2345 14.3011 12.218 14.3176C12.1685 14.4166 12.119 14.5156 12.053 14.598C12.0365 14.6145 12.0365 14.631 12.02 14.6475C11.9705 14.73 11.921 14.8125 11.8715 14.895C11.855 14.9115 11.8385 14.9445 11.822 14.961C11.756 15.06 11.69 15.159 11.624 15.2415C11.6075 15.258 11.6075 15.2745 11.591 15.291C11.525 15.39 11.4425 15.489 11.3765 15.588C11.36 15.6045 11.36 15.6045 11.3435 15.621C11.2445 15.7365 11.162 15.8519 11.0631 15.9674C11.0466 15.9839 11.0466 16.0004 11.0301 16.0169C10.9641 16.0829 10.8981 16.1654 10.8486 16.2314C10.7826 16.2974 10.7166 16.3634 10.6506 16.4294C10.6341 16.4459 10.6176 16.4624 10.6011 16.4789C10.5186 16.5614 10.4361 16.6439 10.3371 16.7264L10.3206 16.7429C10.2216 16.8254 10.1391 16.8914 10.0401 16.9739C10.0236 16.9904 10.0071 17.0069 9.99065 17.0234C9.89165 17.0893 9.80916 17.1553 9.71017 17.2213C9.69367 17.2378 9.67717 17.2378 9.66067 17.2543C9.56168 17.3203 9.46269 17.3863 9.3637 17.4358C9.2812 17.4853 9.19871 17.5183 9.11622 17.5678C9.09972 17.5843 9.06672 17.5843 9.05022 17.6008C8.98423 17.6338 8.93473 17.6503 8.86874 17.6833C8.85224 17.6998 8.81924 17.6998 8.80274 17.7163C8.75325 17.7328 8.68725 17.7658 8.63776 17.7823C8.62126 17.7823 8.60476 17.7988 8.58826 17.7988C8.52227 17.8153 8.45627 17.8483 8.39028 17.8648C8.35728 17.8813 8.30778 17.8813 8.27479 17.8978C8.25829 17.8978 8.24179 17.9143 8.22529 17.9143C8.1428 17.9308 8.0768 17.9473 8.01081 17.9473C7.97781 17.9473 7.94481 17.9473 7.91182 17.9638C7.84582 17.9638 7.79632 17.9803 7.73033 17.9803C7.66434 17.9803 7.61484 17.9803 7.54885 17.9803C7.51585 17.9803 7.49935 17.9803 7.46635 17.9803C7.41686 17.9803 7.38386 17.9638 7.33436 17.9638C7.30137 17.9638 7.28487 17.9473 7.25187 17.9473C7.21887 17.9473 7.16938 17.9308 7.13638 17.9143C7.10338 17.9143 7.08688 17.8978 7.05389 17.8978C7.02089 17.8813 6.97139 17.8648 6.9384 17.8648C6.9054 17.8483 6.8889 17.8483 6.8724 17.8318C6.82291 17.8153 6.78991 17.7988 6.75691 17.7658C6.74041 17.7493 6.70742 17.7493 6.69092 17.7328L8.78624 18.9537C8.78624 18.9537 8.80274 18.9537 8.80274 18.9702C8.81924 18.9702 8.81924 18.9867 8.83574 18.9867C8.88524 19.0032 8.91823 19.0362 8.96773 19.0527C8.98423 19.0527 8.98423 19.0692 9.00073 19.0692C9.01723 19.0692 9.03372 19.0857 9.03372 19.0857C9.06672 19.1022 9.11622 19.1187 9.16571 19.1352C9.18221 19.1352 9.19871 19.1517 9.19871 19.1517C9.21521 19.1517 9.21521 19.1517 9.23171 19.1517C9.2812 19.1682 9.3307 19.1847 9.38019 19.1847C9.39669 19.1847 9.39669 19.1847 9.41319 19.1847C9.47919 19.2012 9.54518 19.2012 9.62767 19.2012H9.64417C9.66067 19.2012 9.67717 19.2012 9.69367 19.2012C9.74317 19.2012 9.80916 19.2012 9.85866 19.2012C9.87515 19.2012 9.89165 19.2012 9.89165 19.2012C9.90815 19.2012 9.92465 19.2012 9.94115 19.2012C10.0071 19.2012 10.0896 19.1847 10.1556 19.1847C10.2051 19.1682 10.2711 19.1682 10.3206 19.1517C10.3371 19.1517 10.3536 19.1352 10.3701 19.1352C10.4031 19.1187 10.4526 19.1187 10.4856 19.1022C10.4856 19.1022 10.4856 19.1022 10.5021 19.1022C10.5681 19.0857 10.6341 19.0692 10.7001 19.0362C10.7166 19.0362 10.7331 19.0197 10.7496 19.0197C10.7991 19.0032 10.8651 18.9867 10.9146 18.9537C10.9146 18.9537 10.9311 18.9537 10.9311 18.9372C10.9476 18.9372 10.9641 18.9207 10.9806 18.9207C11.0466 18.8877 11.0961 18.8712 11.162 18.8382C11.1785 18.8217 11.2115 18.8217 11.228 18.8052C11.3105 18.7722 11.393 18.7227 11.4755 18.6732C11.5745 18.6072 11.6735 18.5577 11.7725 18.4917C11.789 18.4752 11.8055 18.4752 11.822 18.4587C11.921 18.3927 12.0035 18.3267 12.1025 18.2607C12.119 18.2443 12.1355 18.2278 12.152 18.2113C12.251 18.1453 12.3335 18.0628 12.4324 17.9803L12.4489 17.9638C12.5314 17.8813 12.6304 17.7988 12.7129 17.7163C12.7294 17.6998 12.7294 17.6998 12.7459 17.6833L12.7624 17.6668C12.8284 17.6008 12.8944 17.5348 12.9604 17.4688C13.0264 17.4028 13.0924 17.3368 13.1419 17.2543L13.1584 17.2378L13.1749 17.2213C13.2739 17.1058 13.3729 16.9904 13.4554 16.8749C13.4554 16.8749 13.4554 16.8749 13.4554 16.8584C13.4554 16.8419 13.4719 16.8419 13.4719 16.8254C13.5379 16.7264 13.6203 16.6274 13.6863 16.5449C13.6863 16.5284 13.7028 16.5284 13.7028 16.5119C13.7028 16.5119 13.7028 16.4954 13.7193 16.4954C13.7853 16.3964 13.8513 16.2974 13.9173 16.2149C13.9173 16.1984 13.9338 16.1984 13.9338 16.1819C13.9503 16.1654 13.9503 16.1489 13.9668 16.1324C14.0163 16.0499 14.0658 15.9674 14.1153 15.8849C14.1153 15.8684 14.1318 15.8519 14.1318 15.8519C14.1318 15.8519 14.1318 15.8354 14.1483 15.8354C14.1978 15.7365 14.2473 15.654 14.3133 15.555L14.3298 15.5385C14.3298 15.522 14.3463 15.5055 14.3463 15.489C14.3793 15.4065 14.4288 15.3405 14.4618 15.258C14.4618 15.2415 14.4783 15.225 14.4783 15.2085C14.4783 15.192 14.4948 15.192 14.4948 15.1755C14.5443 15.0765 14.5938 14.9775 14.6268 14.8785C14.6268 14.8785 14.6268 14.8785 14.6268 14.862C14.6268 14.8455 14.6433 14.8455 14.6433 14.829C14.6763 14.7465 14.7093 14.6475 14.7588 14.5651C14.7588 14.5486 14.7753 14.5321 14.7753 14.5156C14.7753 14.4991 14.7917 14.4991 14.7917 14.4826C14.8247 14.3836 14.8742 14.2681 14.9072 14.1691V14.1526C14.9402 14.0371 14.9732 13.9381 15.0062 13.8226C15.0062 13.8061 15.0227 13.7896 15.0227 13.7896V13.7731C15.0557 13.6411 15.0887 13.5256 15.1217 13.3936C15.1217 13.3771 15.1217 13.3771 15.1382 13.3606C15.1382 13.3441 15.1382 13.3277 15.1547 13.3112C15.1712 13.2617 15.1712 13.2122 15.1877 13.1627C15.1877 13.1297 15.2042 13.0967 15.2042 13.0637C15.2207 13.0142 15.2207 12.9647 15.2207 12.9152C15.2207 12.8987 15.2207 12.8657 15.2372 12.8492V12.8327C15.2537 12.7172 15.2537 12.6182 15.2702 12.5027C15.2702 12.4862 15.2702 12.4532 15.2702 12.4367C15.2702 12.3212 15.2867 12.2222 15.2867 12.1067C15.2867 10.8364 14.8577 9.99492 14.1813 9.59895Z" fill="url(#paint2_linear)"/>
<path d="M19.1969 2.7355L17.085 1.5146C17.0685 1.4981 17.052 1.4981 17.0355 1.48161H17.019H17.0025C16.9861 1.48161 16.986 1.48161 16.9696 1.46511C16.9531 1.46511 16.9366 1.46511 16.9366 1.44861H16.9201C16.9036 1.44861 16.8706 1.44861 16.8541 1.44861C16.8541 1.44861 16.8541 1.44861 16.8376 1.44861H16.8211C16.8046 1.44861 16.7881 1.44861 16.7881 1.44861H16.7716C16.7551 1.44861 16.7551 1.44861 16.7386 1.44861H16.7221C16.7056 1.44861 16.7056 1.44861 16.6891 1.44861C16.6726 1.44861 16.6561 1.44861 16.6396 1.46511H16.6231C16.6066 1.46511 16.6066 1.46511 16.5901 1.48161C16.5571 1.48161 16.5406 1.4981 16.5076 1.5146C16.5076 1.5146 16.4911 1.5146 16.4911 1.5311H16.4746C16.4251 1.5476 16.3921 1.5641 16.3426 1.5971C16.3096 1.6136 16.2766 1.63009 16.2436 1.66309C16.2271 1.66309 16.2271 1.67959 16.2106 1.67959C16.1941 1.69609 16.1611 1.71259 16.1446 1.72909C16.1281 1.74558 16.1116 1.74558 16.1116 1.76208C16.0951 1.77858 16.0786 1.79508 16.0456 1.81158C16.0291 1.82808 16.0126 1.82808 16.0126 1.84458C15.9961 1.86108 15.9961 1.86108 15.9796 1.87757C15.9631 1.89407 15.9466 1.91057 15.9466 1.91057L13.8183 4.12139C13.7523 4.10489 13.6863 4.0719 13.6368 4.0554C13.6038 4.0554 13.5873 4.0389 13.5543 4.0389C13.5378 4.0389 13.5378 4.0389 13.5213 4.0389C13.4223 4.0224 13.3398 3.9894 13.2409 3.9729C13.2244 3.9729 13.2079 3.9729 13.1914 3.9729C13.1584 3.9729 13.1254 3.9564 13.0924 3.9564C13.0429 3.9564 13.0099 3.93991 12.9604 3.93991C12.9274 3.93991 12.8944 3.93991 12.8614 3.92341C12.8449 3.92341 12.8284 3.92341 12.8119 3.92341C12.7954 3.92341 12.7624 3.92341 12.7459 3.92341C12.7129 3.92341 12.6799 3.92341 12.6469 3.92341C12.5974 3.92341 12.5644 3.92341 12.5149 3.92341C12.4819 3.92341 12.4489 3.92341 12.4159 3.92341C12.3994 3.92341 12.3829 3.92341 12.3829 3.92341C12.3499 3.92341 12.3004 3.92341 12.2674 3.92341C12.2509 3.92341 12.2179 3.92341 12.2014 3.92341C12.1189 3.92341 12.053 3.93991 11.9705 3.9564L14.0658 5.1773C14.1483 5.16081 14.2143 5.16081 14.2968 5.14431C14.3133 5.14431 14.3463 5.14431 14.3628 5.14431C14.4123 5.14431 14.4618 5.14431 14.5113 5.12781C14.5442 5.12781 14.5772 5.12781 14.6102 5.12781C14.6597 5.12781 14.6927 5.12781 14.7422 5.12781C14.7752 5.12781 14.8082 5.12781 14.8412 5.12781C14.8907 5.12781 14.9237 5.12781 14.9732 5.12781C15.0062 5.12781 15.0392 5.12781 15.0722 5.14431C15.1217 5.14431 15.1547 5.16081 15.2042 5.16081C15.2372 5.16081 15.2702 5.1773 15.3032 5.1773C15.4022 5.1938 15.5012 5.2103 15.6002 5.2433C15.6167 5.2433 15.6167 5.2433 15.6332 5.2598C15.7322 5.2928 15.8311 5.30929 15.9136 5.34229L18.042 3.13147C18.0585 3.09847 18.0915 3.08198 18.108 3.06548C18.1245 3.04898 18.141 3.03248 18.141 3.03248C18.1575 3.01598 18.174 2.99948 18.2069 2.98298C18.2234 2.96649 18.2399 2.96648 18.2399 2.94999C18.2564 2.93349 18.2894 2.91699 18.3059 2.90049C18.3224 2.90049 18.3224 2.88399 18.3389 2.88399C18.3719 2.86749 18.4049 2.8345 18.4379 2.818C18.4874 2.785 18.5369 2.7685 18.5699 2.752C18.5864 2.752 18.6029 2.7355 18.6029 2.7355C18.6359 2.71901 18.6524 2.719 18.6854 2.70251C18.7019 2.70251 18.7184 2.68601 18.7349 2.68601C18.7514 2.68601 18.7679 2.68601 18.7844 2.66951C18.8009 2.66951 18.8174 2.66951 18.8339 2.65301C18.8504 2.65301 18.8504 2.65301 18.8669 2.65301C18.8834 2.65301 18.9164 2.65301 18.9329 2.65301H18.9494C18.9824 2.65301 18.9989 2.65301 19.0319 2.66951H19.0484C19.0649 2.66951 19.0979 2.68601 19.1144 2.68601H19.1309C19.1474 2.719 19.1639 2.71901 19.1969 2.7355Z" fill="url(#paint3_linear)"/>
<path d="M3.58905 25.5862L2.41764 23.9529C2.38465 23.9034 2.36815 23.8539 2.33515 23.8044C2.33515 23.8044 2.33515 23.8044 2.33515 23.7879C2.31865 23.7384 2.30215 23.6724 2.28565 23.6229V23.6064C2.26915 23.5569 2.26916 23.4909 2.26916 23.4249V23.4084C2.26916 23.3424 2.26915 23.2764 2.28565 23.2104C2.28565 23.1939 2.28565 23.1939 2.28565 23.1774C2.28565 23.1279 2.30215 23.0949 2.30215 23.0454V23.0289C2.31865 22.9959 2.31865 22.9464 2.33515 22.9134C2.35165 22.8804 2.35165 22.8309 2.36815 22.798C2.36815 22.7815 2.36815 22.7815 2.38465 22.765C2.40114 22.732 2.40114 22.7155 2.41764 22.6825C2.41764 22.666 2.43414 22.666 2.43414 22.6495C2.45064 22.6165 2.45064 22.6 2.46714 22.567C2.46714 22.5505 2.48364 22.5505 2.48364 22.534C2.50014 22.501 2.51663 22.468 2.53313 22.435C2.53313 22.435 2.53313 22.435 2.53313 22.4185C2.54963 22.3855 2.56613 22.3525 2.59913 22.303C2.59913 22.2865 2.61563 22.2865 2.61563 22.27C2.63213 22.237 2.64863 22.204 2.68162 22.171L4.47997 19.5147L2.38465 18.2938L0.586294 20.9501C0.569796 20.9666 0.553295 20.9831 0.553295 20.9996C0.536796 21.0161 0.536797 21.0326 0.520298 21.0491C0.520298 21.0656 0.503801 21.0656 0.503801 21.0821C0.503801 21.0821 0.5038 21.0986 0.487301 21.0986C0.470803 21.1316 0.454304 21.1646 0.437805 21.1811C0.421306 21.2141 0.404807 21.2306 0.388309 21.2636C0.388309 21.2636 0.38831 21.2801 0.371811 21.2801C0.371811 21.2966 0.355312 21.2966 0.355312 21.3131C0.355312 21.3296 0.338815 21.3461 0.338815 21.3461C0.338815 21.3626 0.322315 21.3791 0.322315 21.3956C0.322315 21.4121 0.305815 21.4121 0.305815 21.4286V21.4451C0.289317 21.4616 0.289318 21.4946 0.289318 21.5111C0.289318 21.5276 0.289317 21.5276 0.272819 21.5441C0.25632 21.5771 0.25632 21.6265 0.239822 21.6595C0.223323 21.6925 0.223324 21.742 0.206825 21.775C0.206825 21.775 0.206825 21.775 0.206825 21.7915C0.190326 21.841 0.190325 21.874 0.190325 21.9235V21.94V21.9565C0.190325 22.0225 0.173828 22.0885 0.173828 22.1545V22.171C0.173828 22.237 0.173827 22.2865 0.190325 22.3525V22.369C0.206824 22.435 0.223323 22.4845 0.239822 22.534C0.239822 22.534 0.239822 22.534 0.239822 22.5505C0.25632 22.6 0.289318 22.6495 0.322315 22.699L1.49372 24.3323C1.51022 24.3653 1.54322 24.3983 1.57621 24.4148C1.60921 24.4478 1.64221 24.4643 1.65871 24.4808L3.75403 25.7017C3.70454 25.7017 3.63854 25.6522 3.58905 25.5862Z" fill="url(#paint4_linear)"/>
<path d="M4.49642 19.531L2.4011 18.3101C2.3516 17.9307 2.3186 17.5347 2.3186 17.1057C2.3186 16.6933 2.3351 16.2643 2.4011 15.8188L4.49642 17.0397C4.44693 17.4852 4.41393 17.9142 4.41393 18.3266C4.39743 18.7391 4.43043 19.1516 4.49642 19.531Z" fill="url(#paint5_linear)"/>
<path d="M11.2768 1.01971C11.2603 1.00321 11.2273 1.00321 11.2108 0.986713C11.2108 0.986713 11.2108 0.986713 11.1943 0.986713H11.1778C11.1613 0.986713 11.1613 0.986713 11.1448 0.970215C11.1283 0.970215 11.1283 0.970215 11.1118 0.970215H11.0953C11.0953 0.970215 11.0953 0.970215 11.0788 0.970215C11.0623 0.970215 11.0293 0.970215 11.0128 0.970215H10.9963C10.9798 0.970215 10.9633 0.970215 10.9468 0.970215H10.9303C10.9138 0.970215 10.9138 0.970215 10.8973 0.970215C10.8808 0.970215 10.8808 0.970215 10.8643 0.970215C10.8478 0.970215 10.8478 0.970215 10.8313 0.970215C10.8148 0.970215 10.7983 0.970215 10.7818 0.986713C10.7653 0.986713 10.7653 0.986713 10.7653 0.986713C10.7653 0.986713 10.7488 0.986714 10.7488 1.00321C10.7323 1.00321 10.6993 1.01971 10.6828 1.03621C10.6663 1.03621 10.6663 1.03621 10.6498 1.05271H10.6333C10.5838 1.06921 10.5508 1.08571 10.5014 1.1187L8.17505 2.45509C8.14205 2.47159 8.10905 2.48809 8.07605 2.52109C8.05955 2.52109 8.05955 2.53759 8.04306 2.53759C8.02656 2.55408 7.99356 2.57058 7.97706 2.58708C7.96056 2.60358 7.96056 2.60358 7.94406 2.62008C7.92756 2.63658 7.91107 2.65308 7.89457 2.66958C7.87807 2.68607 7.86157 2.68607 7.86157 2.70257C7.84507 2.71907 7.82857 2.71907 7.82857 2.73557C7.82857 2.73557 7.82857 2.73557 7.81207 2.75207C7.77908 2.78507 7.74608 2.81806 7.71308 2.86756C7.69658 2.88406 7.69658 2.88406 7.68009 2.90056C7.66359 2.91706 7.64709 2.95005 7.63059 2.96655C7.61409 2.98305 7.59759 2.99955 7.58109 3.03255C7.56459 3.04904 7.5646 3.04904 7.5481 3.06554C7.5316 3.09854 7.4986 3.13154 7.4821 3.16454L7.4656 3.18103C7.4491 3.19753 7.43261 3.23053 7.41611 3.24703C7.41611 3.24703 7.41611 3.26353 7.39961 3.26353C7.39961 3.28003 7.38311 3.28003 7.38311 3.29652C7.38311 3.31302 7.36661 3.32952 7.36661 3.32952C7.36661 3.34602 7.35011 3.34602 7.35011 3.36252C7.35011 3.37902 7.33361 3.37902 7.33361 3.39552C7.33361 3.39552 7.33361 3.41202 7.31711 3.41202C7.30062 3.42851 7.30062 3.46151 7.28412 3.47801C7.28412 3.47801 7.28412 3.49451 7.26762 3.49451C7.25112 3.52751 7.23462 3.5605 7.23462 3.5935C7.23462 3.5935 7.23462 3.5935 7.23462 3.61C7.23462 3.6265 7.23462 3.6265 7.21812 3.643C7.21812 3.6595 7.20162 3.67599 7.20162 3.70899V3.72549C7.20162 3.74199 7.18513 3.75849 7.18513 3.77498C7.18513 3.79148 7.16863 3.80798 7.16863 3.82448C7.16863 3.84098 7.16863 3.84098 7.16863 3.85748C7.16863 3.87398 7.15213 3.90697 7.15213 3.92347C7.15213 3.93997 7.15213 3.93997 7.13563 3.95647V3.97297C7.13563 4.00597 7.11913 4.03896 7.11913 4.07196C7.11913 4.08846 7.11913 4.08846 7.11913 4.10496V4.12146L6.80566 6.90973C6.70667 7.00872 6.62417 7.10771 6.52518 7.2067C6.49218 7.2397 6.45919 7.2727 6.44269 7.3057C6.37669 7.37169 6.3107 7.43769 6.2612 7.52018C6.2447 7.53668 6.2282 7.55318 6.2117 7.56967C6.19521 7.58617 6.17871 7.61917 6.16221 7.63567C6.11271 7.70166 6.06322 7.76766 5.99722 7.81715C5.96422 7.85015 5.93123 7.89965 5.89823 7.93265C5.84874 7.99864 5.78274 8.06463 5.73324 8.13063C5.71675 8.16363 5.68375 8.18012 5.66725 8.21312C5.65075 8.22962 5.65075 8.24612 5.63425 8.24612C5.58476 8.29562 5.55176 8.36161 5.50226 8.41111C5.46926 8.4606 5.43627 8.5101 5.40327 8.55959C5.35378 8.60909 5.32078 8.67509 5.27128 8.74108C5.23828 8.77408 5.22179 8.82357 5.18879 8.85657C5.18879 8.87307 5.17229 8.87307 5.17229 8.88957C5.0898 9.00506 5.0073 9.12055 4.92481 9.23604L2.79648 9.48352C2.77999 9.48352 2.77999 9.48352 2.76349 9.48352C2.74699 9.48352 2.73049 9.48352 2.73049 9.50002C2.71399 9.50002 2.69749 9.50002 2.68099 9.51652C2.68099 9.51652 2.68099 9.51652 2.66449 9.51652C2.648 9.51652 2.648 9.51652 2.6315 9.53301C2.5985 9.53301 2.582 9.54951 2.549 9.56601H2.53251C2.53251 9.56601 2.51601 9.56601 2.51601 9.58251C2.46651 9.59901 2.43351 9.63201 2.38402 9.64851C2.33452 9.665 2.30152 9.698 2.25203 9.731C2.23553 9.731 2.23553 9.7475 2.21903 9.7475C2.16954 9.78049 2.13654 9.81349 2.10354 9.84649C2.07054 9.87949 2.03755 9.89598 2.02105 9.92898C2.02105 9.92898 2.00455 9.94548 2.00455 9.96198C1.98805 9.97848 1.97155 9.99498 1.95505 10.028C1.93855 10.0445 1.92206 10.061 1.90556 10.0775C1.88906 10.094 1.88906 10.1105 1.87256 10.1105C1.85606 10.127 1.85606 10.1435 1.83956 10.1435C1.83956 10.16 1.82307 10.16 1.82307 10.1765C1.79007 10.2095 1.77357 10.2425 1.75707 10.2755C1.75707 10.2755 1.75707 10.292 1.74057 10.292C1.72407 10.3085 1.70757 10.3414 1.69108 10.3579C1.67458 10.3909 1.65808 10.4074 1.64158 10.4404C1.62508 10.4734 1.60858 10.5064 1.59208 10.5229C1.57558 10.5559 1.55908 10.5724 1.54259 10.6054C1.52609 10.6384 1.50959 10.6714 1.49309 10.7044C1.47659 10.7374 1.46009 10.7704 1.46009 10.7869L0.305187 13.7732C0.288689 13.8062 0.272191 13.8392 0.272191 13.8722C0.272191 13.8887 0.255693 13.9052 0.255693 13.9217C0.255693 13.9382 0.239194 13.9547 0.239194 13.9712C0.239194 13.9712 0.239194 13.9712 0.239194 13.9877C0.239194 14.0206 0.222694 14.0371 0.222694 14.0701C0.222694 14.0866 0.222694 14.0866 0.222694 14.1031C0.206195 14.1526 0.206197 14.2021 0.206197 14.2351V14.2516V14.2681C0.206197 14.3011 0.206196 14.3506 0.189697 14.3836C0.189697 14.4001 0.189697 14.4001 0.189697 14.4166C0.189697 14.4661 0.189697 14.4991 0.189697 14.5486C0.189697 14.5651 0.189697 14.5651 0.189697 14.5816C0.189697 14.6146 0.189698 14.6476 0.206197 14.6806C0.206197 14.6971 0.206197 14.6971 0.206197 14.7136C0.206197 14.7466 0.222695 14.7961 0.239194 14.8291V14.8456C0.255692 14.8786 0.255692 14.8951 0.272191 14.9281C0.272191 14.9281 0.272192 14.9446 0.28869 14.9446C0.305189 14.9776 0.321688 15.0106 0.338187 15.0271C0.354685 15.0436 0.371183 15.0766 0.40418 15.0931L0.42068 15.1096C0.437179 15.1261 0.470176 15.1426 0.503173 15.1591L2.5985 16.38C2.5655 16.3635 2.54901 16.347 2.51601 16.3305L2.49951 16.314C2.48301 16.2975 2.46651 16.2645 2.43351 16.248C2.41702 16.215 2.40052 16.1985 2.38402 16.1655C2.38402 16.1655 2.38402 16.149 2.36752 16.149C2.35102 16.116 2.35102 16.0995 2.33452 16.0665V16.05C2.31802 16.017 2.31802 15.984 2.30153 15.9345C2.30153 15.918 2.30153 15.918 2.30153 15.9015C2.30153 15.8685 2.28503 15.8355 2.28503 15.8025C2.28503 15.786 2.28503 15.786 2.28503 15.7695C2.28503 15.72 2.28503 15.687 2.28503 15.6375C2.28503 15.621 2.28503 15.621 2.28503 15.6045C2.28503 15.5715 2.28503 15.522 2.30153 15.489C2.30153 15.4725 2.30153 15.4725 2.30153 15.456C2.30153 15.4065 2.31802 15.3735 2.31802 15.324C2.31802 15.3075 2.31802 15.3075 2.33452 15.291C2.33452 15.258 2.35102 15.2415 2.35102 15.2086C2.35102 15.1921 2.36752 15.1591 2.36752 15.1426C2.36752 15.1261 2.38402 15.1096 2.38402 15.0931C2.40052 15.0601 2.41702 15.0271 2.41702 14.9776L3.57192 11.9913C3.58842 11.9253 3.62142 11.8593 3.65441 11.8098C3.68741 11.7438 3.72041 11.6943 3.75341 11.6283C3.7864 11.5788 3.8194 11.5294 3.8524 11.4799C3.8524 11.4799 3.8524 11.4634 3.8689 11.4634C3.90189 11.4139 3.93489 11.3644 3.96789 11.3314C3.98439 11.3149 3.98439 11.2984 4.00089 11.2984C4.01739 11.2654 4.05038 11.2489 4.08338 11.2159C4.09988 11.1994 4.11638 11.1829 4.13288 11.1499C4.16587 11.1169 4.19887 11.0839 4.24837 11.0509C4.28136 11.0179 4.33086 10.9849 4.36386 10.9519C4.38036 10.9519 4.38035 10.9354 4.39685 10.9354C4.44635 10.9024 4.47935 10.8694 4.52884 10.8529C4.57834 10.8199 4.61134 10.8034 4.66083 10.7869C4.67733 10.7869 4.67733 10.7704 4.69383 10.7704C4.72683 10.7539 4.74333 10.7539 4.77632 10.7374C4.79282 10.7374 4.79282 10.7374 4.80932 10.7209C4.82582 10.7209 4.84232 10.7209 4.85882 10.7044C4.87531 10.7044 4.90831 10.6879 4.92481 10.6879L7.05314 10.4404C7.13563 10.3249 7.21812 10.2095 7.30062 10.094C7.33361 10.0445 7.36661 9.99498 7.39961 9.94548C7.4491 9.87949 7.4821 9.82999 7.5316 9.764C7.56459 9.7145 7.59759 9.665 7.63059 9.61551C7.68009 9.56601 7.71308 9.50002 7.76258 9.45052C7.79558 9.41752 7.82857 9.36803 7.86157 9.33503C7.91107 9.26904 7.97706 9.20304 8.02656 9.13705C8.05955 9.08755 8.09255 9.05455 8.12555 9.02156C8.17505 8.95556 8.22454 8.88957 8.29054 8.84007C8.32353 8.80707 8.35653 8.75758 8.38953 8.72458C8.45552 8.65859 8.52152 8.59259 8.57101 8.5101C8.60401 8.4771 8.63701 8.4441 8.65351 8.41111C8.7525 8.31211 8.83499 8.21312 8.93398 8.11413L9.24746 5.32586C9.24746 5.30936 9.24746 5.29286 9.26396 5.27636C9.26396 5.24337 9.28045 5.21037 9.28045 5.17737C9.28045 5.16087 9.28045 5.14437 9.29695 5.11138C9.29695 5.09488 9.31345 5.06188 9.31345 5.04538C9.31345 5.02888 9.32995 4.99589 9.32995 4.97939C9.32995 4.96289 9.34645 4.94639 9.34645 4.92989C9.36295 4.89689 9.36295 4.88039 9.37945 4.8474C9.37945 4.8309 9.37945 4.8309 9.39594 4.8144C9.41244 4.7814 9.42894 4.73191 9.44544 4.69891C9.44544 4.69891 9.44544 4.68241 9.46194 4.68241C9.47844 4.64941 9.49494 4.61642 9.51143 4.59992C9.51143 4.58342 9.52793 4.58342 9.52793 4.56692C9.54443 4.53392 9.56093 4.51742 9.56093 4.48443C9.56093 4.46793 9.57743 4.46793 9.57743 4.45143C9.59393 4.41843 9.61043 4.40193 9.62692 4.36894L9.64342 4.35244C9.65992 4.31944 9.69292 4.28644 9.70942 4.25345C9.72592 4.23695 9.72592 4.23695 9.74242 4.22045C9.75892 4.20395 9.77541 4.17095 9.79191 4.15445C9.80841 4.13796 9.82491 4.10496 9.84141 4.08846C9.85791 4.07196 9.85791 4.05546 9.8744 4.05546C9.9074 4.02247 9.9404 3.97297 9.9734 3.93997C9.9899 3.92347 10.0064 3.90697 10.0229 3.89048C10.0394 3.87398 10.0559 3.87398 10.0559 3.85748C10.0724 3.84098 10.0889 3.82448 10.1054 3.80798C10.1219 3.79148 10.1219 3.79148 10.1384 3.77498C10.1549 3.75849 10.1879 3.74199 10.2044 3.72549C10.2209 3.72549 10.2209 3.70899 10.2374 3.70899C10.2704 3.69249 10.3034 3.6595 10.3364 3.643L12.6627 2.30661C12.7122 2.27361 12.7617 2.25711 12.7947 2.24061C12.8112 2.24061 12.8277 2.22411 12.8442 2.22411C12.8772 2.20761 12.8937 2.20761 12.9102 2.19111C12.9267 2.19111 12.9432 2.17462 12.9597 2.17462C12.9762 2.17462 12.9926 2.17462 13.0091 2.15812C13.0256 2.15812 13.0421 2.15812 13.0586 2.14162C13.0751 2.14162 13.0751 2.14162 13.0916 2.14162C13.1081 2.14162 13.1411 2.14162 13.1576 2.14162H13.1741C13.2071 2.14162 13.2236 2.14162 13.2566 2.15812H13.2731C13.2896 2.15812 13.3061 2.17462 13.3391 2.17462H13.3556C13.3886 2.19111 13.4051 2.19111 13.4216 2.20761L11.2768 1.01971Z" fill="url(#paint6_linear)"/>
<path d="M20.2691 12.0243C20.6981 12.1563 20.8136 12.7833 20.5496 13.4762L19.3947 16.4625C19.1967 16.9739 18.8338 17.4194 18.4543 17.6339C18.3223 17.7164 18.1903 17.7659 18.0583 17.7824L15.93 18.0298C15.3525 18.9043 14.7256 19.6797 14.0656 20.3561L13.7522 23.1444C13.6697 23.8044 13.2242 24.5303 12.6798 24.8438L10.3535 26.1802C9.809 26.4936 9.34703 26.2957 9.28104 25.7347L8.95107 23.3259C8.29112 23.4249 7.64767 23.3589 7.08672 23.1609L4.95839 25.3717C4.8264 25.5037 4.69441 25.6192 4.56242 25.6852C4.18295 25.8997 3.81998 25.8832 3.622 25.6027L2.45059 23.9694C2.18662 23.5899 2.30211 22.8309 2.71457 22.204L4.51293 19.5477C4.46343 19.1682 4.43043 18.7723 4.43043 18.3433C4.43043 17.9308 4.44693 17.5019 4.51293 17.0564L2.71457 16.479C2.28561 16.347 2.17012 15.72 2.4341 15.0271L3.589 12.0408C3.78699 11.5294 4.14996 11.0839 4.52943 10.8694C4.66141 10.7869 4.7934 10.7374 4.92539 10.7209L7.05372 10.4735C7.63117 9.59903 8.25812 8.82359 8.91807 8.14715L9.23154 5.35887C9.31403 4.69893 9.776 3.97299 10.304 3.65951L12.6303 2.32312C13.1747 2.00965 13.6367 2.20763 13.7027 2.76859L14.0327 5.17739C14.6926 5.0784 15.336 5.14439 15.897 5.34238L18.0253 3.13156C18.1573 2.99957 18.2893 2.88408 18.4213 2.80158C18.8008 2.5871 19.1637 2.6036 19.3617 2.88408L20.5331 4.51744C20.7971 4.89691 20.6816 5.65585 20.2691 6.2828L18.4708 8.92258C18.5203 9.30205 18.5533 9.69802 18.5533 10.127C18.5533 10.5395 18.5368 10.9849 18.4708 11.4139L20.2691 12.0243ZM11.4919 18.6238C13.5872 17.4029 15.303 14.4661 15.2865 12.0408C15.2865 9.63203 13.5707 8.64211 11.4589 9.86301C9.36353 11.0839 7.64767 14.0207 7.66417 16.446C7.68067 18.8548 9.39653 19.8282 11.4919 18.6238Z" fill="url(#paint7_linear)"/>
<path d="M26.2041 20.8534L25.3053 20.3291L25.2991 18.8749L26.1978 19.3929L26.2041 20.8534Z" fill="url(#paint8_linear)"/>
<path d="M26.1854 15.9913L25.2866 15.4733L27.8643 16.422L28.7631 16.94L26.1854 15.9913Z" fill="url(#paint9_linear)"/>
<path d="M26.1916 17.4518L25.2929 16.9275L25.2866 15.4733L26.1854 15.9913L26.1916 17.4518Z" fill="url(#paint10_linear)"/>
<path d="M24.4752 18.4442L23.5764 17.9199L25.2928 16.9275L26.1916 17.4518L24.4752 18.4442Z" fill="url(#paint11_linear)"/>
<path d="M24.3256 18.7751C24.3505 18.719 24.3755 18.6565 24.4067 18.6004C24.4129 18.5941 24.4129 18.5816 24.4192 18.5754C24.4379 18.5317 24.4566 18.488 24.4754 18.4443L23.5766 17.92C23.5516 17.97 23.5329 18.0261 23.5079 18.0761C23.483 18.1385 23.458 18.1947 23.4268 18.2508C23.4205 18.2633 23.4143 18.2758 23.4081 18.2945C23.3769 18.3694 23.3457 18.4381 23.3082 18.5067C23.302 18.5255 23.2895 18.5442 23.2832 18.5629C23.2583 18.6128 23.2333 18.6628 23.2021 18.719C23.1896 18.7439 23.1771 18.7689 23.1646 18.7938C23.1397 18.8375 23.121 18.8875 23.0898 18.9312C23.0773 18.9561 23.0648 18.9811 23.0461 19.0061C23.0211 19.056 22.9899 19.1122 22.9649 19.1621C22.9587 19.1808 22.9462 19.1995 22.9337 19.2183C22.8963 19.2869 22.8526 19.3556 22.8151 19.4305C22.8089 19.443 22.8026 19.4554 22.7902 19.4742C22.759 19.5303 22.7215 19.5928 22.6903 19.6489C22.6778 19.6739 22.6653 19.6926 22.6466 19.7176C22.6154 19.7675 22.5842 19.8174 22.553 19.8674C22.5405 19.8923 22.528 19.9111 22.5093 19.9298C22.4656 19.9984 22.4157 20.0733 22.372 20.142C22.372 20.142 22.372 20.1482 22.3657 20.1482C22.3221 20.2169 22.2721 20.2856 22.2222 20.3605C22.2097 20.3792 22.1972 20.4041 22.1785 20.4229C22.141 20.4728 22.1098 20.5227 22.0724 20.5727C22.0599 20.5914 22.0474 20.6164 22.0287 20.6351C21.9788 20.6975 21.9288 20.7724 21.8789 20.8348L22.7777 21.3591C22.8276 21.2967 22.8775 21.2218 22.9275 21.1594C22.94 21.1406 22.9524 21.1157 22.9712 21.0969C23.0086 21.047 23.0398 20.9971 23.0773 20.9472C23.0835 20.9347 23.096 20.9222 23.1022 20.9097C23.1085 20.9035 23.1085 20.891 23.121 20.8847C23.1646 20.8161 23.2208 20.7474 23.2645 20.6725C23.2645 20.6725 23.2645 20.6725 23.2645 20.6663C23.3082 20.5976 23.3581 20.5227 23.4018 20.4541C23.4081 20.4478 23.4081 20.4416 23.4143 20.4291C23.4205 20.4166 23.433 20.4041 23.4393 20.3854C23.4705 20.3355 23.5017 20.2856 23.5329 20.2356C23.5454 20.2107 23.5579 20.1919 23.5766 20.167C23.6078 20.1108 23.6452 20.0484 23.6764 19.9922C23.6827 19.986 23.6889 19.9672 23.6952 19.961C23.6952 19.9548 23.7014 19.9548 23.7014 19.9548C23.7451 19.8861 23.7826 19.8174 23.82 19.7425C23.8262 19.7238 23.8387 19.7051 23.8512 19.6864C23.8762 19.6364 23.9074 19.5803 23.9323 19.5303C23.9386 19.5241 23.9386 19.5116 23.9511 19.4991C23.9573 19.4867 23.9636 19.4742 23.976 19.4554C24.001 19.4118 24.026 19.3618 24.0509 19.3181C24.0634 19.2932 24.0759 19.2682 24.0884 19.2432C24.1133 19.1933 24.1383 19.1434 24.1695 19.0872C24.1758 19.0747 24.182 19.056 24.1945 19.0435C24.1945 19.0373 24.2007 19.0373 24.2007 19.031C24.2319 18.9624 24.2694 18.8875 24.3006 18.8188C24.3131 18.8063 24.3193 18.7876 24.3256 18.7751Z" fill="url(#paint12_linear)"/>
<path d="M26.1856 15.9913L28.757 16.94L26.198 20.8534L26.1918 19.3992L22.7715 21.3777C23.4518 20.4852 24.0385 19.4803 24.4754 18.4505L26.1918 17.4581L26.1856 15.9913Z" fill="#EBEBFF"/>
<path d="M21.9413 14.1189L21.0426 13.5946C21.5731 13.9004 21.8976 14.5495 21.8976 15.4733C21.8976 15.5232 21.8976 15.5794 21.8914 15.6356C21.8914 15.6543 21.8914 15.6668 21.8852 15.6855C21.8852 15.7229 21.8789 15.7604 21.8789 15.8041C21.8789 15.8228 21.8727 15.8415 21.8727 15.8603C21.8664 15.8977 21.8664 15.9351 21.8664 15.9726C21.8664 15.9913 21.8602 16.01 21.8602 16.0225C21.854 16.0475 21.854 16.0725 21.854 16.1037C21.8477 16.1411 21.8477 16.1848 21.8352 16.2223C21.829 16.2472 21.829 16.2722 21.8227 16.3034C21.8165 16.3408 21.8103 16.3783 21.7978 16.422C21.7915 16.4532 21.7853 16.4844 21.7791 16.5156C21.7728 16.5406 21.7728 16.5655 21.7603 16.5905C21.7541 16.6217 21.7416 16.6592 21.7354 16.6904C21.7291 16.7153 21.7229 16.7403 21.7166 16.7653C21.7104 16.809 21.6917 16.8464 21.6792 16.8901C21.673 16.9026 21.6729 16.9151 21.6667 16.9338C21.648 16.99 21.6293 17.0461 21.6105 17.1023C21.6043 17.1085 21.6043 17.121 21.6043 17.1335C21.5918 17.1772 21.5731 17.2271 21.5606 17.2708C21.5544 17.2895 21.5481 17.302 21.5419 17.3208C21.5294 17.352 21.5169 17.3832 21.5044 17.4144C21.4795 17.4768 21.4483 17.5517 21.4233 17.6141C21.4171 17.6391 21.4046 17.6578 21.3983 17.6765C21.3734 17.7327 21.3484 17.7951 21.3172 17.8513C21.3047 17.8762 21.2922 17.9012 21.2797 17.9262C21.2548 17.9823 21.2236 18.0448 21.1924 18.1009C21.1861 18.1259 21.1674 18.1446 21.1612 18.1634C21.1299 18.2258 21.0925 18.2882 21.055 18.3568C21.0426 18.3818 21.0301 18.4005 21.0176 18.4192C20.9801 18.4817 20.9365 18.5503 20.899 18.6127C20.8865 18.6315 20.874 18.6564 20.8616 18.6751C20.8179 18.7376 20.7742 18.8125 20.7242 18.8749C20.7118 18.8936 20.6993 18.9123 20.6868 18.9248C20.6369 18.9997 20.5869 19.0684 20.5308 19.137C20.512 19.162 20.4933 19.1807 20.4746 19.2057C20.4621 19.2182 20.4496 19.2369 20.4371 19.2494C20.4122 19.2743 20.3935 19.3055 20.3685 19.3305C20.3622 19.343 20.3435 19.3555 20.3373 19.3742C20.3123 19.3992 20.2873 19.4366 20.2624 19.4616C20.2187 19.5177 20.1625 19.5677 20.1188 19.6239C20.0689 19.6738 20.019 19.7237 19.969 19.7799C19.9378 19.8111 19.9066 19.8423 19.8754 19.8735C19.8692 19.8798 19.8567 19.8922 19.8504 19.8985C19.8068 19.9422 19.7631 19.9796 19.7194 20.0171C19.7131 20.0233 19.6944 20.0358 19.6882 20.042C19.657 20.067 19.6258 20.0982 19.5883 20.1232C19.5758 20.1357 19.5571 20.1481 19.5446 20.1606C19.5196 20.1856 19.4884 20.2043 19.4572 20.2293C19.4385 20.2418 19.426 20.2542 19.4073 20.2667C19.3823 20.2917 19.3511 20.3104 19.3199 20.3291C19.3012 20.3416 19.2887 20.3541 19.27 20.3666C19.2388 20.3916 19.2076 20.4103 19.1764 20.429C19.1639 20.4352 19.1514 20.4477 19.1327 20.454C19.089 20.4789 19.0391 20.5164 18.9954 20.5351L13.4717 23.7245L14.3704 24.2488L19.8941 21.0594C19.9378 21.0344 19.9878 21.0032 20.0314 20.9782C20.0439 20.972 20.0564 20.9595 20.0751 20.9533C20.1063 20.9346 20.1376 20.9096 20.1688 20.8909C20.1875 20.8784 20.2 20.8659 20.2187 20.8534C20.2437 20.8347 20.2749 20.8097 20.3061 20.791C20.3248 20.7785 20.3435 20.766 20.356 20.7536C20.381 20.7286 20.4184 20.7099 20.4434 20.6849C20.4559 20.6724 20.4746 20.6599 20.4871 20.6474C20.5183 20.6225 20.5495 20.5913 20.5869 20.5663C20.5932 20.5601 20.6119 20.5476 20.6181 20.5413C20.6618 20.5039 20.7055 20.4602 20.7492 20.4228C20.7555 20.4165 20.7679 20.404 20.7742 20.3978C20.7991 20.3728 20.8304 20.3479 20.8553 20.3167C20.8616 20.3104 20.8616 20.3104 20.8678 20.3042C20.9677 20.2043 21.0675 20.0982 21.1674 19.9859C21.1736 19.9796 21.1736 19.9796 21.1799 19.9734C21.2423 19.9047 21.2985 19.8298 21.3609 19.7549C21.3671 19.7487 21.3671 19.7424 21.3734 19.7362C21.3858 19.7175 21.3983 19.705 21.4171 19.6863C21.4233 19.68 21.4295 19.6675 21.442 19.6551C21.4919 19.5926 21.5419 19.524 21.5918 19.4553C21.5981 19.4428 21.6105 19.4304 21.6168 19.4179C21.623 19.4116 21.6293 19.3992 21.6355 19.3929C21.6792 19.3305 21.7166 19.2743 21.7541 19.2119C21.7603 19.1994 21.7728 19.1869 21.7791 19.1682C21.7853 19.162 21.7915 19.1433 21.7978 19.137C21.8352 19.0808 21.8664 19.0184 21.9039 18.9623C21.9101 18.9498 21.9226 18.9373 21.9289 18.9186C21.9351 18.9061 21.9413 18.8936 21.9538 18.8749C21.985 18.8187 22.0162 18.7625 22.0474 18.7064C22.0537 18.6939 22.0599 18.6814 22.0724 18.6627C22.0786 18.6439 22.0911 18.6315 22.0974 18.6127C22.1223 18.5566 22.1535 18.5004 22.1785 18.4442C22.1847 18.4317 22.191 18.4192 22.1972 18.4068C22.2035 18.388 22.216 18.3631 22.2222 18.3444C22.2409 18.3007 22.2659 18.257 22.2846 18.2133C22.2909 18.1883 22.3033 18.1696 22.3096 18.1509C22.3158 18.1259 22.3283 18.1072 22.3345 18.0885C22.3533 18.0448 22.372 18.0011 22.3907 17.9511C22.397 17.9262 22.4094 17.9074 22.4157 17.8887C22.4219 17.87 22.4282 17.8575 22.4344 17.8388C22.4406 17.8201 22.4469 17.8076 22.4531 17.7889C22.4719 17.7452 22.4843 17.7015 22.4968 17.6516C22.5031 17.6453 22.5031 17.6328 22.5031 17.6203C22.5031 17.6141 22.5031 17.6141 22.5093 17.6141C22.528 17.5579 22.5405 17.508 22.5592 17.4518C22.5655 17.4393 22.5655 17.4269 22.5717 17.4081C22.578 17.3769 22.5904 17.3457 22.5967 17.3083C22.6029 17.302 22.6029 17.2895 22.6029 17.2833C22.6092 17.2583 22.6154 17.2334 22.6217 17.2084C22.6279 17.1772 22.6404 17.1398 22.6466 17.1085C22.6529 17.0836 22.6591 17.0586 22.6653 17.0274C22.6716 17.0087 22.6716 16.99 22.6778 16.9712C22.6841 16.9587 22.6841 16.9463 22.6841 16.9338C22.6903 16.8963 22.6965 16.8589 22.709 16.8152C22.7153 16.7902 22.7153 16.7653 22.7215 16.7341C22.7278 16.6904 22.734 16.6529 22.7402 16.6155C22.7465 16.5967 22.7465 16.578 22.7465 16.5593C22.7465 16.5531 22.7465 16.5468 22.7527 16.5343C22.7527 16.5156 22.759 16.4969 22.759 16.4782C22.7652 16.4407 22.7652 16.4033 22.7652 16.3658C22.7652 16.3471 22.7714 16.3284 22.7714 16.3034C22.7777 16.2659 22.7777 16.2285 22.7777 16.191C22.7777 16.1723 22.7777 16.1598 22.7839 16.1411C22.7839 16.0849 22.7902 16.035 22.7902 15.9788C22.7964 15.0738 22.4656 14.431 21.9413 14.1189Z" fill="url(#paint13_linear)"/>
<path d="M17.7469 21.3091L16.8481 20.7848C16.8606 20.791 16.8731 20.7973 16.8856 20.8035L17.7844 21.3278C17.7719 21.3216 17.7594 21.3216 17.7469 21.3091Z" fill="url(#paint14_linear)"/>
<path d="M17.7469 21.3091L16.8481 20.7848C16.8544 20.791 16.8544 20.791 16.8606 20.791L17.7594 21.3153C17.7594 21.3216 17.7532 21.3153 17.7469 21.3091Z" fill="url(#paint15_linear)"/>
<path d="M17.7608 21.3231L16.8621 20.7988C16.8683 20.8051 16.8745 20.8051 16.8808 20.8051L17.7796 21.3294C17.7796 21.3294 17.7733 21.3231 17.7608 21.3231Z" fill="url(#paint16_linear)"/>
<path d="M14.3329 26.246L13.4341 25.7217L13.4216 23.7806L14.3204 24.2987L14.3329 26.246Z" fill="url(#paint17_linear)"/>
<path d="M22.3219 11.7596C22.3531 11.7658 22.3843 11.7658 22.4155 11.7721C22.4217 11.7721 22.4342 11.7783 22.4405 11.7783C22.4654 11.7846 22.4966 11.7908 22.5216 11.797C22.5278 11.8033 22.5466 11.8033 22.5528 11.8033C22.5965 11.8158 22.6527 11.8282 22.6964 11.847C22.7088 11.8532 22.7213 11.8532 22.74 11.8595C22.7588 11.8657 22.7713 11.8719 22.79 11.8782C22.8149 11.8844 22.8337 11.8907 22.8524 11.9031C22.8649 11.9094 22.8836 11.9156 22.8961 11.9219C22.9211 11.9281 22.9398 11.9406 22.9585 11.9468C22.971 11.9531 22.9835 11.9593 23.0022 11.9656C23.0272 11.978 23.0459 11.9905 23.0708 12.003C23.0896 12.0093 23.1021 12.0217 23.1208 12.028L22.222 11.5037C22.2158 11.4975 22.2033 11.4974 22.197 11.4912C22.1908 11.485 22.1846 11.485 22.1721 11.4787C22.1471 11.4662 22.1284 11.4538 22.0972 11.4413C22.0847 11.435 22.0722 11.4288 22.0597 11.4226C22.0348 11.4101 22.0098 11.3976 21.9848 11.3913C21.9786 11.3851 21.9661 11.3851 21.9599 11.3851C21.9536 11.3851 21.9536 11.3789 21.9536 11.3789C21.9162 11.3664 21.885 11.3539 21.8475 11.3352C21.8413 11.3289 21.8288 11.3289 21.8226 11.3289C21.7976 11.3227 21.7664 11.3102 21.7414 11.304C21.7352 11.304 21.7352 11.2977 21.7289 11.2977C21.7227 11.2915 21.704 11.2915 21.6977 11.2915C21.6728 11.2852 21.654 11.2852 21.6353 11.2728C21.6166 11.2665 21.5979 11.2665 21.5791 11.2603C21.5604 11.254 21.5354 11.254 21.5167 11.2478C21.5042 11.2416 21.4918 11.2415 21.473 11.2415C21.4668 11.2415 21.4668 11.2416 21.4543 11.2353C21.4293 11.2291 21.4106 11.2291 21.3794 11.2291C21.342 11.2228 21.3045 11.2228 21.2733 11.2166C21.2546 11.2166 21.2421 11.2103 21.2234 11.2103C21.2171 11.2103 21.2046 11.2103 21.1922 11.2041C21.1797 11.2041 21.1672 11.2041 21.1485 11.2041C21.1298 11.2041 21.111 11.2041 21.0923 11.2041C21.0673 11.2041 21.0424 11.2041 21.0112 11.2041C20.9987 11.2041 20.9862 11.2041 20.9675 11.2041C20.9425 11.2041 20.9113 11.2041 20.8801 11.2041C20.8614 11.2041 20.8364 11.2103 20.8177 11.2103C20.7927 11.2103 20.774 11.2166 20.749 11.2166C20.7241 11.2228 20.6928 11.2228 20.6679 11.2228C20.6429 11.2291 20.6242 11.2291 20.5992 11.2291C20.5743 11.2353 20.5555 11.2353 20.5368 11.2353C20.5118 11.2416 20.4931 11.2416 20.4682 11.2478C20.4307 11.254 20.3933 11.2603 20.3496 11.2728C20.3246 11.279 20.2872 11.2852 20.2622 11.2915C20.2247 11.2977 20.1873 11.3102 20.1498 11.3164C20.1436 11.3164 20.1374 11.3227 20.1311 11.3227C20.0874 11.3352 20.0313 11.3477 19.9813 11.3664C19.9751 11.3726 19.9626 11.3726 19.9501 11.3726C19.9002 11.3851 19.8503 11.4038 19.7941 11.4226C19.7816 11.4288 19.7691 11.4288 19.7504 11.435C19.6942 11.46 19.638 11.4787 19.5819 11.4975C19.5756 11.4975 19.5756 11.5037 19.5694 11.5037C19.5631 11.5099 19.5569 11.5099 19.5507 11.5099C19.4882 11.5349 19.4196 11.5661 19.3572 11.5973L20.2559 12.1216C20.3184 12.0904 20.387 12.0592 20.4494 12.0342C20.4557 12.028 20.4619 12.028 20.4682 12.028C20.5306 12.003 20.5867 11.978 20.6492 11.9593C20.6616 11.9531 20.6741 11.9531 20.6928 11.9468C20.7428 11.9281 20.7927 11.9094 20.8489 11.8969C20.8551 11.8907 20.8676 11.8907 20.8801 11.8907C20.9363 11.8719 20.9924 11.8595 21.0486 11.847C21.0861 11.8407 21.1235 11.8282 21.161 11.822C21.1859 11.8158 21.2234 11.8095 21.2483 11.8033C21.2858 11.797 21.3295 11.7908 21.3669 11.7783C21.6977 11.7221 22.016 11.7159 22.3094 11.7534C22.3156 11.7596 22.3156 11.7596 22.3219 11.7596Z" fill="url(#paint18_linear)"/>
<path d="M20.2436 10.6674L20.2498 12.1528C22.6216 11.0294 24.4815 12.2402 24.494 15.0301C24.5002 17.9699 22.4468 21.54 19.8878 23.0379L14.3329 26.246L14.3267 24.3049L19.8503 21.1156C21.4856 20.1731 22.8088 17.8825 22.8026 16.0038C22.7963 14.2936 21.6916 13.5259 20.256 14.1189L20.2623 15.5295L17.7158 14.5683L20.2436 10.6674Z" fill="#EBEBFF"/>
<path d="M17.7157 14.562L16.8169 14.0377L19.3447 10.1431L20.2435 10.6673L17.7157 14.562Z" fill="url(#paint19_linear)"/>
<path d="M16.7669 15.4608L15.8682 14.9427L17.1976 15.4483L18.0964 15.9663L16.7669 15.4608Z" fill="url(#paint20_linear)"/>
<path d="M15.1943 20.1981C15.1943 20.1794 15.1943 20.1669 15.1943 20.1481C15.1943 20.0857 15.2006 20.0296 15.2006 19.9609C15.2006 19.9547 15.2006 19.9547 15.2006 19.9484C15.2068 19.886 15.2068 19.8111 15.2193 19.7487C15.2193 19.73 15.2255 19.7175 15.2255 19.6988C15.2318 19.6363 15.238 19.5802 15.2442 19.524C15.2442 19.5178 15.2442 19.5053 15.2505 19.499C15.2567 19.4678 15.2567 19.4366 15.263 19.3992C15.2692 19.3805 15.2692 19.3617 15.2692 19.343C15.2755 19.2993 15.2817 19.2619 15.2879 19.2182C15.2879 19.2119 15.2942 19.1932 15.2942 19.187C15.3004 19.137 15.3129 19.0809 15.3191 19.0309C15.3254 19.0184 15.3254 19.006 15.3254 18.9935C15.3316 18.9498 15.3379 18.9123 15.3504 18.8749C15.3504 18.8687 15.3566 18.8687 15.3566 18.8562C15.3691 18.7813 15.3878 18.7064 15.4065 18.6252C15.4128 18.6128 15.4128 18.6003 15.4128 18.5878C15.4315 18.5129 15.4502 18.4317 15.4752 18.3569C15.4814 18.3381 15.4814 18.3256 15.4877 18.3069C15.5064 18.2445 15.5251 18.1821 15.5438 18.1134C15.5438 18.1072 15.5501 18.101 15.5501 18.0885C15.575 18.0198 15.5938 17.9512 15.6125 17.8825C15.6187 17.8638 15.625 17.8451 15.6312 17.8263C15.6499 17.7764 15.6687 17.7265 15.6874 17.6703C15.6936 17.6578 15.6936 17.6453 15.6999 17.6266C15.7248 17.5642 15.7436 17.4955 15.7685 17.4331C15.7748 17.4206 15.781 17.4019 15.7873 17.3894C15.806 17.3457 15.8247 17.2958 15.8434 17.2459C15.8497 17.2271 15.8559 17.2084 15.8684 17.1897C15.8871 17.1398 15.9121 17.0898 15.9308 17.0399C15.9371 17.0274 15.9371 17.0149 15.9433 17.0025C15.9683 16.94 15.9932 16.8839 16.0244 16.8215C16.0307 16.809 16.0369 16.7965 16.0494 16.7778C16.0744 16.7341 16.0931 16.6841 16.1118 16.6405C16.1181 16.6217 16.1305 16.603 16.1368 16.5843C16.1617 16.5406 16.1805 16.4969 16.1992 16.447C16.2054 16.4345 16.2117 16.4158 16.2242 16.4033C16.2491 16.3409 16.2866 16.2847 16.3178 16.2285C16.324 16.2223 16.3303 16.2035 16.3365 16.1973C16.3615 16.1474 16.3864 16.0974 16.4176 16.0538C16.4239 16.035 16.4364 16.0163 16.4489 15.9976C16.4738 15.9539 16.4988 15.9102 16.5237 15.8665C16.53 15.854 16.5425 15.8415 16.5487 15.8228C16.6111 15.7167 16.6735 15.6106 16.7422 15.5045L15.8434 14.9802C15.781 15.0801 15.7124 15.1924 15.6499 15.2985C15.6499 15.3048 15.6437 15.3048 15.6437 15.3048C15.6375 15.311 15.6312 15.3297 15.625 15.336C15.6 15.3797 15.575 15.4234 15.5501 15.4671C15.5438 15.4858 15.5314 15.5045 15.5189 15.5232C15.4939 15.5669 15.4689 15.6231 15.4377 15.6668C15.4315 15.673 15.4315 15.6855 15.4253 15.6918L15.419 15.698C15.3878 15.7604 15.3566 15.8166 15.3254 15.8728C15.3191 15.8852 15.3129 15.904 15.3004 15.9164C15.2755 15.9601 15.2567 16.0038 15.238 16.0538C15.2318 16.06 15.2318 16.0725 15.2255 16.0787C15.2193 16.085 15.2193 16.0974 15.213 16.1037C15.1881 16.1474 15.1694 16.1973 15.1506 16.241C15.1444 16.2535 15.1381 16.2722 15.1257 16.2847C15.1007 16.3471 15.0695 16.4033 15.0445 16.4657C15.0445 16.4719 15.0383 16.4719 15.0383 16.4719C15.032 16.4782 15.032 16.4907 15.0258 16.4969C15.0008 16.5468 14.9821 16.5968 14.9634 16.6467C14.9571 16.6654 14.9509 16.6841 14.9384 16.7029C14.9197 16.7466 14.901 16.7965 14.8822 16.8464C14.876 16.8527 14.876 16.8714 14.8698 16.8776C14.8698 16.8839 14.8635 16.8839 14.8635 16.8901C14.8386 16.9525 14.8198 17.0212 14.7949 17.0836C14.7886 17.0961 14.7886 17.1086 14.7824 17.1273C14.7637 17.1772 14.7449 17.2271 14.7262 17.2833C14.72 17.2896 14.72 17.302 14.72 17.3145C14.7137 17.3208 14.7137 17.327 14.7137 17.3395C14.6888 17.4082 14.67 17.4768 14.6513 17.5455C14.6513 17.5517 14.6451 17.5579 14.6451 17.5704C14.6263 17.6328 14.6076 17.6953 14.5889 17.7639C14.5827 17.7702 14.5827 17.7826 14.5827 17.7889C14.5827 17.7951 14.5764 17.8014 14.5764 17.8076C14.5514 17.8825 14.5327 17.9636 14.514 18.0385C14.5078 18.051 14.5078 18.0635 14.5078 18.076C14.489 18.1509 14.4703 18.2258 14.4578 18.3069C14.4578 18.3132 14.4578 18.3132 14.4516 18.3194V18.3256C14.4453 18.3631 14.4391 18.4068 14.4266 18.4442C14.4204 18.4567 14.4204 18.4692 14.4204 18.4879C14.4141 18.5379 14.4017 18.594 14.3954 18.644C14.3954 18.6564 14.3892 18.6689 14.3892 18.6814C14.3829 18.7251 14.3767 18.7625 14.3704 18.8062C14.3642 18.825 14.3642 18.8437 14.3642 18.8624C14.358 18.8936 14.358 18.9248 14.3517 18.9623C14.3517 18.9685 14.3517 18.9685 14.3517 18.9685C14.3517 18.9748 14.3517 18.981 14.3455 18.9872C14.3392 19.0497 14.333 19.1058 14.3268 19.162C14.3268 19.1807 14.3205 19.1932 14.3205 19.2119C14.3143 19.2743 14.308 19.3492 14.3018 19.4117C14.3018 19.4179 14.3018 19.4179 14.3018 19.4241C14.2955 19.4866 14.2955 19.5427 14.2955 19.6114C14.2955 19.6301 14.2955 19.6426 14.2955 19.6613C14.2955 19.7237 14.2893 19.7924 14.2893 19.8548C14.2955 20.7348 14.489 21.4401 14.8198 21.9831L15.7186 22.5074C15.394 21.9644 15.1881 21.2591 15.1881 20.3791C15.1881 20.3354 15.1881 20.2605 15.1943 20.1981Z" fill="url(#paint21_linear)"/>
<path d="M16.7671 15.4607L18.1028 15.9663C17.3663 17.0086 16.8795 18.2881 16.8857 19.4178C16.892 20.3665 17.2352 21.0343 17.7907 21.3339L15.7248 22.526C15.4002 21.983 15.1943 21.2777 15.1943 20.3977C15.1818 18.7936 15.7935 17.0086 16.7671 15.4607Z" fill="#EBEBFF"/>
<defs>
<linearGradient id="paint0_linear" x1="6.8411" y1="24.1584" x2="9.57409" y2="24.1584" gradientUnits="userSpaceOnUse">
<stop stop-color="#7E5AFF"/>
<stop offset="0.4888" stop-color="#662EFF"/>
<stop offset="0.8021" stop-color="#7448FF"/>
<stop offset="1" stop-color="#7E5AFF"/>
</linearGradient>
<linearGradient id="paint1_linear" x1="16.3746" y1="11.1266" x2="20.2763" y2="11.1266" gradientUnits="userSpaceOnUse">
<stop stop-color="#7E5AFF"/>
<stop offset="0.4888" stop-color="#662EFF"/>
<stop offset="0.8021" stop-color="#7448FF"/>
<stop offset="1" stop-color="#7E5AFF"/>
</linearGradient>
<linearGradient id="paint2_linear" x1="6.68292" y1="13.7594" x2="15.2859" y2="13.7594" gradientUnits="userSpaceOnUse">
<stop stop-color="#7E5AFF"/>
<stop offset="0.4888" stop-color="#662EFF"/>
<stop offset="0.8021" stop-color="#7448FF"/>
<stop offset="1" stop-color="#7E5AFF"/>
</linearGradient>
<linearGradient id="paint3_linear" x1="11.9174" y1="3.39933" x2="19.1895" y2="3.39933" gradientUnits="userSpaceOnUse">
<stop stop-color="#7E5AFF"/>
<stop offset="0.4888" stop-color="#662EFF"/>
<stop offset="0.8021" stop-color="#7448FF"/>
<stop offset="1" stop-color="#7E5AFF"/>
</linearGradient>
<linearGradient id="paint4_linear" x1="0.184998" y1="22.0247" x2="4.48941" y2="22.0247" gradientUnits="userSpaceOnUse">
<stop stop-color="#7E5AFF"/>
<stop offset="0.4888" stop-color="#662EFF"/>
<stop offset="0.8021" stop-color="#7448FF"/>
<stop offset="1" stop-color="#7E5AFF"/>
</linearGradient>
<linearGradient id="paint5_linear" x1="2.30547" y1="17.673" x2="4.48936" y2="17.673" gradientUnits="userSpaceOnUse">
<stop stop-color="#7E5AFF"/>
<stop offset="0.4888" stop-color="#662EFF"/>
<stop offset="0.8021" stop-color="#7448FF"/>
<stop offset="1" stop-color="#7E5AFF"/>
</linearGradient>
<linearGradient id="paint6_linear" x1="0.162392" y1="8.68035" x2="13.379" y2="8.68035" gradientUnits="userSpaceOnUse">
<stop stop-color="#7E5AFF"/>
<stop offset="0.4888" stop-color="#662EFF"/>
<stop offset="0.8021" stop-color="#7448FF"/>
<stop offset="1" stop-color="#7E5AFF"/>
</linearGradient>
<linearGradient id="paint7_linear" x1="-6.0554" y1="11.7926" x2="27.7387" y2="14.608" gradientUnits="userSpaceOnUse">
<stop stop-color="#C8C5FF"/>
<stop offset="0.5032" stop-color="#A288FF"/>
<stop offset="0.7309" stop-color="#B2A2FF"/>
<stop offset="1" stop-color="#C8C5FF"/>
</linearGradient>
<linearGradient id="paint8_linear" x1="25.2991" y1="19.8641" x2="26.2041" y2="19.8641" gradientUnits="userSpaceOnUse">
<stop stop-color="#DEDEFF"/>
<stop offset="0.1849" stop-color="#DADAFF"/>
<stop offset="0.3691" stop-color="#D0CEFF"/>
<stop offset="0.4888" stop-color="#C5C2FF"/>
<stop offset="0.6241" stop-color="#D2D0FF"/>
<stop offset="0.7978" stop-color="#DBDBFF"/>
<stop offset="1" stop-color="#DEDEFF"/>
</linearGradient>
<linearGradient id="paint9_linear" x1="25.2866" y1="16.2066" x2="28.7631" y2="16.2066" gradientUnits="userSpaceOnUse">
<stop stop-color="#DEDEFF"/>
<stop offset="0.1849" stop-color="#DADAFF"/>
<stop offset="0.3691" stop-color="#D0CEFF"/>
<stop offset="0.4888" stop-color="#C5C2FF"/>
<stop offset="0.6241" stop-color="#D2D0FF"/>
<stop offset="0.7978" stop-color="#DBDBFF"/>
<stop offset="1" stop-color="#DEDEFF"/>
</linearGradient>
<linearGradient id="paint10_linear" x1="25.2866" y1="16.4625" x2="26.1916" y2="16.4625" gradientUnits="userSpaceOnUse">
<stop stop-color="#DEDEFF"/>
<stop offset="0.1849" stop-color="#DADAFF"/>
<stop offset="0.3691" stop-color="#D0CEFF"/>
<stop offset="0.4888" stop-color="#C5C2FF"/>
<stop offset="0.6241" stop-color="#D2D0FF"/>
<stop offset="0.7978" stop-color="#DBDBFF"/>
<stop offset="1" stop-color="#DEDEFF"/>
</linearGradient>
<linearGradient id="paint11_linear" x1="23.5764" y1="17.6858" x2="26.1916" y2="17.6858" gradientUnits="userSpaceOnUse">
<stop stop-color="#DEDEFF"/>
<stop offset="0.1849" stop-color="#DADAFF"/>
<stop offset="0.3691" stop-color="#D0CEFF"/>
<stop offset="0.4888" stop-color="#C5C2FF"/>
<stop offset="0.6241" stop-color="#D2D0FF"/>
<stop offset="0.7978" stop-color="#DBDBFF"/>
<stop offset="1" stop-color="#DEDEFF"/>
</linearGradient>
<linearGradient id="paint12_linear" x1="21.8789" y1="19.6396" x2="24.4753" y2="19.6396" gradientUnits="userSpaceOnUse">
<stop stop-color="#DEDEFF"/>
<stop offset="0.1849" stop-color="#DADAFF"/>
<stop offset="0.3691" stop-color="#D0CEFF"/>
<stop offset="0.4888" stop-color="#C5C2FF"/>
<stop offset="0.6241" stop-color="#D2D0FF"/>
<stop offset="0.7978" stop-color="#DBDBFF"/>
<stop offset="1" stop-color="#DEDEFF"/>
</linearGradient>
<linearGradient id="paint13_linear" x1="13.4717" y1="18.9217" x2="22.7902" y2="18.9217" gradientUnits="userSpaceOnUse">
<stop stop-color="#DEDEFF"/>
<stop offset="0.1849" stop-color="#DADAFF"/>
<stop offset="0.3691" stop-color="#D0CEFF"/>
<stop offset="0.4888" stop-color="#C5C2FF"/>
<stop offset="0.6241" stop-color="#D2D0FF"/>
<stop offset="0.7978" stop-color="#DBDBFF"/>
<stop offset="1" stop-color="#DEDEFF"/>
</linearGradient>
<linearGradient id="paint14_linear" x1="16.8481" y1="21.0563" x2="17.7821" y2="21.0563" gradientUnits="userSpaceOnUse">
<stop stop-color="#7E5AFF"/>
<stop offset="0.4888" stop-color="#662EFF"/>
<stop offset="0.8021" stop-color="#7448FF"/>
<stop offset="1" stop-color="#7E5AFF"/>
</linearGradient>
<linearGradient id="paint15_linear" x1="16.8481" y1="21.0513" x2="17.7624" y2="21.0513" gradientUnits="userSpaceOnUse">
<stop stop-color="#7E5AFF"/>
<stop offset="0.4888" stop-color="#662EFF"/>
<stop offset="0.8021" stop-color="#7448FF"/>
<stop offset="1" stop-color="#7E5AFF"/>
</linearGradient>
<linearGradient id="paint16_linear" x1="16.8645" y1="21.0641" x2="17.782" y2="21.0641" gradientUnits="userSpaceOnUse">
<stop stop-color="#7E5AFF"/>
<stop offset="0.4888" stop-color="#662EFF"/>
<stop offset="0.8021" stop-color="#7448FF"/>
<stop offset="1" stop-color="#7E5AFF"/>
</linearGradient>
<linearGradient id="paint17_linear" x1="13.4216" y1="25.0133" x2="14.3329" y2="25.0133" gradientUnits="userSpaceOnUse">
<stop stop-color="#DEDEFF"/>
<stop offset="0.1849" stop-color="#DADAFF"/>
<stop offset="0.3691" stop-color="#D0CEFF"/>
<stop offset="0.4888" stop-color="#C5C2FF"/>
<stop offset="0.6241" stop-color="#D2D0FF"/>
<stop offset="0.7978" stop-color="#DBDBFF"/>
<stop offset="1" stop-color="#DEDEFF"/>
</linearGradient>
<linearGradient id="paint18_linear" x1="19.3572" y1="11.6628" x2="23.1208" y2="11.6628" gradientUnits="userSpaceOnUse">
<stop stop-color="#DEDEFF"/>
<stop offset="0.1849" stop-color="#DADAFF"/>
<stop offset="0.3691" stop-color="#D0CEFF"/>
<stop offset="0.4888" stop-color="#C5C2FF"/>
<stop offset="0.6241" stop-color="#D2D0FF"/>
<stop offset="0.7978" stop-color="#DBDBFF"/>
<stop offset="1" stop-color="#DEDEFF"/>
</linearGradient>
<linearGradient id="paint19_linear" x1="16.8169" y1="12.3525" x2="20.2434" y2="12.3525" gradientUnits="userSpaceOnUse">
<stop stop-color="#DEDEFF"/>
<stop offset="0.1849" stop-color="#DADAFF"/>
<stop offset="0.3691" stop-color="#D0CEFF"/>
<stop offset="0.4888" stop-color="#C5C2FF"/>
<stop offset="0.6241" stop-color="#D2D0FF"/>
<stop offset="0.7978" stop-color="#DBDBFF"/>
<stop offset="1" stop-color="#DEDEFF"/>
</linearGradient>
<linearGradient id="paint20_linear" x1="15.8682" y1="15.4545" x2="18.0964" y2="15.4545" gradientUnits="userSpaceOnUse">
<stop stop-color="#DEDEFF"/>
<stop offset="0.1849" stop-color="#DADAFF"/>
<stop offset="0.3691" stop-color="#D0CEFF"/>
<stop offset="0.4888" stop-color="#C5C2FF"/>
<stop offset="0.6241" stop-color="#D2D0FF"/>
<stop offset="0.7978" stop-color="#DBDBFF"/>
<stop offset="1" stop-color="#DEDEFF"/>
</linearGradient>
<linearGradient id="paint21_linear" x1="14.2893" y1="18.7438" x2="16.7422" y2="18.7438" gradientUnits="userSpaceOnUse">
<stop stop-color="#DEDEFF"/>
<stop offset="0.1849" stop-color="#DADAFF"/>
<stop offset="0.3691" stop-color="#D0CEFF"/>
<stop offset="0.4888" stop-color="#C5C2FF"/>
<stop offset="0.6241" stop-color="#D2D0FF"/>
<stop offset="0.7978" stop-color="#DBDBFF"/>
<stop offset="1" stop-color="#DEDEFF"/>
</linearGradient>
</defs>
</svg>
