<?xml version="1.0" encoding="UTF-8"?> <svg xmlns="http://www.w3.org/2000/svg" width="1417" height="549" viewBox="0 0 1417 549" fill="none"><path d="M1355.63 70.3337L1355.28 55.5769L1310.81 55.293C1313.59 105.322 1313.59 123.387 1313.59 207.873C1330.25 215.1 1348.6 222.605 1355.83 227.882L1390.57 189.252C1380.85 188.419 1364.45 182.864 1355.28 177.581C1355.28 127.83 1355.28 112.271 1355.83 95.3172L1355.63 70.3337Z" fill="#3000B3"></path><path d="M736.55 177.581L694.859 207.872C711.523 215.1 728.496 222.604 735.717 227.881L770.458 189.252C760.731 188.419 745.721 182.864 736.55 177.581Z" fill="#1D006D"></path><path d="M416.635 87.5347L444.278 49.7449L443.877 49.4609L370.223 82.2578C373.006 115.049 373.006 143.118 373.006 199.263C391.627 204.818 421.64 216.489 445.834 227.882L478.353 189.252C459.177 186.475 428.886 179.803 414.709 171.465C414.709 135.891 414.709 116.16 416.653 87.5286L416.635 87.5347Z" fill="#3000B3"></path><path d="M271.46 189.616L266.263 187.864C250.976 183.975 235.972 178.97 223.468 171.465C223.468 135.891 224.085 116.092 226.023 87.4667H226.128L253.506 50.084L252.648 49.4668L179 82.2577C181.777 115.049 181.777 143.118 181.777 199.263C197.343 203.151 219.296 216.488 239.583 227.882C239.583 227.882 264.597 198.146 270.713 190.919L271.46 189.616Z" fill="#3000B3"></path><path d="M941.388 195.122L894.97 188.728C878.022 184.562 860.512 179.556 846.897 171.496C846.897 136.199 846.897 116.468 848.841 88.3986L849.033 88.4295L881.638 49.4668L802.436 82.2638C805.213 115.055 805.213 143.124 805.213 199.269C820.772 203.157 850.514 219.556 862.185 227.888L941.388 195.122Z" fill="#3000B3"></path><path d="M1269.54 134.206H1235.45H1201.55C1201.83 118.363 1202.38 104.47 1203.49 87.516L1203.7 87.5778L1230.77 49.4668L1157.11 82.2638C1159.89 115.055 1159.89 143.124 1159.89 199.269C1178.51 204.824 1208.53 216.495 1232.72 227.888L1265.24 189.258C1246.07 186.481 1215.77 179.809 1201.6 171.471V146.451L1236.89 160.35C1248.74 150.16 1254.85 144.605 1269.57 134.224" fill="#3000B3"></path><path d="M48.64 55.5763L117.283 63.9084L126.738 16.663L43.5977 8.34961L48.6215 55.8294L48.64 55.5763Z" fill="#1D006D"></path><path d="M135.909 246.23C133.125 196.201 133.125 160.349 133.125 104.21C117.56 100.322 85.047 83.9234 73.3761 75.5791C73.3761 75.5791 57.4095 93.3416 47.1211 104.803V116.739C61.7977 121.17 76.7459 126.441 88.6636 134.477C88.6636 178.945 88.6636 201.75 85.8802 251.741L135.909 246.23Z" fill="#1D006D"></path><path d="M1313.41 208.157C1330 215.341 1348.59 222.642 1355.81 227.907L1390.55 189.277C1381.36 188.487 1365.07 182.544 1355.69 177.551L1313.41 208.157Z" fill="#1D006D"></path><path d="M790.739 456.19L781.419 413.413L733.156 421.64C723.83 397.508 719.713 383.794 713.684 359.663C727.391 351.164 757.01 332.241 769.625 321.823C791.843 327.304 814.327 333.889 832.423 333.889L820.907 378.585C803.354 374.747 778.124 365.149 761.657 358.021L777.284 404.087L819.253 391.201C826.659 413.419 831.596 433.977 836.534 460.325C818.987 472.119 802.805 488.567 792.936 497.356C763.867 491.875 747.962 488.857 717.522 488.857C721.911 469.385 729.866 453.758 737.272 441.951L790.739 456.19Z" fill="#1D006D"></path><path d="M921.539 327.291H945.671L941.832 354.447H920.718C920.169 377.487 920.169 402.982 920.169 447.685C929.223 452.894 944.029 458.381 953.626 459.201L919.348 497.319C912.22 492.11 895.488 484.703 879.034 477.569C879.034 426.565 879.034 387.898 878.491 354.441H865.326C870.264 342.375 872.732 339.357 877.67 327.285C877.398 316.046 876.849 305.067 876.3 294.377L922.915 299.864C922.372 310.016 921.817 318.793 921.539 327.291Z" fill="#1D006D"></path><path d="M879.034 477.569C879.034 426.565 879.034 387.898 878.491 354.441H865.326C870.264 342.375 872.732 339.357 877.67 327.285C877.398 316.046 876.849 305.067 876.3 294.377L922.915 299.864C922.372 310.01 921.823 318.786 921.545 327.285H945.677L941.838 354.441H920.724C920.175 377.48 920.175 402.976 920.175 447.679" fill="#3000B3"></path><path d="M739.39 420.566L782.494 402.482L777.303 404.075L761.676 358.008L767.984 323.125C754.616 333.753 726.843 351.515 713.672 359.65C719.702 383.782 723.818 397.495 733.144 421.627L739.39 420.566Z" fill="#3000B3"></path><path d="M790.74 456.189L737.267 441.933C729.861 453.727 721.912 469.354 717.518 488.838C747.957 488.838 763.862 491.856 792.931 497.337C802.67 488.696 818.556 472.551 835.838 460.8L790.74 456.189Z" fill="#3000B3"></path><path d="M682.905 340.623L682.343 405.377C667.34 415.943 661.224 421.504 649.275 431.786L613.978 417.888V442.902C628.174 451.24 658.415 457.912 677.622 460.689L645.103 499.318C620.928 487.925 590.908 476.254 572.275 470.694C572.275 414.53 572.275 386.479 569.498 353.688L643.152 320.897C654.836 329.229 665.667 332.568 682.905 340.623ZM647.88 405.655V371.753C637.876 366.754 628.704 363.113 615.922 358.971C614.811 375.919 614.256 389.83 613.978 405.655H647.88Z" fill="#3000B3"></path><path d="M617.719 358.971L617.676 359.551C629.538 363.477 638.351 366.988 647.881 371.753V405.655H681.955L682.344 405.377L682.906 340.622C666.458 332.938 655.842 329.513 644.764 322.002L617.719 358.971Z" fill="#1D006D"></path><path d="M512.962 502.071L513.358 501.839C512.808 437.997 513.358 415.699 515.001 347.476H529.831L541.639 316.175H515.829L519.044 289.55C535.796 284.233 549.006 275.377 561.63 273.504C561.086 273.186 527.711 252.951 520.587 243.879C513.444 249.824 488.926 257.651 472.453 265.801C473.274 281.761 474.102 298.658 474.652 316.182H474.38L462.572 347.483H475.752C475.906 352.948 476.055 358.189 476.197 363.267H470.673C471.229 401.964 471.229 478.42 471.229 537.408C487.913 545.656 485.997 542.12 493.226 548.149L532.772 511.524C523.034 510.566 522.144 508.868 512.962 502.846V502.071Z" fill="#1D006D"></path><path d="M518.736 294.179L533.857 285.847L560.744 303.321L579.552 274.596C579.542 274.428 579.476 273.813 579.455 273.674L525.385 238.596C510.014 248.26 481.078 261.481 468.744 266.714L518.736 294.179Z" fill="#1D006D"></path><path d="M515.9 316.245L518.736 293.871L524.907 238.941C519.845 243.172 497.93 252.942 486.735 258.667V258.455L468.455 266.626C469.006 279.006 469.568 291.711 469.847 304.697C469.668 304.895 469.662 309.583 469.736 316.217H448.714L437.885 347.549H470.286C470.484 356.531 470.658 363.348 470.658 363.348C471.215 402.082 471.214 478.612 471.214 537.657L513.011 503.062V502.293L513.406 502.061C512.856 438.158 513.406 415.837 515.052 347.549H541.73L553.915 316.245H515.9Z" fill="#3000B3"></path><path d="M48.6216 55.8294L43.5977 8.34961H43.357C30.5752 18.9158 15.0099 31.136 1.11711 39.7518C3.89442 89.7806 2.78349 169.823 0 222.351H49.751C48.4303 197.263 47.4675 168.348 47.1218 139.458V88.9227L48.6216 55.8294Z" fill="#3000B3"></path><path d="M566.024 84.825C567.147 52.7314 567.258 28.3342 568.394 8.3252L521.148 13.8798C523.926 63.8717 523.376 137.829 523.376 222.321H565.641V147.29L566.024 84.825Z" fill="#3000B3"></path><path d="M644.818 141.729C635.375 137.557 624.809 132.558 616.199 128.114L638.979 119.474V69.7476C617.865 62.7981 610.638 58.6384 595.351 49.4609C595.351 49.4609 575.983 70.803 566.238 81.7764L566.17 89.1826C579.514 91.6514 585.346 92.7993 597.301 96.1259V110.877C597.301 113.648 578.23 128.855 565.72 139.964L565.664 146.556L566.281 147.043C582.328 152.87 594.548 157.856 603.146 161.738C603.146 175.637 602.868 211.483 602.868 223.16L644.836 228.16C643.404 206.768 643.404 166.188 644.818 141.729Z" fill="#1D006D"></path><path d="M416.635 87.5352C434.144 93.3675 445.266 97.8174 460.27 106.989L483.617 69.2172C466.583 61.2494 455.801 57.892 444.278 49.7637L416.635 87.5352Z" fill="#1D006D"></path><path d="M309.905 177.581C309.448 127.886 309.621 116.159 309.621 78.0855C294.407 74.2775 265.69 58.5455 253.513 50.084L226.098 87.5654L226.135 87.7012C243.218 90.7871 253.957 95.4345 267.936 101.464C267.936 126.769 267.251 149.259 266.264 187.87L271.46 189.623L270.806 191.073C281.638 208.792 296.58 222.901 303.517 227.888L338.252 189.258C328.803 187.864 319.07 182.864 309.905 177.581Z" fill="#1D006D"></path><path d="M694.86 207.873C694.86 156.184 694.86 116.993 694.31 83.0847H680.967C685.966 70.8583 688.472 67.8033 693.471 55.5768C693.193 44.1775 692.638 33.062 692.082 22.249L739.328 27.8037C738.778 38.0859 738.217 46.9795 737.939 55.5768H762.392L758.503 83.0847H737.106C736.55 106.433 736.55 132.28 736.55 177.581L694.86 207.873Z" fill="#3000B3"></path><path d="M848.928 88.5588L851.65 88.8859C867.727 91.8977 884.076 95.9094 896.951 101.433C896.951 127.552 896.951 148.117 895 188.696L941.388 195.121C938.61 145.093 938.61 116.19 938.61 78.1161C923.045 74.2217 893.303 57.8232 881.632 49.4912L848.928 88.5588Z" fill="#1D006D"></path><path d="M1026.68 82.7948C1028.29 47.0663 1027.73 18.1266 1028.37 0L984.461 13.8989C985.294 63.8906 984.739 161.195 984.739 199.276C1000.3 203.164 1030.05 219.562 1041.72 227.894L1115.38 195.122V195.035L1068.82 189.919V189.814C1051.39 186.728 1040.58 182.038 1026.45 175.94C1026.45 162.362 1026.45 126.473 1026.73 89.232L1026.68 82.7948Z" fill="#3000B3"></path><path d="M1115.38 195.005C1112.61 162.251 1112.61 134.175 1112.61 78.0857C1097.03 74.1913 1075.08 60.8541 1054.79 49.4609C1054.79 49.4609 1035.79 71.9633 1026.83 82.6837V89.2258C1042.64 93.1141 1057.9 98.3848 1070.93 105.89C1070.93 141.137 1070.28 161.522 1068.83 189.9L1115.38 195.005Z" fill="#1D006D"></path><path d="M1203.56 87.7935L1205.34 88.3551C1217.2 92.2804 1225.66 95.2922 1235.19 100.082V133.99L1269.52 134.249C1269.66 134.15 1270.14 133.761 1270.25 133.669L1270.46 69.2163C1254.01 61.5262 1241.95 56.8727 1230.87 49.3369L1203.56 87.7935Z" fill="#1D006D"></path><path d="M1372.21 50.0156L1356.08 70.0246L1355.69 70.4628V95.0945L1357.67 96.1129C1366.26 99.7326 1374.65 103.826 1382.79 108.376L1416.12 70.3023C1403.05 63.9083 1385.82 56.6812 1372.21 50.0156Z" fill="#1D006D"></path><path d="M196.912 422.775L238.535 367.451L245.453 338.061C233.665 342.147 222.346 348.905 212.126 355.034L197.826 330.964C212.28 326.878 222.186 322.94 236.331 317.602L274.837 339.925L259.278 383.301L227.845 416.937C242.614 416.937 257.704 417.091 271.381 415.048L263.518 438.625H205.867L196.912 422.775Z" fill="#67E8B1"></path><path d="M378.129 336.962C378.129 358.496 378.29 394.977 379.863 423.25L335.068 441.766C328.464 437.05 311.646 427.774 302.845 425.577C302.845 393.823 302.691 357.835 301.117 339.289L345.912 320.773C352.51 325.489 369.328 334.759 378.129 336.962ZM353.615 419.634C354.713 396.687 354.553 364.939 354.553 350.164C346.857 346.862 336.951 344.504 327.366 342.757C326.267 359.1 326.422 389.91 326.422 409.87C334.124 414.449 344.024 417.307 353.615 419.634Z" fill="#67E8B1"></path><path d="M1018.7 422.775L1060.35 367.451L1067.27 338.061C1055.48 342.147 1044.17 348.905 1033.94 355.034L1019.64 330.964C1034.1 326.878 1044 322.94 1058.15 317.602L1096.65 339.925L1081.09 383.301L1049.66 416.937C1064.43 416.937 1079.52 417.091 1093.2 415.048L1085.34 438.625H1027.66L1018.7 422.775Z" fill="#67E8B1"></path><path d="M1131.08 441.951C1131.08 429.694 1129.98 373.265 1129.98 352.052L1143.97 342.93H1122.91L1127 320.773H1155.28L1153.56 342.776C1153.72 377.196 1154.03 423.719 1155.28 438.809L1131.08 441.951Z" fill="#67E8B1"></path></svg> 