<?xml version="1.0" encoding="UTF-8"?> <svg xmlns="http://www.w3.org/2000/svg" xmlns:xlink="http://www.w3.org/1999/xlink" id="Layer_1" data-name="Layer 1" viewBox="0 0 148.94 37.21"><defs><style>.cls-1,.cls-5{fill:#fff;}.cls-1{fill-rule:evenodd;}.cls-2{mask:url(#mask);}.cls-3{mask:url(#mask-2-2);}.cls-4{mask:url(#mask-3);}</style><mask id="mask" x="0" y="0" width="15.93" height="22.03" maskUnits="userSpaceOnUse"><g transform="translate(-0.29)"><g id="mask-2"><polygon id="path-1" class="cls-1" points="0.29 0 16.22 0 16.22 22.03 0.29 22.03 0.29 0"></polygon></g></g></mask><mask id="mask-2-2" x="51.24" y="6.13" width="15.99" height="22.39" maskUnits="userSpaceOnUse"><g transform="translate(-0.29)"><g id="mask-4"><polygon id="path-3" class="cls-1" points="51.52 6.13 67.51 6.13 67.51 28.52 51.52 28.52 51.52 6.13"></polygon></g></g></mask><mask id="mask-3" x="0" y="28.38" width="0.14" height="0.14" maskUnits="userSpaceOnUse"><g transform="translate(-0.29)"><g id="mask-6"><polygon id="path-5" class="cls-1" points="0.29 28.38 0.43 28.38 0.43 28.52 0.29 28.52 0.29 28.38"></polygon></g></g></mask></defs><g id="Page-1"><g id="Group-29"><g id="Group-5"><path id="Fill-1" class="cls-1" d="M103.93,7.7h0a6.74,6.74,0,0,0-2.08,5.19v9.23h3.59V12.89a3.31,3.31,0,0,1,.88-2.52,4.61,4.61,0,0,1,3.29-.73l2-3.38-2-.13a7.12,7.12,0,0,0-5.66,1.57" transform="translate(-0.29)"></path><path id="Fill-3" class="cls-1" d="M19.94,7.7h0a6.74,6.74,0,0,0-2.08,5.19v9.23h3.59V12.89a3.27,3.27,0,0,1,.89-2.52,4.57,4.57,0,0,1,3.28-.73l2-3.38-2-.13A7.13,7.13,0,0,0,19.94,7.7" transform="translate(-0.29)"></path></g><polygon id="Fill-6" class="cls-1" points="28.67 22.12 32.26 22.12 32.26 6.38 28.67 6.38 28.67 22.12"></polygon><g id="Group-28"><path id="Fill-7" class="cls-1" d="M145.68,6.61v9.27a2.48,2.48,0,1,1-5,0V6.61h-3.56v9.27a2.4,2.4,0,0,1-2.49,2.66,2.37,2.37,0,0,1-2.46-2.66V6.61h-3.58v9.27a5.94,5.94,0,0,0,6,6.24,5.69,5.69,0,0,0,4.26-1.83,5.72,5.72,0,0,0,4.25,1.83,5.88,5.88,0,0,0,6-6.24V6.61Z" transform="translate(-0.29)"></path><g id="Group-11"><g class="cls-2"><path id="Fill-9" class="cls-1" d="M8.25,6.1A8,8,0,0,0,3.88,7.41V0H.29V12.67a9.74,9.74,0,0,0,1.53,6,8,8,0,0,0,4.69,3.14A8.32,8.32,0,0,0,8,22h.25a8,8,0,1,0,0-15.93m4.42,8A4.42,4.42,0,1,1,8.25,9.65a4.42,4.42,0,0,1,4.42,4.42" transform="translate(-0.29)"></path></g></g><path id="Fill-12" class="cls-1" d="M46.49,7.41A8,8,0,1,0,42.11,22C46,22,49.9,18.87,50,14.86,50.05,11.91,50,9,50,6c0-2,0-4,0-6H46.49Zm0,6.66a4.43,4.43,0,1,1-4.43-4.42,4.43,4.43,0,0,1,4.43,4.42Z" transform="translate(-0.29)"></path><g id="Group-16"><g class="cls-3"><path id="Fill-14" class="cls-1" d="M67.48,14c0-.24,0-.49-.06-.73a8.08,8.08,0,0,0-7.87-7.1h-.06a8,8,0,1,0,4.42,14.59A4.42,4.42,0,0,1,55.79,23l-.32-.49L52.9,25.05l.25.33a7.94,7.94,0,0,0,6.34,3.14,8.12,8.12,0,0,0,7.9-7,25.15,25.15,0,0,0,.06-3.58c0-1.3.11-2.67,0-4m-3.57.14a4.42,4.42,0,1,1-4.42-4.43,4.43,4.43,0,0,1,4.42,4.43" transform="translate(-0.29)"></path></g></g><path id="Fill-17" class="cls-1" d="M97.33,17.58a4.42,4.42,0,1,1-.27-7.21l.54.4h0l2.51-2.51-.4-.34a8,8,0,1,0,0,12.29l0,0,.42-.35-2.51-2.51Z" transform="translate(-0.29)"></path><path id="Fill-19" class="cls-1" d="M74.24,6.58a8,8,0,1,0,9.55,11.59c-.17-.21-2.93-1.5-3.15-1.66a4.29,4.29,0,0,1-2.16,1.71,4.46,4.46,0,0,1-4.63-1l7.58-2.76h0l3.46-1.26-.06-.39a8.36,8.36,0,0,0-.38-1.47A8,8,0,0,0,74.24,6.58Zm-1.7,7.28a4.43,4.43,0,0,1,7.68-2.79Z" transform="translate(-0.29)"></path><path id="Fill-21" class="cls-1" d="M116.1,6.58a8,8,0,1,0,9.55,11.59c-.17-.21-2.93-1.5-3.14-1.66a4.35,4.35,0,0,1-2.17,1.71,4.44,4.44,0,0,1-4.62-1l7.57-2.76h0l3.46-1.26-.07-.39a8.36,8.36,0,0,0-.38-1.47A8,8,0,0,0,116.1,6.58Zm-1.69,7.28a4.42,4.42,0,0,1,7.67-2.79Z" transform="translate(-0.29)"></path><g id="Group-25"><g class="cls-4"><path id="Stroke-23" class="cls-1" d="M0,28.23" transform="translate(-0.29)"></path></g></g><path id="Fill-26" class="cls-1" d="M29.12,4.44a.28.28,0,0,0,.28.29h3a.28.28,0,0,0,.29-.29v-3a.28.28,0,0,0-.29-.28Z" transform="translate(-0.29)"></path></g></g></g><path class="cls-5" d="M71,32.12h2.76c1,0,1.62.43,1.62,1.25a1.06,1.06,0,0,1-.9,1.14c.67.23,1,.59,1,1.2,0,1-.74,1.38-1.84,1.38H71Zm2.64,2.07c.58,0,.84-.2.84-.65s-.28-.62-.81-.62H71.85v1.27Zm0,2.09c.64,0,.91-.22.91-.69s-.26-.68-.89-.68H71.85V36.3Z" transform="translate(-0.29)"></path><path class="cls-5" d="M78.27,35.38,76,32.12H77.1l1.6,2.38h.07l1.62-2.38h1l-2.24,3.25v1.72h-.91Z" transform="translate(-0.29)"></path><path class="cls-5" d="M84.3,32.12h2.52a1.62,1.62,0,0,1,1.84,1.75,1.69,1.69,0,0,1-1.92,1.79H85.21v1.43H84.3Zm2.45,2.73a1,1,0,1,0,0-1.91H85.21v1.91Z" transform="translate(-0.29)"></path><path class="cls-5" d="M89.8,32.12h2.6c1.24,0,1.85.6,1.85,1.67a1.49,1.49,0,0,1-1.14,1.58l1.32,1.72H93.36l-1.15-1.56h-1.5v1.56H89.8Zm2.57,2.61a.83.83,0,0,0,1-.9c0-.51-.26-.89-1-.89H90.71v1.79Z" transform="translate(-0.29)"></path><path class="cls-5" d="M95.54,32.12h.91v5h-.91Z" transform="translate(-0.29)"></path><path class="cls-5" d="M97.81,36.68v-.93h0a4.75,4.75,0,0,0,2.23.62c.77,0,1.17-.25,1.17-.66s-.31-.54-1.5-.75c-1-.18-1.86-.45-1.86-1.38S98.55,32,100,32a4.06,4.06,0,0,1,1.88.47v.93h0a3.71,3.71,0,0,0-1.94-.57c-.77,0-1.14.26-1.14.64s.58.55,1.47.72,1.89.44,1.89,1.45c0,.64-.4,1.56-2.13,1.56A4.73,4.73,0,0,1,97.81,36.68Z" transform="translate(-0.29)"></path><path class="cls-5" d="M103.32,32.12h1.08l1.76,3.08,1.73-3.08H109v5h-.9V33.54h0l-1.86,3.22h-.08l-1.84-3.22h-.05v3.55h-.89Z" transform="translate(-0.29)"></path><path class="cls-5" d="M112,32.12h1.47l2,5h-.95l-.5-1.26h-2.53l-.5,1.26H110ZM111.79,35h1.91L112.89,33h-.28Z" transform="translate(-0.29)"></path><path class="cls-5" d="M116,32.75a1.21,1.21,0,1,1,1.2,1.12A1.09,1.09,0,0,1,116,32.75Zm2.1,0a.9.9,0,1,0-.9.85A.81.81,0,0,0,118.06,32.75Zm-1.36-.52h.55c.32,0,.46.14.46.38a.33.33,0,0,1-.23.32l.26.32h-.29l-.23-.28H117v.28h-.26Zm.54.53c.15,0,.21,0,.21-.15s-.06-.16-.2-.16H117v.31Z" transform="translate(-0.29)"></path><path class="cls-5" d="M121,34.63A2.57,2.57,0,0,1,123.79,32a3.08,3.08,0,0,1,1.85.6v.93h0a3.15,3.15,0,0,0-1.86-.7,1.7,1.7,0,0,0-1.83,1.78,1.66,1.66,0,0,0,1.81,1.75,3,3,0,0,0,1.88-.68h0v.93a3.33,3.33,0,0,1-1.94.58A2.44,2.44,0,0,1,121,34.63Z" transform="translate(-0.29)"></path><path class="cls-5" d="M126.93,32.12h.9v4.13h3l0,.84h-3.82Z" transform="translate(-0.29)"></path><path class="cls-5" d="M131.35,34.61a2.72,2.72,0,1,1,2.72,2.6A2.49,2.49,0,0,1,131.35,34.61Zm4.51,0a1.79,1.79,0,1,0-1.79,1.78A1.64,1.64,0,0,0,135.86,34.61Z" transform="translate(-0.29)"></path><path class="cls-5" d="M138,35.18V32.12h.91v3c0,.92.66,1.23,1.43,1.23s1.43-.3,1.43-1.2V32.12h.91v3c0,1.5-1,2.06-2.35,2.06S138,36.65,138,35.18Z" transform="translate(-0.29)"></path><path class="cls-5" d="M144.19,32.12h2.37a2.28,2.28,0,0,1,2.5,2.48,2.29,2.29,0,0,1-2.5,2.49h-2.37Zm2.36,4.15a1.45,1.45,0,0,0,1.58-1.66,1.46,1.46,0,0,0-1.58-1.67H145.1v3.33Z" transform="translate(-0.29)"></path></svg> 